G04*
G04 #@! TF.GenerationSoftware,Altium Limited,Altium Designer,22.9.1 (49)*
G04*
G04 Layer_Color=8388736*
%FSTAX24Y24*%
%MOIN*%
G70*
G04*
G04 #@! TF.SameCoordinates,DC5806C5-9D72-4097-8AC5-96CD70471510*
G04*
G04*
G04 #@! TF.FilePolarity,Negative*
G04*
G01*
G75*
G04:AMPARAMS|DCode=24|XSize=102.5mil|YSize=24.5mil|CornerRadius=12.2mil|HoleSize=0mil|Usage=FLASHONLY|Rotation=90.000|XOffset=0mil|YOffset=0mil|HoleType=Round|Shape=RoundedRectangle|*
%AMROUNDEDRECTD24*
21,1,0.1025,0.0000,0,0,90.0*
21,1,0.0780,0.0245,0,0,90.0*
1,1,0.0245,0.0000,0.0390*
1,1,0.0245,0.0000,-0.0390*
1,1,0.0245,0.0000,-0.0390*
1,1,0.0245,0.0000,0.0390*
%
%ADD24ROUNDEDRECTD24*%
%ADD25R,0.0245X0.1025*%
%ADD26R,0.0513X0.0592*%
%ADD27R,0.0710X0.1104*%
%ADD28R,0.0415X0.1793*%
%ADD29R,0.4076X0.3584*%
%ADD30R,0.0592X0.0513*%
%ADD31R,0.4883X0.3919*%
%ADD32R,0.0710X0.1458*%
%ADD33R,0.0592X0.0434*%
%ADD34R,0.0552X0.0513*%
%ADD35C,0.1460*%
%ADD36C,0.0610*%
%ADD37R,0.0610X0.0610*%
%ADD38C,0.0592*%
%ADD39R,0.0592X0.0592*%
G04:AMPARAMS|DCode=40|XSize=67.1mil|YSize=67.1mil|CornerRadius=18.8mil|HoleSize=0mil|Usage=FLASHONLY|Rotation=0.000|XOffset=0mil|YOffset=0mil|HoleType=Round|Shape=RoundedRectangle|*
%AMROUNDEDRECTD40*
21,1,0.0671,0.0295,0,0,0.0*
21,1,0.0295,0.0671,0,0,0.0*
1,1,0.0375,0.0148,-0.0148*
1,1,0.0375,-0.0148,-0.0148*
1,1,0.0375,-0.0148,0.0148*
1,1,0.0375,0.0148,0.0148*
%
%ADD40ROUNDEDRECTD40*%
%ADD41C,0.0671*%
D24*
X0191Y008397D02*
D03*
X0196D02*
D03*
X0201D02*
D03*
X0206D02*
D03*
X0211D02*
D03*
X0216D02*
D03*
X0221D02*
D03*
X0226D02*
D03*
X0231D02*
D03*
X0236D02*
D03*
Y004803D02*
D03*
X0231D02*
D03*
X0226D02*
D03*
X0221D02*
D03*
X0216D02*
D03*
X0211D02*
D03*
X0206D02*
D03*
X0201D02*
D03*
X0196D02*
D03*
D25*
X0191D02*
D03*
D26*
X017931Y00295D02*
D03*
X0186D02*
D03*
X019615D02*
D03*
X020285D02*
D03*
X021785D02*
D03*
X021115D02*
D03*
X022765D02*
D03*
X023435D02*
D03*
D27*
X0077Y005941D02*
D03*
Y007359D02*
D03*
X00355Y005991D02*
D03*
Y007409D02*
D03*
X00555Y007409D02*
D03*
Y005991D02*
D03*
D28*
X02015Y013938D02*
D03*
X02065D02*
D03*
X02115D02*
D03*
X02165D02*
D03*
X02215D02*
D03*
X02265D02*
D03*
X02315D02*
D03*
X017217D02*
D03*
X016717D02*
D03*
X016217D02*
D03*
X015717D02*
D03*
X015217D02*
D03*
X014717D02*
D03*
X014217D02*
D03*
X0046Y013888D02*
D03*
X0041D02*
D03*
X0036D02*
D03*
X0031D02*
D03*
X0026D02*
D03*
X0021D02*
D03*
X0016D02*
D03*
X010283D02*
D03*
X009783D02*
D03*
X009283D02*
D03*
X008783D02*
D03*
X008283D02*
D03*
X007783D02*
D03*
X007283D02*
D03*
D29*
X02165Y017757D02*
D03*
X015717D02*
D03*
X0031Y017707D02*
D03*
X008783D02*
D03*
D30*
X0152Y012355D02*
D03*
Y011686D02*
D03*
X01785Y007135D02*
D03*
Y006465D02*
D03*
X0212Y011686D02*
D03*
Y012355D02*
D03*
X016034Y011686D02*
D03*
Y012355D02*
D03*
X022059Y011686D02*
D03*
Y012355D02*
D03*
X016867Y011686D02*
D03*
Y012355D02*
D03*
X022917Y011686D02*
D03*
Y012355D02*
D03*
X0026Y011636D02*
D03*
Y012305D02*
D03*
X003484Y011636D02*
D03*
Y012305D02*
D03*
X0083Y011686D02*
D03*
Y012355D02*
D03*
X004367Y012305D02*
D03*
Y011636D02*
D03*
X009181Y011686D02*
D03*
Y012355D02*
D03*
X010062Y012355D02*
D03*
Y011686D02*
D03*
D31*
X0122Y00545D02*
D03*
D32*
X0112Y001405D02*
D03*
X0132D02*
D03*
D33*
X0118Y011666D02*
D03*
Y012414D02*
D03*
X017676Y011666D02*
D03*
Y012414D02*
D03*
X005226Y011616D02*
D03*
Y012364D02*
D03*
X00611Y011616D02*
D03*
Y012364D02*
D03*
X01851Y011666D02*
D03*
Y012414D02*
D03*
X01786Y008166D02*
D03*
Y008914D02*
D03*
X01686Y008166D02*
D03*
Y008914D02*
D03*
X010919Y011666D02*
D03*
Y012414D02*
D03*
X023751Y011666D02*
D03*
Y012414D02*
D03*
X02461Y011666D02*
D03*
Y012414D02*
D03*
X01569Y002084D02*
D03*
Y001336D02*
D03*
X01485Y002098D02*
D03*
Y00135D02*
D03*
X00959Y002084D02*
D03*
Y001336D02*
D03*
X00879Y002084D02*
D03*
Y001336D02*
D03*
X00505Y021202D02*
D03*
Y02195D02*
D03*
X00426Y021216D02*
D03*
Y021964D02*
D03*
X01981Y020916D02*
D03*
Y021664D02*
D03*
X01901Y020916D02*
D03*
Y021664D02*
D03*
D34*
X01785Y005663D02*
D03*
Y004837D02*
D03*
D35*
X02505Y02345D02*
D03*
X0009Y001D02*
D03*
Y02345D02*
D03*
X0251Y001D02*
D03*
D36*
X021766Y0011D02*
D03*
X018616D02*
D03*
X006566Y0208D02*
D03*
X0214Y02075D02*
D03*
D37*
X02275Y0011D02*
D03*
X0196D02*
D03*
X00755Y0208D02*
D03*
X022384Y02075D02*
D03*
D38*
X018532Y02305D02*
D03*
X019319D02*
D03*
X020894D02*
D03*
X021681D02*
D03*
X020106D02*
D03*
X003713D02*
D03*
X0045D02*
D03*
X006075D02*
D03*
X006863D02*
D03*
X005288D02*
D03*
D39*
X022469D02*
D03*
X00765D02*
D03*
D40*
X0041Y00195D02*
D03*
D41*
X0071D02*
D03*
M02*
