G04*
G04 #@! TF.GenerationSoftware,Altium Limited,Altium Designer,22.9.1 (49)*
G04*
G04 Layer_Physical_Order=1*
G04 Layer_Color=255*
%FSTAX24Y24*%
%MOIN*%
G70*
G04*
G04 #@! TF.SameCoordinates,DC5806C5-9D72-4097-8AC5-96CD70471510*
G04*
G04*
G04 #@! TF.FilePolarity,Positive*
G04*
G01*
G75*
%ADD15C,0.0100*%
%ADD16R,0.0433X0.0512*%
%ADD17R,0.0630X0.1024*%
%ADD18R,0.0335X0.1713*%
%ADD19R,0.3996X0.3504*%
%ADD20R,0.0512X0.0433*%
%ADD21R,0.0630X0.1378*%
%ADD22R,0.0512X0.0354*%
%ADD23R,0.0472X0.0433*%
G04:AMPARAMS|DCode=24|XSize=102.5mil|YSize=24.5mil|CornerRadius=12.2mil|HoleSize=0mil|Usage=FLASHONLY|Rotation=90.000|XOffset=0mil|YOffset=0mil|HoleType=Round|Shape=RoundedRectangle|*
%AMROUNDEDRECTD24*
21,1,0.1025,0.0000,0,0,90.0*
21,1,0.0780,0.0245,0,0,90.0*
1,1,0.0245,0.0000,0.0390*
1,1,0.0245,0.0000,-0.0390*
1,1,0.0245,0.0000,-0.0390*
1,1,0.0245,0.0000,0.0390*
%
%ADD24ROUNDEDRECTD24*%
%ADD25R,0.0245X0.1025*%
%ADD36C,0.0610*%
%ADD37R,0.0610X0.0610*%
%ADD42R,0.4803X0.3839*%
%ADD43C,0.0500*%
%ADD44C,0.0300*%
%ADD45C,0.1380*%
%ADD46C,0.0512*%
%ADD47R,0.0512X0.0512*%
G04:AMPARAMS|DCode=48|XSize=59.1mil|YSize=59.1mil|CornerRadius=14.8mil|HoleSize=0mil|Usage=FLASHONLY|Rotation=0.000|XOffset=0mil|YOffset=0mil|HoleType=Round|Shape=RoundedRectangle|*
%AMROUNDEDRECTD48*
21,1,0.0591,0.0295,0,0,0.0*
21,1,0.0295,0.0591,0,0,0.0*
1,1,0.0295,0.0148,-0.0148*
1,1,0.0295,-0.0148,-0.0148*
1,1,0.0295,-0.0148,0.0148*
1,1,0.0295,0.0148,0.0148*
%
%ADD48ROUNDEDRECTD48*%
%ADD49C,0.0591*%
%ADD50C,0.0236*%
%ADD51C,0.0500*%
G36*
X022728Y023304D02*
X022743Y023303D01*
X023223Y0233D01*
Y0228D01*
X022723Y022795D01*
Y023305D01*
X022728Y023304D01*
D02*
G37*
G36*
X006331Y023012D02*
X006336Y022949D01*
X006341Y022921D01*
X006347Y022895D01*
X006354Y022871D01*
X006362Y02285D01*
X006372Y022831D01*
X006384Y022814D01*
X006397Y022799D01*
X006326Y022729D01*
X006311Y022741D01*
X006294Y022753D01*
X006275Y022763D01*
X006254Y022771D01*
X00623Y022779D01*
X006204Y022785D01*
X006176Y022789D01*
X006146Y022792D01*
X006078Y022794D01*
X006331Y023047D01*
X006331Y023012D01*
D02*
G37*
G36*
X005544D02*
X005549Y022949D01*
X005553Y022921D01*
X005559Y022895D01*
X005566Y022871D01*
X005575Y02285D01*
X005585Y022831D01*
X005596Y022814D01*
X005609Y022799D01*
X005538Y022729D01*
X005524Y022741D01*
X005507Y022753D01*
X005488Y022763D01*
X005466Y022771D01*
X005443Y022779D01*
X005417Y022785D01*
X005389Y022789D01*
X005358Y022792D01*
X00529Y022794D01*
X005544Y023047D01*
X005544Y023012D01*
D02*
G37*
G36*
X004757D02*
X004761Y022949D01*
X004766Y022921D01*
X004772Y022895D01*
X004779Y022871D01*
X004788Y02285D01*
X004798Y022831D01*
X004809Y022814D01*
X004822Y022799D01*
X004751Y022729D01*
X004736Y022741D01*
X00472Y022753D01*
X0047Y022763D01*
X004679Y022771D01*
X004655Y022779D01*
X004629Y022785D01*
X004601Y022789D01*
X004571Y022792D01*
X004503Y022794D01*
X004756Y023047D01*
X004757Y023012D01*
D02*
G37*
G36*
X007908Y023272D02*
X007919Y023234D01*
X007937Y023193D01*
X007961Y023148D01*
X007993Y023099D01*
X008032Y023047D01*
X008131Y022929D01*
X008258Y022795D01*
X007905Y022442D01*
X007836Y022509D01*
X007653Y022668D01*
X007601Y022707D01*
X007552Y022739D01*
X007507Y022763D01*
X007466Y022781D01*
X007428Y022792D01*
X007395Y022795D01*
X007905Y023305D01*
X007908Y023272D01*
D02*
G37*
G36*
X0051Y022207D02*
X005102Y02219D01*
X005105Y022174D01*
X005108Y022161D01*
X005113Y02215D01*
X005118Y022141D01*
X005124Y022134D01*
X005132Y022129D01*
X005141Y022126D01*
X00515Y022125D01*
X00495D01*
X00496Y022126D01*
X004968Y022129D01*
X004976Y022134D01*
X004982Y022141D01*
X004988Y02215D01*
X004992Y022161D01*
X004996Y022174D01*
X004998Y02219D01*
X004999Y022207D01*
X005Y022226D01*
X0051D01*
X0051Y022207D01*
D02*
G37*
G36*
X004796Y021864D02*
X004795Y021874D01*
X004792Y021882D01*
X004787Y02189D01*
X00478Y021896D01*
X004771Y021902D01*
X00476Y021906D01*
X004747Y02191D01*
X004732Y021912D01*
X004715Y021914D01*
X004695Y021914D01*
Y022014D01*
X004715Y022015D01*
X004732Y022016D01*
X004747Y022019D01*
X00476Y022022D01*
X004771Y022027D01*
X00478Y022032D01*
X004787Y022039D01*
X004792Y022046D01*
X004795Y022055D01*
X004796Y022064D01*
Y021864D01*
D02*
G37*
G36*
X004516Y022055D02*
X004519Y022046D01*
X004524Y022039D01*
X004531Y022032D01*
X00454Y022027D01*
X004551Y022022D01*
X004564Y022019D01*
X004579Y022016D01*
X004596Y022015D01*
X004615Y022014D01*
Y021914D01*
X004596Y021914D01*
X004579Y021912D01*
X004564Y02191D01*
X004551Y021906D01*
X00454Y021902D01*
X004531Y021896D01*
X004524Y02189D01*
X004519Y021882D01*
X004516Y021874D01*
X004515Y021864D01*
Y022064D01*
X004516Y022055D01*
D02*
G37*
G36*
X004006Y021864D02*
X004005Y021874D01*
X004002Y021882D01*
X003997Y02189D01*
X00399Y021896D01*
X003981Y021902D01*
X00397Y021906D01*
X003957Y02191D01*
X003942Y021912D01*
X003925Y021914D01*
X003905Y021914D01*
Y022014D01*
X003925Y022015D01*
X003942Y022016D01*
X003957Y022019D01*
X00397Y022022D01*
X003981Y022027D01*
X00399Y022032D01*
X003997Y022039D01*
X004002Y022046D01*
X004005Y022055D01*
X004006Y022064D01*
Y021864D01*
D02*
G37*
G36*
X0076Y021185D02*
X007602Y021167D01*
X007605Y021152D01*
X007608Y021139D01*
X007613Y021128D01*
X007618Y021119D01*
X007624Y021112D01*
X007632Y021107D01*
X007641Y021104D01*
X00765Y021103D01*
X00745D01*
X007459Y021104D01*
X007468Y021107D01*
X007476Y021112D01*
X007482Y021119D01*
X007487Y021128D01*
X007492Y021139D01*
X007495Y021152D01*
X007498Y021167D01*
X007499Y021185D01*
X0075Y021204D01*
X0076D01*
X0076Y021185D01*
D02*
G37*
G36*
X006602Y021264D02*
X006607Y021241D01*
X006615Y021217D01*
X006627Y021193D01*
X006642Y021167D01*
X00666Y021141D01*
X006682Y021114D01*
X006707Y021086D01*
X006768Y021029D01*
X006341Y021007D01*
X006371Y02104D01*
X006422Y021104D01*
X006443Y021133D01*
X00646Y021161D01*
X006475Y021188D01*
X006486Y021214D01*
X006494Y021237D01*
X006498Y02126D01*
X0065Y021281D01*
X0066Y021286D01*
X006602Y021264D01*
D02*
G37*
G36*
X003699Y020473D02*
X003713Y020462D01*
X003727Y020453D01*
X003741Y020446D01*
X003755Y02044D01*
X00377Y020437D01*
X003785Y020435D01*
X0038Y020435D01*
X003815Y020437D01*
X003831Y02044D01*
X00366Y020269D01*
X003663Y020285D01*
X003665Y0203D01*
X003665Y020315D01*
X003663Y02033D01*
X00366Y020345D01*
X003654Y020359D01*
X003647Y020373D01*
X003638Y020387D01*
X003627Y020401D01*
X003615Y020415D01*
X003685Y020485D01*
X003699Y020473D01*
D02*
G37*
G36*
X015969Y019912D02*
X015977Y019827D01*
X015989Y019752D01*
X016007Y019687D01*
X016029Y019632D01*
X016057Y019587D01*
X016089Y019552D01*
X016127Y019527D01*
X016169Y019512D01*
X016217Y019507D01*
X015217D01*
X015264Y019512D01*
X015307Y019527D01*
X015344Y019552D01*
X015377Y019587D01*
X015404Y019632D01*
X015427Y019687D01*
X015444Y019752D01*
X015457Y019827D01*
X015464Y019912D01*
X015467Y020007D01*
X015967D01*
X015969Y019912D01*
D02*
G37*
G36*
X024Y019507D02*
X023901Y019405D01*
X023746Y019221D01*
X023689Y01914D01*
X023647Y019066D01*
X023619Y018998D01*
X023604Y018938D01*
Y018885D01*
X023619Y018839D01*
X023647Y0188D01*
X02294Y019507D01*
X022979Y019479D01*
X023025Y019465D01*
X023078D01*
X023138Y019479D01*
X023205Y019507D01*
X023279Y01955D01*
X02336Y019606D01*
X023449Y019677D01*
X023647Y019861D01*
X024Y019507D01*
D02*
G37*
G36*
X009036Y019862D02*
X009043Y019777D01*
X009056Y019702D01*
X009073Y019637D01*
X009096Y019582D01*
X009123Y019537D01*
X009156Y019502D01*
X009193Y019477D01*
X009236Y019462D01*
X009283Y019457D01*
X008283D01*
X008331Y019462D01*
X008373Y019477D01*
X008411Y019502D01*
X008443Y019537D01*
X008471Y019582D01*
X008493Y019637D01*
X008511Y019702D01*
X008523Y019777D01*
X008531Y019862D01*
X008533Y019957D01*
X009033D01*
X009036Y019862D01*
D02*
G37*
G36*
X003352D02*
X00336Y019777D01*
X003372Y019702D01*
X00339Y019637D01*
X003413Y019582D01*
X00344Y019537D01*
X003473Y019502D01*
X00351Y019477D01*
X003553Y019462D01*
X0036Y019457D01*
X0026D01*
X002648Y019462D01*
X00269Y019477D01*
X002727Y019502D01*
X00276Y019537D01*
X002788Y019582D01*
X00281Y019637D01*
X002828Y019702D01*
X00284Y019777D01*
X002848Y019862D01*
X00285Y019957D01*
X00335D01*
X003352Y019862D01*
D02*
G37*
G36*
X021803Y017551D02*
X021781Y017517D01*
X021762Y017476D01*
X021746Y017428D01*
X021732Y017374D01*
X02172Y017314D01*
X021711Y017248D01*
X021701Y017097D01*
X0217Y017012D01*
X0216D01*
X021599Y017097D01*
X02158Y017314D01*
X021568Y017374D01*
X021554Y017428D01*
X021538Y017476D01*
X021519Y017517D01*
X021497Y017551D01*
X021473Y01758D01*
X021827D01*
X021803Y017551D01*
D02*
G37*
G36*
X015869D02*
X015848Y017517D01*
X015829Y017476D01*
X015812Y017428D01*
X015798Y017374D01*
X015787Y017314D01*
X015778Y017248D01*
X015768Y017097D01*
X015767Y017012D01*
X015667D01*
X015665Y017097D01*
X015646Y017314D01*
X015635Y017374D01*
X015621Y017428D01*
X015604Y017476D01*
X015585Y017517D01*
X015564Y017551D01*
X01554Y01758D01*
X015894D01*
X015869Y017551D01*
D02*
G37*
G36*
X008936Y017501D02*
X008915Y017467D01*
X008896Y017426D01*
X008879Y017378D01*
X008865Y017324D01*
X008854Y017264D01*
X008845Y017198D01*
X008835Y017047D01*
X008833Y016962D01*
X008733D01*
X008732Y017047D01*
X008713Y017264D01*
X008702Y017324D01*
X008688Y017378D01*
X008671Y017426D01*
X008652Y017467D01*
X008631Y017501D01*
X008606Y01753D01*
X00896D01*
X008936Y017501D01*
D02*
G37*
G36*
X003253D02*
X003231Y017467D01*
X003212Y017426D01*
X003196Y017378D01*
X003182Y017324D01*
X00317Y017264D01*
X003161Y017198D01*
X003151Y017047D01*
X00315Y016962D01*
X00305D01*
X003049Y017047D01*
X00303Y017264D01*
X003018Y017324D01*
X003004Y017378D01*
X002988Y017426D01*
X002969Y017467D01*
X002947Y017501D01*
X002923Y01753D01*
X003277D01*
X003253Y017501D01*
D02*
G37*
G36*
X021741Y016006D02*
X021732Y016003D01*
X021725Y015998D01*
X021718Y015991D01*
X021713Y015982D01*
X021708Y015971D01*
X021704Y015958D01*
X021702Y015942D01*
X0217Y015925D01*
X0217Y015906D01*
X0216D01*
X0216Y015925D01*
X021598Y015942D01*
X021595Y015958D01*
X021592Y015971D01*
X021588Y015982D01*
X021582Y015991D01*
X021576Y015998D01*
X021568Y016003D01*
X02156Y016006D01*
X02155Y016007D01*
X02175D01*
X021741Y016006D01*
D02*
G37*
G36*
X015807D02*
X015799Y016003D01*
X015791Y015998D01*
X015785Y015991D01*
X015779Y015982D01*
X015775Y015971D01*
X015771Y015958D01*
X015769Y015942D01*
X015767Y015925D01*
X015767Y015906D01*
X015667D01*
X015666Y015925D01*
X015665Y015942D01*
X015662Y015958D01*
X015659Y015971D01*
X015654Y015982D01*
X015649Y015991D01*
X015642Y015998D01*
X015635Y016003D01*
X015626Y016006D01*
X015617Y016007D01*
X015817D01*
X015807Y016006D01*
D02*
G37*
G36*
X008874Y015956D02*
X008865Y015953D01*
X008858Y015948D01*
X008851Y015941D01*
X008846Y015932D01*
X008841Y015921D01*
X008838Y015908D01*
X008835Y015892D01*
X008834Y015875D01*
X008833Y015856D01*
X008733D01*
X008733Y015875D01*
X008731Y015892D01*
X008729Y015908D01*
X008725Y015921D01*
X008721Y015932D01*
X008715Y015941D01*
X008709Y015948D01*
X008701Y015953D01*
X008693Y015956D01*
X008683Y015957D01*
X008883D01*
X008874Y015956D01*
D02*
G37*
G36*
X003191D02*
X003182Y015953D01*
X003174Y015948D01*
X003168Y015941D01*
X003162Y015932D01*
X003158Y015921D01*
X003155Y015908D01*
X003152Y015892D01*
X003151Y015875D01*
X00315Y015856D01*
X00305D01*
X003049Y015875D01*
X003048Y015892D01*
X003045Y015908D01*
X003042Y015921D01*
X003038Y015932D01*
X003032Y015941D01*
X003025Y015948D01*
X003018Y015953D01*
X003009Y015956D01*
X003Y015957D01*
X0032D01*
X003191Y015956D01*
D02*
G37*
G36*
X0217Y014874D02*
X021702Y014857D01*
X021704Y014842D01*
X021708Y014829D01*
X021713Y014818D01*
X021718Y014809D01*
X021725Y014802D01*
X021732Y014797D01*
X021741Y014794D01*
X02175Y014793D01*
X02155D01*
X02156Y014794D01*
X021568Y014797D01*
X021576Y014802D01*
X021582Y014809D01*
X021588Y014818D01*
X021592Y014829D01*
X021595Y014842D01*
X021598Y014857D01*
X0216Y014874D01*
X0216Y014893D01*
X0217D01*
X0217Y014874D01*
D02*
G37*
G36*
X015767D02*
X015769Y014857D01*
X015771Y014842D01*
X015775Y014829D01*
X015779Y014818D01*
X015785Y014809D01*
X015791Y014802D01*
X015799Y014797D01*
X015807Y014794D01*
X015817Y014793D01*
X015617D01*
X015626Y014794D01*
X015635Y014797D01*
X015642Y014802D01*
X015649Y014809D01*
X015654Y014818D01*
X015659Y014829D01*
X015662Y014842D01*
X015665Y014857D01*
X015666Y014874D01*
X015667Y014893D01*
X015767D01*
X015767Y014874D01*
D02*
G37*
G36*
X008834Y014824D02*
X008835Y014807D01*
X008838Y014792D01*
X008841Y014779D01*
X008846Y014768D01*
X008851Y014759D01*
X008858Y014752D01*
X008865Y014747D01*
X008874Y014744D01*
X008883Y014743D01*
X008683D01*
X008693Y014744D01*
X008701Y014747D01*
X008709Y014752D01*
X008715Y014759D01*
X008721Y014768D01*
X008725Y014779D01*
X008729Y014792D01*
X008731Y014807D01*
X008733Y014824D01*
X008733Y014843D01*
X008833D01*
X008834Y014824D01*
D02*
G37*
G36*
X003151D02*
X003152Y014807D01*
X003155Y014792D01*
X003158Y014779D01*
X003162Y014768D01*
X003168Y014759D01*
X003174Y014752D01*
X003182Y014747D01*
X003191Y014744D01*
X0032Y014743D01*
X003D01*
X003009Y014744D01*
X003018Y014747D01*
X003025Y014752D01*
X003032Y014759D01*
X003038Y014768D01*
X003042Y014779D01*
X003045Y014792D01*
X003048Y014807D01*
X003049Y014824D01*
X00305Y014843D01*
X00315D01*
X003151Y014824D01*
D02*
G37*
G36*
X02274Y013083D02*
X022732Y01308D01*
X022724Y013075D01*
X022718Y013068D01*
X022713Y013059D01*
X022708Y013047D01*
X022705Y013034D01*
X022702Y013019D01*
X022701Y013002D01*
X0227Y012983D01*
X0226D01*
X022599Y013002D01*
X022598Y013019D01*
X022596Y013034D01*
X022592Y013047D01*
X022587Y013059D01*
X022582Y013068D01*
X022576Y013075D01*
X022568Y01308D01*
X022559Y013083D01*
X02255Y013084D01*
X02275D01*
X02274Y013083D01*
D02*
G37*
G36*
X022241D02*
X022232Y01308D01*
X022225Y013075D01*
X022218Y013068D01*
X022213Y013059D01*
X022208Y013047D01*
X022204Y013034D01*
X022202Y013019D01*
X022201Y013002D01*
X0222Y012983D01*
X0221D01*
X022099Y013002D01*
X022098Y013019D01*
X022095Y013034D01*
X022092Y013047D01*
X022088Y013059D01*
X022082Y013068D01*
X022076Y013075D01*
X022068Y01308D01*
X02206Y013083D01*
X02205Y013084D01*
X02225D01*
X022241Y013083D01*
D02*
G37*
G36*
X021291D02*
X021282Y01308D01*
X021274Y013075D01*
X021268Y013068D01*
X021263Y013059D01*
X021258Y013047D01*
X021254Y013034D01*
X021252Y013019D01*
X021251Y013002D01*
X02125Y012983D01*
X02115D01*
X021149Y013002D01*
X021148Y013019D01*
X021146Y013034D01*
X021142Y013047D01*
X021137Y013059D01*
X021132Y013068D01*
X021126Y013075D01*
X021118Y01308D01*
X021109Y013083D01*
X0211Y013084D01*
X0213D01*
X021291Y013083D01*
D02*
G37*
G36*
X02074D02*
X020732Y01308D01*
X020724Y013075D01*
X020718Y013068D01*
X020712Y013059D01*
X020708Y013047D01*
X020705Y013034D01*
X020702Y013019D01*
X020701Y013002D01*
X0207Y012983D01*
X0206D01*
X0206Y013002D01*
X020598Y013019D01*
X020596Y013034D01*
X020592Y013047D01*
X020587Y013059D01*
X020582Y013068D01*
X020575Y013075D01*
X020568Y01308D01*
X020559Y013083D01*
X02055Y013084D01*
X02075D01*
X02074Y013083D01*
D02*
G37*
G36*
X016807D02*
X016799Y01308D01*
X016791Y013075D01*
X016785Y013068D01*
X016779Y013059D01*
X016775Y013047D01*
X016771Y013034D01*
X016769Y013019D01*
X016767Y013002D01*
X016767Y012983D01*
X016667D01*
X016666Y013002D01*
X016665Y013019D01*
X016662Y013034D01*
X016659Y013047D01*
X016654Y013059D01*
X016649Y013068D01*
X016642Y013075D01*
X016635Y01308D01*
X016626Y013083D01*
X016617Y013084D01*
X016817D01*
X016807Y013083D01*
D02*
G37*
G36*
X016307D02*
X016299Y01308D01*
X016291Y013075D01*
X016285Y013068D01*
X016279Y013059D01*
X016275Y013047D01*
X016271Y013034D01*
X016269Y013019D01*
X016267Y013002D01*
X016267Y012983D01*
X016167D01*
X016166Y013002D01*
X016165Y013019D01*
X016162Y013034D01*
X016159Y013047D01*
X016154Y013059D01*
X016149Y013068D01*
X016142Y013075D01*
X016135Y01308D01*
X016126Y013083D01*
X016117Y013084D01*
X016317D01*
X016307Y013083D01*
D02*
G37*
G36*
X01529D02*
X015282Y01308D01*
X015274Y013075D01*
X015268Y013068D01*
X015263Y013059D01*
X015258Y013047D01*
X015254Y013034D01*
X015252Y013019D01*
X015251Y013002D01*
X01525Y012983D01*
X01515D01*
X01515Y013002D01*
X015148Y013019D01*
X015145Y013034D01*
X015142Y013047D01*
X015137Y013059D01*
X015132Y013068D01*
X015125Y013075D01*
X015118Y01308D01*
X015109Y013083D01*
X0151Y013084D01*
X0153D01*
X01529Y013083D01*
D02*
G37*
G36*
X014807D02*
X014799Y01308D01*
X014791Y013075D01*
X014785Y013068D01*
X014779Y013059D01*
X014775Y013047D01*
X014771Y013034D01*
X014769Y013019D01*
X014767Y013002D01*
X014767Y012983D01*
X014667D01*
X014666Y013002D01*
X014665Y013019D01*
X014662Y013034D01*
X014659Y013047D01*
X014654Y013059D01*
X014649Y013068D01*
X014642Y013075D01*
X014635Y01308D01*
X014626Y013083D01*
X014617Y013084D01*
X014817D01*
X014807Y013083D01*
D02*
G37*
G36*
X009874Y013033D02*
X009865Y01303D01*
X009858Y013025D01*
X009851Y013018D01*
X009846Y013009D01*
X009841Y012997D01*
X009838Y012984D01*
X009835Y012969D01*
X009834Y012952D01*
X009833Y012933D01*
X009733D01*
X009733Y012952D01*
X009731Y012969D01*
X009729Y012984D01*
X009725Y012997D01*
X009721Y013009D01*
X009715Y013018D01*
X009709Y013025D01*
X009701Y01303D01*
X009693Y013033D01*
X009683Y013034D01*
X009883D01*
X009874Y013033D01*
D02*
G37*
G36*
X009272Y013033D02*
X009263Y01303D01*
X009256Y013025D01*
X009249Y013018D01*
X009244Y013008D01*
X009239Y012997D01*
X009236Y012984D01*
X009233Y012969D01*
X009232Y012952D01*
X009231Y012933D01*
X009131D01*
X009131Y012952D01*
X009126Y013017D01*
X009124Y013024D01*
X009122Y013029D01*
X00912Y013032D01*
X009117Y013033D01*
X009281Y013034D01*
X009272Y013033D01*
D02*
G37*
G36*
X00839Y013033D02*
X008382Y01303D01*
X008375Y013025D01*
X008368Y013018D01*
X008363Y013009D01*
X008358Y012997D01*
X008354Y012984D01*
X008352Y012969D01*
X00835Y012952D01*
X00835Y012933D01*
X00825D01*
X008249Y012952D01*
X008248Y012969D01*
X008245Y012984D01*
X008242Y012997D01*
X008238Y013009D01*
X008232Y013018D01*
X008225Y013025D01*
X008218Y01303D01*
X008209Y013033D01*
X0082Y013034D01*
X0084D01*
X00839Y013033D01*
D02*
G37*
G36*
X007874D02*
X007865Y01303D01*
X007858Y013025D01*
X007851Y013018D01*
X007846Y013009D01*
X007841Y012997D01*
X007838Y012984D01*
X007835Y012969D01*
X007834Y012952D01*
X007833Y012933D01*
X007733D01*
X007733Y012952D01*
X007731Y012969D01*
X007729Y012984D01*
X007725Y012997D01*
X007721Y013009D01*
X007715Y013018D01*
X007709Y013025D01*
X007701Y01303D01*
X007693Y013033D01*
X007683Y013034D01*
X007883D01*
X007874Y013033D01*
D02*
G37*
G36*
X004191D02*
X004182Y01303D01*
X004175Y013025D01*
X004168Y013018D01*
X004162Y013009D01*
X004158Y012997D01*
X004155Y012984D01*
X004152Y012969D01*
X00415Y012952D01*
X00415Y012933D01*
X00405D01*
X004049Y012952D01*
X004048Y012969D01*
X004045Y012984D01*
X004042Y012997D01*
X004038Y013009D01*
X004032Y013018D01*
X004026Y013025D01*
X004018Y01303D01*
X00401Y013033D01*
X004Y013034D01*
X0042D01*
X004191Y013033D01*
D02*
G37*
G36*
X003574Y013033D02*
X003566Y01303D01*
X003558Y013025D01*
X003552Y013018D01*
X003546Y013008D01*
X003542Y012997D01*
X003538Y012984D01*
X003536Y012969D01*
X003534Y012952D01*
X003534Y012933D01*
X003434D01*
X003434Y013033D01*
X003584Y013034D01*
X003574Y013033D01*
D02*
G37*
G36*
X002691Y013033D02*
X002682Y01303D01*
X002675Y013025D01*
X002668Y013018D01*
X002663Y013009D01*
X002658Y012997D01*
X002655Y012984D01*
X002652Y012969D01*
X00265Y012952D01*
X00265Y012933D01*
X00255D01*
X002549Y012952D01*
X002548Y012969D01*
X002546Y012984D01*
X002542Y012997D01*
X002537Y013009D01*
X002532Y013018D01*
X002526Y013025D01*
X002518Y01303D01*
X00251Y013033D01*
X0025Y013034D01*
X0027D01*
X002691Y013033D01*
D02*
G37*
G36*
X002191D02*
X002182Y01303D01*
X002174Y013025D01*
X002168Y013018D01*
X002163Y013009D01*
X002158Y012997D01*
X002155Y012984D01*
X002152Y012969D01*
X00215Y012952D01*
X00215Y012933D01*
X00205D01*
X00205Y012952D01*
X002048Y012969D01*
X002045Y012984D01*
X002042Y012997D01*
X002037Y013009D01*
X002032Y013018D01*
X002025Y013025D01*
X002018Y01303D01*
X002009Y013033D01*
X002Y013034D01*
X0022D01*
X002191Y013033D01*
D02*
G37*
G36*
X022201Y012651D02*
X022202Y012634D01*
X022204Y012619D01*
X022208Y012606D01*
X022213Y012594D01*
X022218Y012585D01*
X022225Y012578D01*
X022232Y012573D01*
X022241Y01257D01*
X02225Y012569D01*
X02205D01*
X02206Y01257D01*
X022068Y012573D01*
X022076Y012578D01*
X022082Y012585D01*
X022088Y012594D01*
X022092Y012606D01*
X022095Y012619D01*
X022098Y012634D01*
X022099Y012651D01*
X0221Y01267D01*
X0222D01*
X022201Y012651D01*
D02*
G37*
G36*
X021251D02*
X021252Y012634D01*
X021254Y012619D01*
X021258Y012606D01*
X021263Y012594D01*
X021268Y012585D01*
X021274Y012578D01*
X021282Y012573D01*
X021291Y01257D01*
X0213Y012569D01*
X0211D01*
X021109Y01257D01*
X021118Y012573D01*
X021126Y012578D01*
X021132Y012585D01*
X021137Y012594D01*
X021142Y012606D01*
X021146Y012619D01*
X021148Y012634D01*
X021149Y012651D01*
X02115Y01267D01*
X02125D01*
X021251Y012651D01*
D02*
G37*
G36*
X016767D02*
X016769Y012634D01*
X016771Y012619D01*
X016775Y012606D01*
X016779Y012594D01*
X016785Y012585D01*
X016791Y012578D01*
X016799Y012573D01*
X016807Y01257D01*
X016817Y012569D01*
X016617D01*
X016626Y01257D01*
X016635Y012573D01*
X016642Y012578D01*
X016649Y012585D01*
X016654Y012594D01*
X016659Y012606D01*
X016662Y012619D01*
X016665Y012634D01*
X016666Y012651D01*
X016667Y01267D01*
X016767D01*
X016767Y012651D01*
D02*
G37*
G36*
X016267Y012651D02*
X01627Y012606D01*
X016272Y012595D01*
X016274Y012586D01*
X016277Y012579D01*
X01628Y012574D01*
X016284Y012571D01*
X016288Y01257D01*
X016117Y012569D01*
X016126Y01257D01*
X016135Y012573D01*
X016142Y012578D01*
X016149Y012586D01*
X016154Y012595D01*
X016159Y012606D01*
X016162Y012619D01*
X016165Y012634D01*
X016166Y012651D01*
X016167Y01267D01*
X016267D01*
X016267Y012651D01*
D02*
G37*
G36*
X015251Y012651D02*
X015252Y012634D01*
X015254Y012619D01*
X015258Y012606D01*
X015263Y012594D01*
X015268Y012585D01*
X015274Y012578D01*
X015282Y012573D01*
X01529Y01257D01*
X0153Y012569D01*
X0151D01*
X015109Y01257D01*
X015118Y012573D01*
X015125Y012578D01*
X015132Y012585D01*
X015137Y012594D01*
X015142Y012606D01*
X015145Y012619D01*
X015148Y012634D01*
X01515Y012651D01*
X01515Y01267D01*
X01525D01*
X015251Y012651D01*
D02*
G37*
G36*
X009232D02*
X009233Y012634D01*
X009236Y012619D01*
X009239Y012606D01*
X009244Y012594D01*
X009249Y012585D01*
X009256Y012578D01*
X009263Y012573D01*
X009272Y01257D01*
X009281Y012569D01*
X009081D01*
X009091Y01257D01*
X009099Y012573D01*
X009107Y012578D01*
X009113Y012585D01*
X009119Y012594D01*
X009123Y012606D01*
X009127Y012619D01*
X009129Y012634D01*
X009131Y012651D01*
X009131Y01267D01*
X009231D01*
X009232Y012651D01*
D02*
G37*
G36*
X00835D02*
X008352Y012634D01*
X008354Y012619D01*
X008358Y012606D01*
X008363Y012594D01*
X008368Y012585D01*
X008375Y012578D01*
X008382Y012573D01*
X00839Y01257D01*
X0084Y012569D01*
X0082D01*
X008209Y01257D01*
X008218Y012573D01*
X008225Y012578D01*
X008232Y012585D01*
X008238Y012594D01*
X008242Y012606D01*
X008245Y012619D01*
X008248Y012634D01*
X008249Y012651D01*
X00825Y01267D01*
X00835D01*
X00835Y012651D01*
D02*
G37*
G36*
X003534Y012601D02*
X003536Y012584D01*
X003538Y012569D01*
X003542Y012556D01*
X003546Y012544D01*
X003552Y012535D01*
X003558Y012528D01*
X003566Y012523D01*
X003574Y01252D01*
X003584Y012519D01*
X003384D01*
X003393Y01252D01*
X003402Y012523D01*
X003409Y012528D01*
X003416Y012535D01*
X003421Y012544D01*
X003426Y012556D01*
X003429Y012569D01*
X003432Y012584D01*
X003433Y012601D01*
X003434Y01262D01*
X003534D01*
X003534Y012601D01*
D02*
G37*
G36*
X00265D02*
X002652Y012584D01*
X002655Y012569D01*
X002658Y012556D01*
X002663Y012544D01*
X002668Y012535D01*
X002675Y012528D01*
X002682Y012523D01*
X002691Y01252D01*
X0027Y012519D01*
X0025D01*
X00251Y01252D01*
X002518Y012523D01*
X002526Y012528D01*
X002532Y012535D01*
X002537Y012544D01*
X002542Y012556D01*
X002546Y012569D01*
X002548Y012584D01*
X002549Y012601D01*
X00255Y01262D01*
X00265D01*
X00265Y012601D01*
D02*
G37*
G36*
X023566Y012848D02*
X023737Y012705D01*
X023789Y01267D01*
X023837Y012641D01*
X023884Y012619D01*
X023927Y012603D01*
X023968Y012593D01*
X024006Y01259D01*
X023498Y012279D01*
X023519Y012298D01*
X023531Y012322D01*
X023534Y012351D01*
X023527Y012385D01*
X02351Y012425D01*
X023484Y01247D01*
X023448Y012521D01*
X023403Y012576D01*
X023285Y012703D01*
X023504Y012908D01*
X023566Y012848D01*
D02*
G37*
G36*
X017383Y01308D02*
X017383Y013074D01*
X017384Y012895D01*
X017394Y012908D01*
X017473Y012832D01*
X017674Y012663D01*
X01773Y012626D01*
X01778Y012599D01*
X017824Y012581D01*
X017863Y012574D01*
X017897Y012577D01*
X017925Y012589D01*
X017423Y012244D01*
X017443Y012264D01*
X017454Y012289D01*
X017456Y012319D01*
X017449Y012354D01*
X017432Y012393D01*
X017406Y012438D01*
X017371Y012488D01*
X017326Y012543D01*
X01721Y012669D01*
X017354Y012856D01*
X017084D01*
X017084Y012899D01*
X017076Y013026D01*
X017072Y013046D01*
X017068Y013062D01*
X017063Y013074D01*
X017057Y01308D01*
X017051Y013083D01*
X017383D01*
X017383Y01308D01*
D02*
G37*
G36*
X00502Y012694D02*
X005129Y012603D01*
X005177Y012569D01*
X005221Y012544D01*
X005262Y012526D01*
X005298Y012517D01*
X005331Y012516D01*
X00536Y012523D01*
X005384Y012539D01*
X004972Y012188D01*
X00497Y012215D01*
X004963Y012243D01*
X004953Y012272D01*
X004938Y012304D01*
X004919Y012337D01*
X004895Y012372D01*
X004868Y012409D01*
X0048Y012487D01*
X00476Y012528D01*
X00496Y012752D01*
X00502Y012694D01*
D02*
G37*
G36*
X024643Y024188D02*
X024631Y02412D01*
X024546Y024064D01*
X024436Y023954D01*
X02435Y023824D01*
X02429Y02368D01*
X02426Y023528D01*
Y023372D01*
X02429Y02322D01*
X02435Y023076D01*
X024436Y022946D01*
X024546Y022836D01*
X024676Y02275D01*
X02482Y02269D01*
X024972Y02266D01*
X025128D01*
X02528Y02269D01*
X025424Y02275D01*
X025554Y022836D01*
X025664Y022946D01*
X02575Y023076D01*
X025797Y023189D01*
X025847Y023179D01*
Y01217D01*
X025797Y012166D01*
X025791Y012212D01*
X025756Y012298D01*
X0257Y012371D01*
X025407Y012664D01*
X025334Y01272D01*
X025248Y012755D01*
X025157Y012767D01*
X023826D01*
X023799Y012786D01*
X02365Y012911D01*
X023422Y013138D01*
Y01392D01*
X023417Y013945D01*
Y014894D01*
X021803D01*
Y015905D01*
X023748D01*
Y018797D01*
X023749Y0188D01*
X023748Y018804D01*
Y019037D01*
X023776Y019085D01*
X023827Y019159D01*
X023977Y019337D01*
X024031Y019392D01*
X0245Y019861D01*
X024556Y019934D01*
X024591Y020019D01*
X024603Y020111D01*
Y02205D01*
X024603Y02205D01*
X024591Y022141D01*
X024556Y022227D01*
X0245Y0223D01*
X0235Y0233D01*
X023427Y023356D01*
X023341Y023391D01*
X02325Y023403D01*
X023054D01*
X022824Y023404D01*
Y023406D01*
X022727D01*
X022723Y023407D01*
X022719Y023406D01*
X022113D01*
Y022694D01*
X022719D01*
X022723Y022693D01*
X022724Y022693D01*
X022724Y022693D01*
X022804Y022694D01*
X022824D01*
Y022694D01*
X023104Y022697D01*
X023897Y021904D01*
Y020257D01*
X023555Y019915D01*
X023382Y019754D01*
X023299Y019688D01*
X023225Y019636D01*
X023176Y019609D01*
X022944D01*
X02294Y019609D01*
X022936Y019609D01*
X019552D01*
Y015905D01*
X021497D01*
Y014894D01*
X0202D01*
Y013938D01*
Y013084D01*
X02025D01*
X02024Y013083D01*
X020232Y01308D01*
X020224Y013075D01*
X020218Y013068D01*
X020213Y013059D01*
X020208Y013047D01*
X020205Y013034D01*
X020202Y013019D01*
X020201Y013002D01*
X0202Y012983D01*
Y012981D01*
X020497D01*
Y01045D01*
X020509Y010391D01*
X020542Y010342D01*
X021447Y009437D01*
Y008966D01*
X021446Y008956D01*
X021446Y008952D01*
X02144Y008948D01*
X02139Y008874D01*
X021375Y008799D01*
X021325D01*
X02131Y008874D01*
X02126Y008948D01*
X021254Y008952D01*
X021253Y00897D01*
Y009233D01*
X021241Y009292D01*
X021208Y009341D01*
X020541Y010008D01*
X020492Y010041D01*
X020433Y010053D01*
X017114D01*
X01709Y010103D01*
X017126Y010165D01*
X01715Y010254D01*
Y010346D01*
X017126Y010435D01*
X01708Y010515D01*
X017015Y01058D01*
X016935Y010626D01*
X016846Y01065D01*
X016754D01*
X016665Y010626D01*
X016585Y01058D01*
X016573Y010568D01*
X015818Y011323D01*
X015838Y011369D01*
X015984D01*
Y011636D01*
X015678D01*
Y011529D01*
X015631Y01151D01*
X015581Y011561D01*
X015566Y011577D01*
X015556Y011589D01*
X015556Y011589D01*
Y011608D01*
X015557Y011612D01*
X015556Y011616D01*
Y012002D01*
X015556D01*
Y012039D01*
X015556D01*
Y012672D01*
X015353D01*
Y012981D01*
X016064D01*
Y012672D01*
X015678D01*
Y012039D01*
X015678D01*
Y012002D01*
X015678D01*
Y011736D01*
X016287D01*
Y011786D01*
X016288Y011776D01*
X016291Y011768D01*
X016296Y01176D01*
X016303Y011754D01*
X016312Y011748D01*
X016324Y011744D01*
X016337Y01174D01*
X016352Y011738D01*
X016369Y011736D01*
X016388Y011736D01*
X016389D01*
Y012002D01*
X016389D01*
Y012039D01*
X016389D01*
Y012567D01*
X01639Y012571D01*
X016389Y012575D01*
Y012672D01*
X01637D01*
Y012981D01*
X016564D01*
Y012672D01*
X016511D01*
Y012052D01*
X016511Y012039D01*
Y012002D01*
X016511Y011989D01*
Y011736D01*
X016512D01*
X016532Y011736D01*
X016549Y011738D01*
X016564Y01174D01*
X016577Y011744D01*
X016588Y011748D01*
X016597Y011754D01*
X016605Y01176D01*
X01661Y011768D01*
X016613Y011776D01*
X016614Y011786D01*
Y011736D01*
X017121D01*
Y011786D01*
X017122Y011776D01*
X017125Y011768D01*
X01713Y01176D01*
X017137Y011754D01*
X017146Y011748D01*
X017157Y011744D01*
X01717Y01174D01*
X017185Y011738D01*
X017203Y011736D01*
X017222Y011736D01*
X017223D01*
Y011989D01*
X017223Y012002D01*
Y012039D01*
X017223Y012052D01*
Y01243D01*
X017273Y012447D01*
X01729Y012427D01*
X01732Y012383D01*
X017321Y012383D01*
Y012137D01*
X017463D01*
X0175Y012108D01*
X017585Y012073D01*
X017676Y012061D01*
X019011D01*
X019097Y011975D01*
Y011253D01*
X0188D01*
X018777Y01125D01*
X018754D01*
X018732Y011244D01*
X018709Y011241D01*
X018687Y011232D01*
X018665Y011226D01*
X018645Y011215D01*
X018623Y011206D01*
X018605Y011192D01*
X018585Y01118D01*
X018569Y011164D01*
X01855Y01115D01*
X018536Y011131D01*
X01852Y011115D01*
X018508Y011095D01*
X018494Y011077D01*
X018485Y011055D01*
X018474Y011035D01*
X018468Y011013D01*
X018459Y010991D01*
X018456Y010968D01*
X01845Y010946D01*
Y010923D01*
X018447Y0109D01*
X01845Y010877D01*
Y010854D01*
X018456Y010832D01*
X018459Y010809D01*
X018468Y010787D01*
X018474Y010765D01*
X018485Y010745D01*
X018494Y010723D01*
X018508Y010705D01*
X01852Y010685D01*
X018536Y010669D01*
X01855Y01065D01*
X018569Y010636D01*
X018585Y01062D01*
X018605Y010608D01*
X018623Y010594D01*
X018645Y010585D01*
X018665Y010574D01*
X018687Y010568D01*
X018709Y010559D01*
X018732Y010556D01*
X018754Y01055D01*
X018777D01*
X0188Y010547D01*
X02D01*
X020023Y01055D01*
X020046D01*
X020068Y010556D01*
X020091Y010559D01*
X020113Y010568D01*
X020135Y010574D01*
X020155Y010585D01*
X020177Y010594D01*
X020195Y010608D01*
X020215Y01062D01*
X020231Y010636D01*
X02025Y01065D01*
X020264Y010669D01*
X02028Y010685D01*
X020292Y010705D01*
X020306Y010723D01*
X020315Y010745D01*
X020326Y010765D01*
X020332Y010787D01*
X020341Y010809D01*
X020344Y010832D01*
X02035Y010854D01*
Y010877D01*
X020353Y0109D01*
X02035Y010923D01*
Y010946D01*
X020344Y010968D01*
X020341Y010991D01*
X020332Y011013D01*
X020326Y011035D01*
X020315Y011055D01*
X020306Y011077D01*
X020292Y011095D01*
X02028Y011115D01*
X020264Y011131D01*
X02025Y01115D01*
X020231Y011164D01*
X020215Y01118D01*
X020195Y011192D01*
X020177Y011206D01*
X020155Y011215D01*
X020135Y011226D01*
X020113Y011232D01*
X020091Y011241D01*
X020068Y011244D01*
X020046Y01125D01*
X020023D01*
X02Y011253D01*
X019803D01*
Y012121D01*
X019791Y012212D01*
X019756Y012298D01*
X0197Y012371D01*
X019407Y012664D01*
X019334Y01272D01*
X019248Y012755D01*
X019157Y012767D01*
X017708D01*
X017555Y012896D01*
X017489Y012962D01*
Y01392D01*
X017484Y013945D01*
Y014894D01*
X01587D01*
Y015905D01*
X017815D01*
Y019609D01*
X016228D01*
X016227Y019609D01*
X016192Y019613D01*
X016173Y019619D01*
X016156Y019631D01*
X016138Y019649D01*
X01612Y019679D01*
X016103Y01972D01*
X016089Y019774D01*
X016078Y01984D01*
X016071Y019918D01*
X01607Y019969D01*
Y02212D01*
X016646Y022697D01*
X018474D01*
X018485Y022694D01*
X018578D01*
X018669Y022718D01*
X01875Y022765D01*
X018816Y022831D01*
X018863Y022913D01*
X018887Y023003D01*
Y023097D01*
X018863Y023187D01*
X018816Y023269D01*
X01875Y023335D01*
X018669Y023382D01*
X018578Y023406D01*
X018485D01*
X018474Y023403D01*
X0165D01*
X0165Y023403D01*
X016409Y023391D01*
X016323Y023356D01*
X01625Y0233D01*
X015467Y022516D01*
X015411Y022443D01*
X015376Y022358D01*
X015364Y022267D01*
Y019969D01*
X015362Y019918D01*
X015355Y01984D01*
X015344Y019774D01*
X01533Y01972D01*
X015313Y019679D01*
X015295Y019649D01*
X015278Y019631D01*
X015261Y019619D01*
X015242Y019613D01*
X015206Y019609D01*
X015205Y019609D01*
X013619D01*
Y015905D01*
X015564D01*
Y014894D01*
X014267D01*
Y013938D01*
Y013084D01*
X014317D01*
X014307Y013083D01*
X014299Y01308D01*
X014291Y013075D01*
X014285Y013068D01*
X014279Y013059D01*
X014275Y013047D01*
X014271Y013034D01*
X014269Y013019D01*
X014267Y013002D01*
X014267Y012983D01*
X014267D01*
Y012981D01*
X014564D01*
Y011033D01*
X014575Y010975D01*
X014609Y010925D01*
X015635Y009899D01*
X015615Y009853D01*
X010299D01*
X010285Y009903D01*
X010315Y00992D01*
X01038Y009985D01*
X010426Y010065D01*
X01045Y010154D01*
Y010246D01*
X010426Y010335D01*
X01038Y010415D01*
X010315Y01048D01*
X010235Y010526D01*
X010146Y01055D01*
X010054D01*
X009965Y010526D01*
X009885Y01048D01*
X009823Y010418D01*
X008918Y011323D01*
X008938Y011369D01*
X009131D01*
Y011636D01*
X008825D01*
Y011482D01*
X008779Y011462D01*
X008681Y011561D01*
X008666Y011577D01*
X008656Y011589D01*
X008656Y011589D01*
Y011608D01*
X008657Y011612D01*
X008656Y011616D01*
Y012002D01*
X008656D01*
Y012039D01*
X008656D01*
Y012672D01*
X008453D01*
Y012931D01*
X009028D01*
Y012672D01*
X008825D01*
Y012039D01*
X008825D01*
Y012002D01*
X008825D01*
Y011736D01*
X009435D01*
Y011786D01*
X009436Y011776D01*
X009439Y011768D01*
X009444Y01176D01*
X009451Y011754D01*
X00946Y011748D01*
X009471Y011744D01*
X009484Y01174D01*
X009499Y011738D01*
X009517Y011736D01*
X009536Y011736D01*
X009537D01*
Y012002D01*
X009537D01*
Y012039D01*
X009537D01*
Y012672D01*
X009334D01*
Y012931D01*
X00963D01*
Y012594D01*
X009642Y012536D01*
X009675Y012486D01*
X009706Y012455D01*
Y012052D01*
X009706Y012039D01*
Y012002D01*
X009706Y011989D01*
Y011736D01*
X009707D01*
Y011736D01*
X009727Y011736D01*
X009744Y011738D01*
X009759Y01174D01*
X009772Y011744D01*
X009783Y011748D01*
X009792Y011754D01*
X0098Y01176D01*
X009805Y011768D01*
X009808Y011776D01*
X009809Y011786D01*
Y011736D01*
X010062D01*
X010316D01*
Y011786D01*
X010317Y011776D01*
X01032Y011768D01*
X010325Y01176D01*
X010332Y011754D01*
X010341Y011748D01*
X010352Y011744D01*
X010365Y01174D01*
X01038Y011738D01*
X010398Y011736D01*
X010417Y011736D01*
X010418D01*
Y011989D01*
X010418Y012002D01*
Y012039D01*
X010418Y012052D01*
Y012356D01*
X010464Y012375D01*
X010563Y012277D01*
Y012137D01*
X010705D01*
X010742Y012108D01*
X010828Y012073D01*
X010919Y012061D01*
X012261D01*
X012347Y011975D01*
Y011253D01*
X012D01*
X011977Y01125D01*
X011954D01*
X011932Y011244D01*
X011909Y011241D01*
X011887Y011232D01*
X011865Y011226D01*
X011845Y011215D01*
X011823Y011206D01*
X011805Y011192D01*
X011785Y01118D01*
X011769Y011164D01*
X01175Y01115D01*
X011736Y011131D01*
X01172Y011115D01*
X011708Y011095D01*
X011694Y011077D01*
X011685Y011055D01*
X011674Y011035D01*
X011668Y011013D01*
X011659Y010991D01*
X011656Y010968D01*
X01165Y010946D01*
Y010923D01*
X011647Y0109D01*
X01165Y010877D01*
Y010854D01*
X011656Y010832D01*
X011659Y010809D01*
X011668Y010787D01*
X011674Y010765D01*
X011685Y010745D01*
X011694Y010723D01*
X011708Y010705D01*
X01172Y010685D01*
X011736Y010669D01*
X01175Y01065D01*
X011769Y010636D01*
X011785Y01062D01*
X011805Y010608D01*
X011823Y010594D01*
X011845Y010585D01*
X011865Y010574D01*
X011887Y010568D01*
X011909Y010559D01*
X011932Y010556D01*
X011954Y01055D01*
X011977D01*
X012Y010547D01*
X0134D01*
X013423Y01055D01*
X013446D01*
X013468Y010556D01*
X013491Y010559D01*
X013513Y010568D01*
X013535Y010574D01*
X013555Y010585D01*
X013577Y010594D01*
X013595Y010608D01*
X013615Y01062D01*
X013631Y010636D01*
X01365Y01065D01*
X013664Y010669D01*
X01368Y010685D01*
X013692Y010705D01*
X013706Y010723D01*
X013715Y010745D01*
X013726Y010765D01*
X013732Y010787D01*
X013741Y010809D01*
X013744Y010832D01*
X01375Y010854D01*
Y010877D01*
X013753Y0109D01*
X01375Y010923D01*
Y010946D01*
X013744Y010968D01*
X013741Y010991D01*
X013732Y011013D01*
X013726Y011035D01*
X013715Y011055D01*
X013706Y011077D01*
X013692Y011095D01*
X01368Y011115D01*
X013664Y011131D01*
X01365Y01115D01*
X013631Y011164D01*
X013615Y01118D01*
X013595Y011192D01*
X013577Y011206D01*
X013555Y011215D01*
X013535Y011226D01*
X013513Y011232D01*
X013491Y011241D01*
X013468Y011244D01*
X013446Y01125D01*
X013423D01*
X0134Y011253D01*
X013053D01*
Y012121D01*
X013041Y012212D01*
X013006Y012298D01*
X01295Y012371D01*
X012657Y012664D01*
X012584Y01272D01*
X012498Y012755D01*
X012407Y012767D01*
X010919D01*
X010828Y012755D01*
X010804Y012773D01*
X010748Y012855D01*
X010556Y013048D01*
Y01387D01*
X010551Y013895D01*
Y014844D01*
X008936D01*
Y015855D01*
X010881D01*
Y019559D01*
X009295D01*
X009294Y019559D01*
X009258Y019563D01*
X009239Y019569D01*
X009222Y019581D01*
X009205Y019599D01*
X009187Y019629D01*
X00917Y01967D01*
X009156Y019724D01*
X009145Y01979D01*
X009138Y019868D01*
X009136Y019919D01*
Y021917D01*
X009124Y022008D01*
X009089Y022093D01*
X009033Y022166D01*
X008301Y022899D01*
X008207Y022997D01*
X008112Y02311D01*
X008077Y023157D01*
X008049Y023201D01*
X008028Y023238D01*
X008015Y023269D01*
X008009Y023291D01*
X008006Y023316D01*
X008006Y023316D01*
Y023406D01*
X007909D01*
X007905Y023407D01*
X007901Y023406D01*
X007896D01*
X007894Y023406D01*
X007893Y023406D01*
X007294D01*
Y022807D01*
X007294Y022806D01*
X007294Y022804D01*
Y022799D01*
X007293Y022795D01*
X007294Y022791D01*
Y022694D01*
X007384D01*
X007384Y022694D01*
X007409Y022691D01*
X007431Y022685D01*
X007462Y022672D01*
X007499Y022651D01*
X007543Y022623D01*
X00759Y022588D01*
X007767Y022434D01*
X007767Y022434D01*
X00843Y02177D01*
Y019919D01*
X008429Y019868D01*
X008422Y01979D01*
X008411Y019724D01*
X008397Y01967D01*
X00838Y019629D01*
X008362Y019599D01*
X008344Y019581D01*
X008327Y019569D01*
X008308Y019563D01*
X008273Y019559D01*
X008272Y019559D01*
X006685D01*
Y015855D01*
X00863D01*
Y014844D01*
X007333D01*
Y013888D01*
Y013034D01*
X007383D01*
X007374Y013033D01*
X007365Y01303D01*
X007358Y013025D01*
X007351Y013018D01*
X007346Y013009D01*
X007341Y012997D01*
X007338Y012984D01*
X007335Y012969D01*
X007334Y012952D01*
X007333Y012933D01*
X007333D01*
Y012931D01*
X00763D01*
Y011128D01*
X00758Y011114D01*
X00758Y011115D01*
X007564Y011131D01*
X00755Y01115D01*
X007531Y011164D01*
X007515Y01118D01*
X007495Y011192D01*
X007477Y011206D01*
X007455Y011215D01*
X007435Y011226D01*
X007413Y011232D01*
X007391Y011241D01*
X007368Y011244D01*
X007346Y01125D01*
X007323D01*
X0073Y011253D01*
X007103D01*
Y012071D01*
X007091Y012162D01*
X007056Y012248D01*
X007Y012321D01*
X006707Y012614D01*
X006634Y01267D01*
X006548Y012705D01*
X006457Y012717D01*
X005226D01*
X005161Y012708D01*
X005102Y012758D01*
X004872Y012988D01*
Y01387D01*
X004867Y013895D01*
Y014844D01*
X003253D01*
Y015855D01*
X005198D01*
Y019559D01*
X003611D01*
X003611Y019559D01*
X003575Y019563D01*
X003556Y019569D01*
X003539Y019581D01*
X003522Y019599D01*
X003504Y019629D01*
X003487Y01967D01*
X003472Y019724D01*
X003461Y01979D01*
X003454Y019868D01*
X003453Y019919D01*
Y020415D01*
X003503Y02042D01*
X003509Y020391D01*
X003542Y020342D01*
X003552Y020332D01*
X003555Y020328D01*
X003559Y020322D01*
X003561Y020318D01*
X003562Y020314D01*
X003563Y020311D01*
X003563Y020309D01*
X003563Y020306D01*
X003563Y020302D01*
X00356Y020292D01*
X00356Y020284D01*
X00355Y020246D01*
Y020154D01*
X003574Y020065D01*
X00362Y019985D01*
X003685Y01992D01*
X003765Y019874D01*
X003854Y01985D01*
X003946D01*
X004035Y019874D01*
X004115Y01992D01*
X00418Y019985D01*
X004226Y020065D01*
X00425Y020154D01*
Y020246D01*
X004226Y020335D01*
X00418Y020415D01*
X004115Y02048D01*
X004035Y020526D01*
X003946Y02055D01*
X003854D01*
X003853Y02055D01*
X003803Y020588D01*
Y021737D01*
X003854Y021788D01*
X003904Y021767D01*
Y021687D01*
X004616D01*
Y021811D01*
X004694D01*
Y021673D01*
X005406D01*
Y022227D01*
X005203D01*
Y0225D01*
X005191Y022559D01*
X005158Y022609D01*
X005045Y022721D01*
X005076Y022761D01*
X00515Y022718D01*
X005241Y022694D01*
X005279D01*
X005287Y022692D01*
X005351Y02269D01*
X005375Y022688D01*
X005398Y022684D01*
X005417Y02268D01*
X005432Y022675D01*
X005445Y02267D01*
X005455Y022665D01*
X00546Y022661D01*
X006397Y021724D01*
Y021274D01*
X006395Y021264D01*
X00639Y02125D01*
X006383Y021233D01*
X006372Y021212D01*
X006358Y021189D01*
X006341Y021165D01*
X006294Y021106D01*
X006265Y021074D01*
X006262Y021069D01*
X006242Y021049D01*
X006188Y020956D01*
X006161Y020853D01*
Y020747D01*
X006188Y020644D01*
X006242Y020551D01*
X006317Y020476D01*
X006409Y020422D01*
X006512Y020395D01*
X006619D01*
X006722Y020422D01*
X006815Y020476D01*
X00689Y020551D01*
X006943Y020644D01*
X006971Y020747D01*
Y020853D01*
X006943Y020956D01*
X00689Y021049D01*
X006843Y021096D01*
X006838Y021102D01*
X00678Y021158D01*
X00676Y021181D01*
X006742Y021203D01*
X006728Y021223D01*
X006717Y021241D01*
X006709Y021256D01*
X006705Y021269D01*
X006703Y021278D01*
Y021788D01*
X006691Y021846D01*
X006658Y021896D01*
X005833Y022721D01*
X005864Y022761D01*
X005938Y022718D01*
X006028Y022694D01*
X006066D01*
X006075Y022692D01*
X006139Y02269D01*
X006163Y022688D01*
X006185Y022684D01*
X006204Y02268D01*
X00622Y022675D01*
X006233Y02267D01*
X006242Y022665D01*
X006247Y022661D01*
X007397Y021512D01*
Y021205D01*
X007145D01*
Y020395D01*
X007955D01*
Y021205D01*
X007703D01*
Y021575D01*
X007691Y021634D01*
X007658Y021683D01*
X00662Y022721D01*
X006651Y022761D01*
X006725Y022718D01*
X006813Y022695D01*
Y023D01*
X006508D01*
X006531Y022913D01*
X006574Y022838D01*
X006534Y022808D01*
X006464Y022878D01*
X00646Y022883D01*
X006455Y022893D01*
X00645Y022905D01*
X006445Y022921D01*
X006441Y02294D01*
X006438Y022961D01*
X006433Y023017D01*
X006433Y023048D01*
X006431Y023058D01*
Y023097D01*
X006407Y023187D01*
X00636Y023269D01*
X006294Y023335D01*
X006213Y023382D01*
X006122Y023406D01*
X006028D01*
X005938Y023382D01*
X005857Y023335D01*
X00579Y023269D01*
X005744Y023187D01*
X005719Y023097D01*
Y023003D01*
X005744Y022913D01*
X005786Y022838D01*
X005746Y022808D01*
X005676Y022878D01*
X005673Y022883D01*
X005668Y022893D01*
X005663Y022905D01*
X005658Y022921D01*
X005653Y02294D01*
X00565Y022961D01*
X005646Y023017D01*
X005646Y023048D01*
X005644Y023058D01*
Y023097D01*
X005619Y023187D01*
X005573Y023269D01*
X005506Y023335D01*
X005425Y023382D01*
X005335Y023406D01*
X005241D01*
X00515Y023382D01*
X005069Y023335D01*
X005003Y023269D01*
X004956Y023187D01*
X004932Y023097D01*
Y023003D01*
X004956Y022913D01*
X004999Y022838D01*
X004959Y022808D01*
X004889Y022878D01*
X004885Y022883D01*
X00488Y022893D01*
X004875Y022905D01*
X00487Y022921D01*
X004866Y02294D01*
X004863Y022961D01*
X004859Y023017D01*
X004858Y023048D01*
X004856Y023058D01*
Y023097D01*
X004832Y023187D01*
X004785Y023269D01*
X004719Y023335D01*
X004638Y023382D01*
X004547Y023406D01*
X004454D01*
X004363Y023382D01*
X004282Y023335D01*
X004216Y023269D01*
X004169Y023187D01*
X004144Y023097D01*
Y023003D01*
X004169Y022913D01*
X004216Y022831D01*
X004282Y022765D01*
X004363Y022718D01*
X004454Y022694D01*
X004492D01*
X0045Y022692D01*
X004564Y02269D01*
X004588Y022688D01*
X00461Y022684D01*
X004629Y02268D01*
X004645Y022675D01*
X004658Y02267D01*
X004667Y022665D01*
X004673Y022661D01*
X004897Y022437D01*
Y022227D01*
X004694D01*
Y022117D01*
X004616D01*
Y022241D01*
X003904D01*
Y022117D01*
X003814D01*
X003755Y022105D01*
X003706Y022072D01*
X003542Y021908D01*
X003509Y021859D01*
X003503Y02183D01*
X003453Y021835D01*
Y022288D01*
X003929Y022764D01*
X003932Y022765D01*
X003998Y022831D01*
X004045Y022913D01*
X004069Y023003D01*
Y023097D01*
X004045Y023187D01*
X003998Y023269D01*
X003932Y023335D01*
X00385Y023382D01*
X00376Y023406D01*
X003666D01*
X003576Y023382D01*
X003494Y023335D01*
X003428Y023269D01*
X003418Y023251D01*
X00285Y022683D01*
X002794Y02261D01*
X002759Y022525D01*
X002747Y022434D01*
Y019919D01*
X002746Y019868D01*
X002739Y01979D01*
X002728Y019724D01*
X002713Y01967D01*
X002696Y019629D01*
X002678Y019599D01*
X002661Y019581D01*
X002644Y019569D01*
X002625Y019563D01*
X002589Y019559D01*
X002589Y019559D01*
X001002D01*
Y015855D01*
X002947D01*
Y014844D01*
X00165D01*
Y013888D01*
Y013034D01*
X0017D01*
X00169Y013033D01*
X001682Y01303D01*
X001674Y013025D01*
X001668Y013018D01*
X001663Y013009D01*
X001658Y012997D01*
X001655Y012984D01*
X001652Y012969D01*
X00165Y012952D01*
X00165Y012933D01*
Y012931D01*
X001947D01*
Y01085D01*
X001959Y010791D01*
X001992Y010742D01*
X003342Y009392D01*
X003391Y009359D01*
X00345Y009347D01*
X007651D01*
X007665Y009297D01*
X007635Y00928D01*
X00757Y009215D01*
X007524Y009135D01*
X0075Y009046D01*
Y008954D01*
X007524Y008865D01*
X00757Y008785D01*
X007635Y00872D01*
X007715Y008674D01*
X007804Y00865D01*
X007896D01*
X007985Y008674D01*
X008065Y00872D01*
X008091Y008746D01*
X008098Y008751D01*
X008144Y008793D01*
X008162Y008808D01*
X008179Y00882D01*
X008195Y00883D01*
X008209Y008838D01*
X008221Y008843D01*
X008231Y008846D01*
X008237Y008847D01*
X008883D01*
X008888Y008843D01*
X00891Y008797D01*
X008908Y008795D01*
X008894Y008777D01*
X008885Y008755D01*
X008874Y008735D01*
X008868Y008713D01*
X008859Y008691D01*
X008856Y008668D01*
X00885Y008646D01*
Y008623D01*
X008847Y0086D01*
Y0074D01*
Y0067D01*
Y006389D01*
X008752Y006294D01*
X008475D01*
X008424Y006296D01*
X008346Y006303D01*
X00828Y006314D01*
X008226Y006328D01*
X008184Y006345D01*
X008155Y006363D01*
X008136Y00638D01*
X008124Y006397D01*
X008118Y006417D01*
X008115Y006443D01*
Y006553D01*
X007398D01*
X007398Y006553D01*
X007396Y006553D01*
X00739D01*
X007386Y006554D01*
X007382Y006553D01*
X007285D01*
Y006464D01*
X007285Y006463D01*
X007281Y006431D01*
X007275Y006415D01*
X007265Y006401D01*
X007247Y006385D01*
X007217Y006368D01*
X007175Y006351D01*
X007121Y006338D01*
X007054Y006327D01*
X006976Y006321D01*
X006928Y006319D01*
X006325D01*
X006274Y006321D01*
X006196Y006328D01*
X00613Y006339D01*
X006076Y006353D01*
X006034Y00637D01*
X006005Y006388D01*
X005986Y006406D01*
X005975Y006422D01*
X005968Y006442D01*
X005965Y006468D01*
Y006603D01*
X005135D01*
Y006503D01*
X005135Y006502D01*
X005131Y006466D01*
X005124Y006447D01*
X005113Y00643D01*
X005094Y006413D01*
X005065Y006395D01*
X005024Y006378D01*
X00497Y006364D01*
X004903Y006353D01*
X004825Y006346D01*
X004775Y006344D01*
X004325D01*
X004274Y006346D01*
X004196Y006353D01*
X00413Y006364D01*
X004076Y006378D01*
X004034Y006395D01*
X004005Y006413D01*
X003986Y00643D01*
X003974Y006447D01*
X003968Y006467D01*
X003965Y006493D01*
Y006603D01*
X003135D01*
Y005485D01*
X003134Y005481D01*
X003134Y005481D01*
X003134Y005481D01*
X003135Y005477D01*
Y00538D01*
X003176D01*
X003197Y005078D01*
Y0025D01*
X003209Y002409D01*
X003244Y002323D01*
X0033Y00225D01*
X003445Y002105D01*
X003549Y001993D01*
X003629Y001893D01*
X003658Y001852D01*
X003681Y001816D01*
X003696Y001786D01*
X003705Y001764D01*
X00371Y001741D01*
X003713Y001735D01*
X003719Y001706D01*
X003774Y001624D01*
X003856Y001569D01*
X003952Y00155D01*
X004248D01*
X004344Y001569D01*
X004426Y001624D01*
X004481Y001706D01*
X0045Y001802D01*
Y002098D01*
X004481Y002194D01*
X004426Y002276D01*
X004344Y002331D01*
X004315Y002337D01*
X004309Y00234D01*
X004286Y002345D01*
X004264Y002354D01*
X004234Y002369D01*
X004198Y002392D01*
X004158Y00242D01*
X003942Y002607D01*
X003903Y002646D01*
Y005087D01*
X003908Y00523D01*
X003917Y005344D01*
X003923Y00538D01*
X003965D01*
Y005477D01*
X003966Y005481D01*
X003966Y005481D01*
X003966Y005481D01*
X003965Y005485D01*
Y00549D01*
X003968Y005516D01*
X003974Y005535D01*
X003986Y005552D01*
X004005Y00557D01*
X004034Y005588D01*
X004076Y005605D01*
X00413Y005619D01*
X004196Y00563D01*
X004274Y005637D01*
X004325Y005638D01*
X004775D01*
X004825Y005637D01*
X004903Y00563D01*
X00497Y005619D01*
X005024Y005605D01*
X005065Y005588D01*
X005094Y00557D01*
X005113Y005552D01*
X005124Y005535D01*
X005131Y005516D01*
X005135Y005481D01*
X005135Y00548D01*
Y00538D01*
X005852D01*
X005852Y005379D01*
X005854Y00538D01*
X00586D01*
X005864Y005379D01*
X005868Y00538D01*
X005965D01*
Y005469D01*
X005965Y005469D01*
X005969Y005502D01*
X005975Y005517D01*
X005985Y005532D01*
X006003Y005548D01*
X006033Y005565D01*
X006075Y005581D01*
X006129Y005595D01*
X006196Y005606D01*
X006274Y005612D01*
X006322Y005613D01*
X006925D01*
X006975Y005612D01*
X007053Y005605D01*
X00712Y005594D01*
X007174Y00558D01*
X007215Y005563D01*
X007244Y005545D01*
X007263Y005527D01*
X007274Y00551D01*
X007281Y005491D01*
X007285Y005456D01*
X007285Y005455D01*
Y00533D01*
X007542D01*
X007547Y005276D01*
X007547Y005261D01*
Y002347D01*
X007559Y002289D01*
X007592Y002239D01*
X008409Y001422D01*
X008424Y001406D01*
X008434Y001394D01*
X008434Y001393D01*
Y001374D01*
X008433Y001371D01*
X008434Y001367D01*
Y001059D01*
X009146D01*
Y001183D01*
X009234D01*
Y001059D01*
X009946D01*
Y001183D01*
X010785D01*
Y000616D01*
X011615D01*
Y002194D01*
X010785D01*
Y001489D01*
X009946D01*
Y001613D01*
X009234D01*
Y001489D01*
X009146D01*
Y001613D01*
X008681D01*
X008677Y001614D01*
X008673Y001613D01*
X008654D01*
X008629Y001634D01*
X008503Y001761D01*
X008522Y001807D01*
X00874D01*
Y002034D01*
X008434D01*
Y001895D01*
X008388Y001876D01*
X007853Y002411D01*
Y005261D01*
X007853Y005277D01*
X007857Y00533D01*
X008115D01*
Y00544D01*
X008118Y005466D01*
X008124Y005485D01*
X008136Y005502D01*
X008155Y00552D01*
X008184Y005538D01*
X008226Y005555D01*
X00828Y005569D01*
X008346Y00558D01*
X008424Y005587D01*
X008475Y005588D01*
X008898D01*
X00899Y0056D01*
X009075Y005636D01*
X009148Y005692D01*
X00945Y005993D01*
X009506Y006066D01*
X009541Y006152D01*
X009553Y006243D01*
X009553Y006243D01*
Y0067D01*
Y0074D01*
Y0086D01*
X00955Y008623D01*
Y008646D01*
X009544Y008668D01*
X009541Y008691D01*
X009532Y008713D01*
X009526Y008735D01*
X009515Y008755D01*
X009506Y008777D01*
X009492Y008795D01*
X00949Y008797D01*
X009512Y008843D01*
X009517Y008847D01*
X015463D01*
X015469Y008846D01*
X015479Y008843D01*
X015491Y008838D01*
X015505Y00883D01*
X015521Y00882D01*
X015538Y008808D01*
X015556Y008793D01*
X015602Y008751D01*
X015609Y008746D01*
X015635Y00872D01*
X015715Y008674D01*
X015804Y00865D01*
X015896D01*
X015985Y008674D01*
X016065Y00872D01*
X016091Y008746D01*
X016098Y008751D01*
X016144Y008793D01*
X016162Y008808D01*
X016179Y00882D01*
X016195Y00883D01*
X016209Y008838D01*
X016221Y008843D01*
X016231Y008846D01*
X016237Y008847D01*
X016427D01*
X016448Y008797D01*
X016258Y008607D01*
X016224Y008557D01*
X016213Y008498D01*
Y00485D01*
Y001688D01*
X016092Y001567D01*
X016046Y001586D01*
Y001613D01*
X015334D01*
Y001503D01*
X015206D01*
Y001627D01*
X014494D01*
Y001503D01*
X013615D01*
Y002194D01*
X012785D01*
Y000616D01*
X013615D01*
Y001197D01*
X014494D01*
Y001073D01*
X015206D01*
Y001197D01*
X015334D01*
Y001059D01*
X016046D01*
Y001183D01*
X016077D01*
X016136Y001195D01*
X016186Y001228D01*
X016474Y001516D01*
X016507Y001566D01*
X016519Y001624D01*
Y004684D01*
X017514D01*
Y00452D01*
X018186D01*
Y005153D01*
X017514D01*
Y00499D01*
X016519D01*
Y007889D01*
X01681D01*
Y00789D01*
X0168D01*
X016799Y007909D01*
X016798Y007926D01*
X016796Y007942D01*
X016792Y007955D01*
X016788Y007966D01*
X016782Y007975D01*
X016775Y007982D01*
X016768Y007987D01*
X01676Y00799D01*
X01675Y007991D01*
X01681D01*
Y008166D01*
Y008443D01*
X016592D01*
X016573Y008489D01*
X016696Y008612D01*
X016712Y008627D01*
X01672Y008634D01*
X016733D01*
X016748Y008637D01*
X017216D01*
Y008761D01*
X017504D01*
Y008637D01*
X018216D01*
Y009037D01*
X018847D01*
X018938Y008946D01*
X01889Y008874D01*
X018873Y008787D01*
Y008008D01*
X01889Y007921D01*
X01894Y007847D01*
X018946Y007843D01*
X018947Y007825D01*
Y005415D01*
X018878D01*
Y00419D01*
X019322D01*
Y005415D01*
X019253D01*
Y007829D01*
X019254Y007839D01*
X019254Y007843D01*
X01926Y007847D01*
X01931Y007921D01*
X019325Y007996D01*
X019375D01*
X01939Y007921D01*
X01944Y007847D01*
X019513Y007798D01*
X01955Y007791D01*
Y007797D01*
D01*
X01955Y007824D01*
X019546Y00787D01*
X019542Y007888D01*
X019538Y007904D01*
X019532Y007917D01*
X019526Y007927D01*
X019519Y007934D01*
X01951Y007938D01*
X019501Y007939D01*
X01955D01*
Y008397D01*
Y009004D01*
X019513Y008997D01*
X01944Y008948D01*
X01939Y008874D01*
X019375Y008799D01*
X019325D01*
X01931Y008874D01*
X01926Y008948D01*
X019254Y008952D01*
X019253Y008969D01*
Y009D01*
X019241Y009059D01*
X019208Y009108D01*
X019019Y009297D01*
X019019Y009302D01*
X019035Y009347D01*
X019637D01*
X019947Y009037D01*
Y008966D01*
X019946Y008956D01*
X019946Y008952D01*
X01994Y008948D01*
X01989Y008874D01*
X019875Y008799D01*
X019825D01*
X01981Y008874D01*
X01976Y008948D01*
X019687Y008997D01*
X01965Y009004D01*
Y008397D01*
Y007939D01*
X019699D01*
X01969Y007938D01*
X019681Y007934D01*
X019674Y007927D01*
X019668Y007917D01*
X019662Y007904D01*
X019658Y007888D01*
X019654Y00787D01*
X019652Y007848D01*
X01965Y007824D01*
X01965Y007797D01*
Y007791D01*
X019687Y007798D01*
X01976Y007847D01*
X01981Y007921D01*
X019825Y007996D01*
X019875D01*
X01989Y007921D01*
X01994Y007847D01*
X020013Y007798D01*
X0201Y007781D01*
X020187Y007798D01*
X02026Y007847D01*
X02031Y007921D01*
X020325Y007996D01*
X020375D01*
X02039Y007921D01*
X02044Y007847D01*
X020513Y007798D01*
X0206Y007781D01*
X020687Y007798D01*
X02076Y007847D01*
X02081Y007921D01*
X020825Y007996D01*
X020875D01*
X02089Y007921D01*
X02094Y007847D01*
X021013Y007798D01*
X0211Y007781D01*
X021187Y007798D01*
X02126Y007847D01*
X02131Y007921D01*
X021325Y007996D01*
X021375D01*
X02139Y007921D01*
X02144Y007847D01*
X021513Y007798D01*
X0216Y007781D01*
X021687Y007798D01*
X02176Y007847D01*
X02181Y007921D01*
X021825Y007996D01*
X021875D01*
X02189Y007921D01*
X02194Y007847D01*
X022013Y007798D01*
X0221Y007781D01*
X022187Y007798D01*
X02226Y007847D01*
X02231Y007921D01*
X022325Y007996D01*
X022375D01*
X02239Y007921D01*
X02244Y007847D01*
X022513Y007798D01*
X0226Y007781D01*
X022687Y007798D01*
X02276Y007847D01*
X02281Y007921D01*
X022825Y007996D01*
X022875D01*
X02289Y007921D01*
X02294Y007847D01*
X023013Y007798D01*
X0231Y007781D01*
X023187Y007798D01*
X02326Y007847D01*
X02331Y007921D01*
X023325Y007996D01*
X023375D01*
X02339Y007921D01*
X02344Y007847D01*
X023513Y007798D01*
X0236Y007781D01*
X023687Y007798D01*
X02376Y007847D01*
X02381Y007921D01*
X023827Y008008D01*
Y008787D01*
X02381Y008874D01*
X02376Y008948D01*
X023687Y008997D01*
X0236Y009014D01*
X023513Y008997D01*
X02344Y008948D01*
X02339Y008874D01*
X023375Y008799D01*
X023325D01*
X02331Y008874D01*
X02326Y008948D01*
X023187Y008997D01*
X0231Y009014D01*
X023013Y008997D01*
X02294Y008948D01*
X02289Y008874D01*
X022875Y008799D01*
X022825D01*
X02281Y008874D01*
X02276Y008948D01*
X022687Y008997D01*
X0226Y009014D01*
X022513Y008997D01*
X02244Y008948D01*
X02239Y008874D01*
X022375Y008799D01*
X022325D01*
X02231Y008874D01*
X02226Y008948D01*
X022187Y008997D01*
X0221Y009014D01*
X022013Y008997D01*
X02194Y008948D01*
X02189Y008874D01*
X021875Y008799D01*
X021825D01*
X02181Y008874D01*
X02176Y008948D01*
X021754Y008952D01*
X021753Y00897D01*
Y009301D01*
X021803Y009315D01*
X02182Y009285D01*
X021885Y00922D01*
X021965Y009174D01*
X022054Y00915D01*
X022146D01*
X022235Y009174D01*
X022315Y00922D01*
X02238Y009285D01*
X022426Y009365D01*
X02245Y009454D01*
Y009546D01*
X022426Y009635D01*
X02238Y009715D01*
X022315Y00978D01*
X022235Y009826D01*
X022146Y00985D01*
X022109D01*
X022101Y009852D01*
X022039Y009854D01*
X022016Y009856D01*
X021994Y00986D01*
X021976Y009864D01*
X021961Y009869D01*
X021949Y009873D01*
X02194Y009878D01*
X021935Y009882D01*
X021353Y010463D01*
Y011369D01*
X021556D01*
Y012002D01*
X021556D01*
Y012039D01*
X021556D01*
Y012672D01*
X021353D01*
Y012981D01*
X021997D01*
Y012672D01*
X021703D01*
Y012052D01*
X021703Y012039D01*
Y012002D01*
X021703Y011989D01*
Y011736D01*
X022312D01*
Y011786D01*
X022313Y011776D01*
X022316Y011768D01*
X022321Y01176D01*
X022328Y011754D01*
X022337Y011748D01*
X022349Y011744D01*
X022362Y01174D01*
X022377Y011738D01*
X022394Y011736D01*
X022413Y011736D01*
X022414D01*
Y011989D01*
X022414Y012002D01*
Y012039D01*
X022414Y012052D01*
Y012672D01*
X022303D01*
Y012981D01*
X022497D01*
Y012583D01*
X022509Y012524D01*
X022542Y012475D01*
X022561Y012455D01*
Y012052D01*
X022561Y012039D01*
Y012002D01*
X022561Y011989D01*
Y011736D01*
X022562D01*
X022582Y011736D01*
X022599Y011738D01*
X022614Y01174D01*
X022627Y011744D01*
X022638Y011748D01*
X022647Y011754D01*
X022655Y01176D01*
X02266Y011768D01*
X022663Y011776D01*
X022664Y011786D01*
Y011736D01*
X023171D01*
Y011766D01*
X023172Y011756D01*
X023175Y011748D01*
X02318Y01174D01*
X023185Y011736D01*
X023273D01*
Y011989D01*
X023273Y012002D01*
Y012039D01*
X023273Y012052D01*
Y012498D01*
X02332Y012516D01*
X023326Y012509D01*
X023367Y012459D01*
X023395Y012419D01*
X023396Y012417D01*
Y012137D01*
X023538D01*
X023575Y012108D01*
X02366Y012073D01*
X023751Y012061D01*
X025011D01*
X025097Y011975D01*
Y011253D01*
X0241D01*
X024077Y01125D01*
X024054D01*
X024032Y011244D01*
X024009Y011241D01*
X023987Y011232D01*
X023965Y011226D01*
X023945Y011215D01*
X023923Y011206D01*
X023905Y011192D01*
X023885Y01118D01*
X023869Y011164D01*
X02385Y01115D01*
X023836Y011131D01*
X02382Y011115D01*
X023808Y011095D01*
X023794Y011077D01*
X023785Y011055D01*
X023774Y011035D01*
X023768Y011013D01*
X023759Y010991D01*
X023756Y010968D01*
X02375Y010946D01*
Y010923D01*
X023747Y0109D01*
X02375Y010877D01*
Y010854D01*
X023756Y010832D01*
X023759Y010809D01*
X023768Y010787D01*
X023774Y010765D01*
X023785Y010745D01*
X023794Y010723D01*
X023808Y010705D01*
X02382Y010685D01*
X023836Y010669D01*
X02385Y01065D01*
X023869Y010636D01*
X023885Y01062D01*
X023905Y010608D01*
X023923Y010594D01*
X023945Y010585D01*
X023965Y010574D01*
X023987Y010568D01*
X024009Y010559D01*
X024032Y010556D01*
X024054Y01055D01*
X024077D01*
X0241Y010547D01*
X02545D01*
X025473Y01055D01*
X025496D01*
X025518Y010556D01*
X025541Y010559D01*
X025563Y010568D01*
X025585Y010574D01*
X025605Y010585D01*
X025627Y010594D01*
X025645Y010608D01*
X025665Y01062D01*
X025681Y010636D01*
X0257Y01065D01*
X025714Y010669D01*
X02573Y010685D01*
X025742Y010705D01*
X025756Y010723D01*
X025765Y010745D01*
X025776Y010765D01*
X025782Y010787D01*
X025791Y010809D01*
X025794Y010832D01*
X025797Y010843D01*
X025847Y010836D01*
Y001413D01*
X025838Y001407D01*
X02577Y001419D01*
X025714Y001504D01*
X025604Y001614D01*
X025474Y0017D01*
X02533Y00176D01*
X025178Y00179D01*
X025022D01*
X02487Y00176D01*
X024726Y0017D01*
X024596Y001614D01*
X024486Y001504D01*
X0244Y001374D01*
X02434Y00123D01*
X02431Y001078D01*
Y000922D01*
X02434Y00077D01*
X0244Y000626D01*
X024486Y000496D01*
X024596Y000386D01*
X024726Y0003D01*
X02487Y00024D01*
X025022Y00021D01*
X025178D01*
X02533Y00024D01*
X025474Y0003D01*
X025604Y000386D01*
X025714Y000496D01*
X02577Y000581D01*
X025838Y000593D01*
X025847Y000587D01*
Y000153D01*
X000153D01*
Y000587D01*
X000162Y000593D01*
X00023Y000581D01*
X000286Y000496D01*
X000396Y000386D01*
X000526Y0003D01*
X00067Y00024D01*
X000822Y00021D01*
X000978D01*
X00113Y00024D01*
X001274Y0003D01*
X001404Y000386D01*
X001514Y000496D01*
X0016Y000626D01*
X00166Y00077D01*
X00169Y000922D01*
Y001078D01*
X00166Y00123D01*
X0016Y001374D01*
X001514Y001504D01*
X001404Y001614D01*
X001274Y0017D01*
X00113Y00176D01*
X000978Y00179D01*
X000822D01*
X00067Y00176D01*
X000526Y0017D01*
X000396Y001614D01*
X000286Y001504D01*
X00023Y001419D01*
X000162Y001407D01*
X000153Y001413D01*
Y023037D01*
X000162Y023043D01*
X00023Y023031D01*
X000286Y022946D01*
X000396Y022836D01*
X000526Y02275D01*
X00067Y02269D01*
X000822Y02266D01*
X000978D01*
X00113Y02269D01*
X001274Y02275D01*
X001404Y022836D01*
X001514Y022946D01*
X0016Y023076D01*
X00166Y02322D01*
X00169Y023372D01*
Y023528D01*
X00166Y02368D01*
X0016Y023824D01*
X001514Y023954D01*
X001404Y024064D01*
X001319Y02412D01*
X001307Y024188D01*
X001313Y024197D01*
X024637D01*
X024643Y024188D01*
D02*
G37*
G36*
X003947Y012533D02*
X003959Y012474D01*
X003992Y012425D01*
X004011Y012405D01*
Y012002D01*
X004011Y011989D01*
Y011952D01*
X004011Y011939D01*
Y011686D01*
X004012D01*
Y011686D01*
X004032Y011686D01*
X004049Y011688D01*
X004064Y01169D01*
X004077Y011694D01*
X004088Y011698D01*
X004097Y011704D01*
X004105Y01171D01*
X00411Y011718D01*
X004113Y011726D01*
X004114Y011736D01*
Y011686D01*
X004367D01*
X004621D01*
Y011736D01*
X004622Y011726D01*
X004625Y011718D01*
X00463Y01171D01*
X004637Y011704D01*
X004646Y011698D01*
X004657Y011694D01*
X00467Y01169D01*
X004685Y011688D01*
X004703Y011686D01*
X004722Y011686D01*
X004723D01*
Y011939D01*
X004723Y011952D01*
Y011989D01*
X004723Y012002D01*
Y012343D01*
X004773Y012362D01*
X004788Y012344D01*
X004812Y012313D01*
X004832Y012283D01*
X004847Y012257D01*
X004858Y012234D01*
X004865Y012214D01*
X004869Y012199D01*
X00487Y01218D01*
X004871Y012178D01*
Y012087D01*
X004962D01*
X004963Y012086D01*
X004967Y012087D01*
X004976D01*
X00498Y012086D01*
X004981Y012087D01*
X005013D01*
X00505Y012058D01*
X005135Y012023D01*
X005226Y012011D01*
X006311D01*
X006379Y011943D01*
X006358Y011893D01*
X00616D01*
Y011616D01*
Y011339D01*
X006397D01*
Y0109D01*
X0064Y010877D01*
Y010854D01*
X006406Y010832D01*
X006409Y010809D01*
X006418Y010787D01*
X006424Y010765D01*
X006435Y010745D01*
X006444Y010723D01*
X006458Y010705D01*
X00647Y010685D01*
X006486Y010669D01*
X0065Y01065D01*
X006519Y010636D01*
X006535Y01062D01*
X006555Y010608D01*
X006573Y010594D01*
X006595Y010585D01*
X006615Y010574D01*
X006637Y010568D01*
X006659Y010559D01*
X006682Y010556D01*
X006704Y01055D01*
X006727D01*
X00675Y010547D01*
X0073D01*
X007323Y01055D01*
X007346D01*
X007368Y010556D01*
X007391Y010559D01*
X007413Y010568D01*
X007435Y010574D01*
X007455Y010585D01*
X007477Y010594D01*
X007495Y010608D01*
X007515Y01062D01*
X007531Y010636D01*
X00755Y01065D01*
X007564Y010669D01*
X00758Y010685D01*
X00758Y010686D01*
X00763Y010672D01*
Y01064D01*
X007642Y010581D01*
X007675Y010532D01*
X008508Y009699D01*
X008489Y009653D01*
X003513D01*
X002712Y010454D01*
X002732Y0105D01*
X002746D01*
X002835Y010524D01*
X002915Y01057D01*
X00298Y010635D01*
X003026Y010715D01*
X00305Y010804D01*
Y010896D01*
X003026Y010985D01*
X00298Y011065D01*
X002954Y011091D01*
X002949Y011098D01*
X002907Y011144D01*
X002892Y011162D01*
X00288Y011179D01*
X00287Y011195D01*
X002862Y011209D01*
X002857Y011221D01*
X002854Y011231D01*
X002853Y011237D01*
Y011319D01*
X002956D01*
Y011952D01*
X002956D01*
Y011989D01*
X002956D01*
Y012622D01*
X002753D01*
Y012931D01*
X003331D01*
Y012622D01*
X003128D01*
Y012002D01*
X003128Y011989D01*
Y011952D01*
X003128Y011939D01*
Y011686D01*
X003737D01*
Y011736D01*
X003738Y011726D01*
X003741Y011718D01*
X003746Y01171D01*
X003753Y011704D01*
X003762Y011698D01*
X003774Y011694D01*
X003787Y01169D01*
X003802Y011688D01*
X003819Y011686D01*
X003838Y011686D01*
X003839D01*
Y011939D01*
X003839Y011952D01*
Y011989D01*
X003839Y012002D01*
Y012622D01*
X003637D01*
Y012931D01*
X003947D01*
Y012533D01*
D02*
G37*
G36*
X015449Y011604D02*
X015446Y011595D01*
Y011584D01*
X015449Y011572D01*
X015455Y011559D01*
X015463Y011544D01*
X015474Y011528D01*
X015489Y01151D01*
X015525Y01147D01*
X015455Y0114D01*
X015434Y01142D01*
X015397Y011451D01*
X015381Y011462D01*
X015366Y01147D01*
X015353Y011476D01*
X015341Y011479D01*
X01533D01*
X015321Y011476D01*
X015313Y01147D01*
X015455Y011612D01*
X015449Y011604D01*
D02*
G37*
G36*
X008549D02*
X008546Y011595D01*
Y011584D01*
X008549Y011572D01*
X008555Y011559D01*
X008563Y011544D01*
X008575Y011528D01*
X008589Y01151D01*
X008625Y01147D01*
X008555Y0114D01*
X008534Y01142D01*
X008497Y011451D01*
X008481Y011462D01*
X008466Y01147D01*
X008453Y011476D01*
X008441Y011479D01*
X00843D01*
X008421Y011476D01*
X008413Y01147D01*
X008555Y011612D01*
X008549Y011604D01*
D02*
G37*
G36*
X021291Y011469D02*
X021282Y011466D01*
X021274Y011461D01*
X021268Y011454D01*
X021263Y011445D01*
X021258Y011434D01*
X021254Y011421D01*
X021252Y011406D01*
X021251Y011389D01*
X02125Y01137D01*
X02115D01*
X021149Y011389D01*
X021148Y011406D01*
X021146Y011421D01*
X021142Y011434D01*
X021137Y011445D01*
X021132Y011454D01*
X021126Y011461D01*
X021118Y011466D01*
X021109Y011469D01*
X0211Y01147D01*
X0213D01*
X021291Y011469D01*
D02*
G37*
G36*
X00279Y011419D02*
X002782Y011416D01*
X002774Y011411D01*
X002768Y011404D01*
X002763Y011395D01*
X002758Y011384D01*
X002754Y011371D01*
X002752Y011356D01*
X002751Y011339D01*
X00275Y01132D01*
X00265D01*
X00265Y011339D01*
X002648Y011356D01*
X002646Y011371D01*
X002642Y011384D01*
X002637Y011395D01*
X002632Y011404D01*
X002625Y011411D01*
X002618Y011416D01*
X002609Y011419D01*
X0026Y01142D01*
X0028D01*
X00279Y011419D01*
D02*
G37*
G36*
X002751Y011226D02*
X002755Y011206D01*
X002761Y011186D01*
X00277Y011165D01*
X002781Y011144D01*
X002795Y011122D01*
X002811Y011099D01*
X00283Y011076D01*
X002875Y011029D01*
X002525D01*
X002549Y011053D01*
X002589Y011099D01*
X002605Y011122D01*
X002619Y011144D01*
X00263Y011165D01*
X002639Y011186D01*
X002645Y011206D01*
X002649Y011226D01*
X00265Y011245D01*
X00275D01*
X002751Y011226D01*
D02*
G37*
G36*
X02187Y009802D02*
X021887Y009791D01*
X021906Y009781D01*
X021927Y009772D01*
X02195Y009765D01*
X021975Y009759D01*
X022002Y009755D01*
X022032Y009752D01*
X022097Y00975D01*
X02185Y009503D01*
X02185Y009536D01*
X021845Y009598D01*
X021841Y009625D01*
X021835Y00965D01*
X021828Y009673D01*
X021819Y009694D01*
X021809Y009713D01*
X021798Y00973D01*
X021785Y009744D01*
X021856Y009815D01*
X02187Y009802D01*
D02*
G37*
G36*
X016606Y0089D02*
X016605Y00891D01*
X016602Y008918D01*
X016597Y008925D01*
X01659Y008932D01*
X016581Y008938D01*
X01657Y008942D01*
X016557Y008946D01*
X016542Y008948D01*
X016524Y008949D01*
X016505Y00895D01*
Y00905D01*
X016524Y00905D01*
X016556Y009054D01*
X016569Y009056D01*
X01658Y00906D01*
X016589Y009064D01*
X016596Y00907D01*
X016601Y009076D01*
X016604Y009082D01*
X016605Y00909D01*
X016606Y0089D01*
D02*
G37*
G36*
X01915Y008973D02*
X019154Y008932D01*
X019156Y008915D01*
X01916Y008901D01*
X019164Y008889D01*
X019169Y00888D01*
X019175Y008873D01*
X019182Y008869D01*
X019189Y008868D01*
X019011D01*
X019018Y008869D01*
X019025Y008873D01*
X019031Y00888D01*
X019036Y008889D01*
X01904Y008901D01*
X019044Y008915D01*
X019046Y008932D01*
X019048Y008951D01*
X01905Y008998D01*
X01915D01*
X01915Y008973D01*
D02*
G37*
G36*
X02165Y008971D02*
X021654Y008925D01*
X021658Y008907D01*
X021662Y008891D01*
X021668Y008878D01*
X021674Y008868D01*
X021681Y008861D01*
X02169Y008857D01*
X021699Y008855D01*
X021501D01*
X02151Y008857D01*
X021519Y008861D01*
X021526Y008868D01*
X021532Y008878D01*
X021538Y008891D01*
X021542Y008907D01*
X021546Y008925D01*
X021548Y008947D01*
X02155Y008971D01*
X02155Y008998D01*
X02165D01*
X02165Y008971D01*
D02*
G37*
G36*
X02115D02*
X021154Y008925D01*
X021158Y008907D01*
X021162Y008891D01*
X021168Y008878D01*
X021174Y008868D01*
X021181Y008861D01*
X02119Y008857D01*
X021199Y008855D01*
X021001D01*
X02101Y008857D01*
X021019Y008861D01*
X021026Y008868D01*
X021032Y008878D01*
X021038Y008891D01*
X021042Y008907D01*
X021046Y008925D01*
X021048Y008947D01*
X02105Y008971D01*
X02105Y008998D01*
X02115D01*
X02115Y008971D01*
D02*
G37*
G36*
X02065D02*
X020654Y008925D01*
X020658Y008907D01*
X020662Y008891D01*
X020668Y008878D01*
X020674Y008868D01*
X020681Y008861D01*
X02069Y008857D01*
X020699Y008855D01*
X020501D01*
X02051Y008857D01*
X020519Y008861D01*
X020526Y008868D01*
X020532Y008878D01*
X020538Y008891D01*
X020542Y008907D01*
X020546Y008925D01*
X020548Y008947D01*
X02055Y008971D01*
X02055Y008998D01*
X02065D01*
X02065Y008971D01*
D02*
G37*
G36*
X02015D02*
X020154Y008925D01*
X020158Y008907D01*
X020162Y008891D01*
X020168Y008878D01*
X020174Y008868D01*
X020181Y008861D01*
X02019Y008857D01*
X020199Y008855D01*
X020001D01*
X02001Y008857D01*
X020019Y008861D01*
X020026Y008868D01*
X020032Y008878D01*
X020038Y008891D01*
X020042Y008907D01*
X020046Y008925D01*
X020048Y008947D01*
X02005Y008971D01*
X02005Y008998D01*
X02015D01*
X02015Y008971D01*
D02*
G37*
G36*
X016053Y009151D02*
X016099Y009111D01*
X016122Y009095D01*
X016144Y009081D01*
X016165Y00907D01*
X016186Y009061D01*
X016206Y009055D01*
X016226Y009051D01*
X016245Y00905D01*
Y00895D01*
X016226Y008949D01*
X016206Y008945D01*
X016186Y008939D01*
X016165Y00893D01*
X016144Y008919D01*
X016122Y008905D01*
X016099Y008889D01*
X016076Y00887D01*
X016029Y008825D01*
Y009175D01*
X016053Y009151D01*
D02*
G37*
G36*
X015671Y008825D02*
X015624Y00887D01*
X015601Y008889D01*
X015578Y008905D01*
X015556Y008919D01*
X015535Y00893D01*
X015514Y008939D01*
X015494Y008945D01*
X015474Y008949D01*
X015455Y00895D01*
Y00905D01*
X015474Y009051D01*
X015494Y009055D01*
X015514Y009061D01*
X015535Y00907D01*
X015556Y009081D01*
X015578Y009095D01*
X015601Y009111D01*
X015647Y009151D01*
X015671Y009175D01*
Y008825D01*
D02*
G37*
G36*
X008053Y009151D02*
X008099Y009111D01*
X008122Y009095D01*
X008144Y009081D01*
X008165Y00907D01*
X008186Y009061D01*
X008206Y009055D01*
X008226Y009051D01*
X008245Y00905D01*
Y00895D01*
X008226Y008949D01*
X008206Y008945D01*
X008186Y008939D01*
X008165Y00893D01*
X008144Y008919D01*
X008122Y008905D01*
X008099Y008889D01*
X008076Y00887D01*
X008029Y008825D01*
Y009175D01*
X008053Y009151D01*
D02*
G37*
G36*
X017606Y008814D02*
X017605Y008824D01*
X017602Y008832D01*
X017597Y00884D01*
X01759Y008846D01*
X017581Y008852D01*
X01757Y008856D01*
X017557Y00886D01*
X017542Y008862D01*
X017525Y008864D01*
X017505Y008864D01*
Y008964D01*
X017525Y008965D01*
X017542Y008966D01*
X017557Y008969D01*
X01757Y008972D01*
X017581Y008977D01*
X01759Y008982D01*
X017597Y008989D01*
X017602Y008996D01*
X017605Y009005D01*
X017606Y009014D01*
Y008814D01*
D02*
G37*
G36*
X017116Y009005D02*
X017119Y008996D01*
X017124Y008989D01*
X017131Y008982D01*
X01714Y008977D01*
X017151Y008972D01*
X017164Y008969D01*
X017179Y008966D01*
X017196Y008965D01*
X017215Y008964D01*
Y008864D01*
X017196Y008864D01*
X017179Y008862D01*
X017164Y00886D01*
X017151Y008856D01*
X01714Y008852D01*
X017131Y008846D01*
X017124Y00884D01*
X017119Y008832D01*
X017116Y008824D01*
X017115Y008814D01*
Y009014D01*
X017116Y009005D01*
D02*
G37*
G36*
X016747Y008739D02*
X016739Y008745D01*
X01673Y008748D01*
X016719Y008747D01*
X016707Y008744D01*
X016694Y008739D01*
X016679Y00873D01*
X016663Y008719D01*
X016645Y008704D01*
X016605Y008667D01*
X016535Y008738D01*
X016554Y008759D01*
X016586Y008796D01*
X016597Y008812D01*
X016606Y008827D01*
X016612Y00884D01*
X016615Y008852D01*
X016615Y008863D01*
X016612Y008872D01*
X016606Y008879D01*
X016747Y008739D01*
D02*
G37*
G36*
X01919Y007938D02*
X019181Y007934D01*
X019174Y007927D01*
X019168Y007917D01*
X019162Y007904D01*
X019158Y007888D01*
X019154Y00787D01*
X019152Y007848D01*
X01915Y007824D01*
X01915Y007797D01*
X01905D01*
X01905Y007824D01*
X019046Y00787D01*
X019042Y007888D01*
X019038Y007904D01*
X019032Y007917D01*
X019026Y007927D01*
X019019Y007934D01*
X01901Y007938D01*
X019001Y007939D01*
X019199D01*
X01919Y007938D01*
D02*
G37*
G36*
X005236Y005491D02*
X005231Y005539D01*
X005216Y005581D01*
X005191Y005619D01*
X005156Y005651D01*
X005111Y005679D01*
X005056Y005701D01*
X004991Y005719D01*
X004916Y005731D01*
X004831Y005739D01*
X004736Y005741D01*
Y006241D01*
X004831Y006244D01*
X004916Y006251D01*
X004991Y006264D01*
X005056Y006281D01*
X005111Y006304D01*
X005156Y006331D01*
X005191Y006364D01*
X005216Y006401D01*
X005231Y006444D01*
X005236Y006491D01*
Y005491D01*
D02*
G37*
G36*
X003868Y006444D02*
X003883Y006401D01*
X003908Y006364D01*
X003943Y006331D01*
X003988Y006304D01*
X004043Y006281D01*
X004108Y006264D01*
X004183Y006251D01*
X004269Y006244D01*
X004364Y006241D01*
Y005741D01*
X004269Y005739D01*
X004183Y005731D01*
X004108Y005719D01*
X004043Y005701D01*
X003988Y005679D01*
X003943Y005651D01*
X003908Y005619D01*
X003883Y005581D01*
X003868Y005539D01*
X003863Y005491D01*
Y006491D01*
X003868Y006444D01*
D02*
G37*
G36*
X005868Y006419D02*
X005883Y006376D01*
X005908Y006339D01*
X005943Y006306D01*
X005988Y006279D01*
X006043Y006256D01*
X006108Y006239D01*
X006183Y006226D01*
X006269Y006219D01*
X006364Y006216D01*
Y005716D01*
X006269Y005714D01*
X006184Y005707D01*
X006109Y005695D01*
X006044Y005679D01*
X005989Y005657D01*
X005944Y005632D01*
X005909Y005601D01*
X005884Y005566D01*
X005869Y005525D01*
X005864Y005481D01*
X005863Y006466D01*
X005868Y006419D01*
D02*
G37*
G36*
X007386Y005466D02*
X007381Y005514D01*
X007366Y005556D01*
X007341Y005594D01*
X007306Y005626D01*
X007261Y005654D01*
X007206Y005676D01*
X007141Y005694D01*
X007066Y005706D01*
X006981Y005714D01*
X006886Y005716D01*
Y006216D01*
X006981Y006219D01*
X007066Y006226D01*
X007141Y006238D01*
X007206Y006254D01*
X007261Y006275D01*
X007306Y006301D01*
X007341Y006332D01*
X007366Y006367D01*
X007381Y006407D01*
X007386Y006452D01*
Y005466D01*
D02*
G37*
G36*
X008018Y006394D02*
X008033Y006351D01*
X008058Y006314D01*
X008093Y006281D01*
X008138Y006254D01*
X008193Y006231D01*
X008258Y006214D01*
X008333Y006201D01*
X008419Y006194D01*
X008514Y006191D01*
Y005691D01*
X008419Y005689D01*
X008333Y005681D01*
X008258Y005669D01*
X008193Y005651D01*
X008138Y005629D01*
X008093Y005601D01*
X008058Y005569D01*
X008033Y005531D01*
X008018Y005489D01*
X008013Y005441D01*
Y006441D01*
X008018Y006394D01*
D02*
G37*
G36*
X019151Y005394D02*
X019152Y005377D01*
X019154Y005362D01*
X019158Y005349D01*
X019162Y005338D01*
X019168Y005329D01*
X019174Y005322D01*
X019182Y005317D01*
X01919Y005314D01*
X0192Y005313D01*
X019D01*
X019009Y005314D01*
X019018Y005317D01*
X019025Y005322D01*
X019032Y005329D01*
X019037Y005338D01*
X019042Y005349D01*
X019045Y005362D01*
X019048Y005377D01*
X01905Y005394D01*
X01905Y005414D01*
X01915D01*
X019151Y005394D01*
D02*
G37*
G36*
X007853Y005736D02*
X007831Y005701D01*
X007812Y00566D01*
X007796Y005613D01*
X007782Y005559D01*
X00777Y005499D01*
X007761Y005433D01*
X007761Y005432D01*
X0078D01*
X00779Y005431D01*
X007782Y005428D01*
X007775Y005423D01*
X007768Y005416D01*
X007763Y005407D01*
X007759Y005398D01*
X007751Y005281D01*
X00775Y005196D01*
X00765D01*
X007649Y005281D01*
X007638Y005406D01*
X007638Y005407D01*
X007632Y005416D01*
X007625Y005423D01*
X007618Y005428D01*
X00761Y005431D01*
X0076Y005432D01*
X007636D01*
X00763Y005499D01*
X007618Y005559D01*
X007604Y005613D01*
X007588Y00566D01*
X007569Y005701D01*
X007547Y005736D01*
X007523Y005765D01*
X007877D01*
X007853Y005736D01*
D02*
G37*
G36*
X003852Y005476D02*
X003841Y005461D01*
X003831Y005436D01*
X003823Y005401D01*
X003816Y005356D01*
X003806Y005236D01*
X003801Y005076D01*
X0038Y004981D01*
X0033D01*
X003299Y005076D01*
X003277Y005401D01*
X003269Y005436D01*
X003259Y005461D01*
X003248Y005476D01*
X003236Y005481D01*
X003864D01*
X003852Y005476D01*
D02*
G37*
G36*
X017616Y004737D02*
X017615Y004746D01*
X017612Y004755D01*
X017607Y004762D01*
X0176Y004769D01*
X017591Y004774D01*
X01758Y004779D01*
X017567Y004782D01*
X017551Y004785D01*
X017534Y004786D01*
X017515Y004787D01*
Y004887D01*
X017534Y004887D01*
X017551Y004889D01*
X017567Y004891D01*
X01758Y004895D01*
X017591Y004899D01*
X0176Y004905D01*
X017607Y004911D01*
X017612Y004919D01*
X017615Y004927D01*
X017616Y004937D01*
Y004737D01*
D02*
G37*
G36*
X003871Y002534D02*
X004095Y002339D01*
X004141Y002307D01*
X004183Y00228D01*
X004221Y002261D01*
X004256Y002247D01*
X004286Y00224D01*
X00381Y001764D01*
X003803Y001794D01*
X003789Y001829D01*
X00377Y001867D01*
X003743Y001909D01*
X003711Y001955D01*
X003626Y002059D01*
X003516Y002179D01*
X003451Y002245D01*
X003805Y002599D01*
X003871Y002534D01*
D02*
G37*
G36*
X008556Y001563D02*
X008593Y001532D01*
X008609Y00152D01*
X008624Y001512D01*
X008637Y001506D01*
X008649Y001503D01*
X00866D01*
X008669Y001506D01*
X008677Y001512D01*
X008535Y001371D01*
X008541Y001378D01*
X008544Y001388D01*
Y001398D01*
X008541Y00141D01*
X008535Y001424D01*
X008527Y001438D01*
X008515Y001455D01*
X008501Y001472D01*
X008465Y001512D01*
X008535Y001583D01*
X008556Y001563D01*
D02*
G37*
G36*
X015435Y00125D02*
X015434Y001259D01*
X015431Y001268D01*
X015426Y001276D01*
X015419Y001282D01*
X01541Y001287D01*
X015399Y001292D01*
X015386Y001295D01*
X015371Y001298D01*
X015354Y0013D01*
X015335Y0013D01*
Y0014D01*
X015354Y0014D01*
X015371Y001402D01*
X015386Y001405D01*
X015399Y001408D01*
X01541Y001412D01*
X015419Y001418D01*
X015426Y001425D01*
X015431Y001432D01*
X015434Y001441D01*
X015435Y00145D01*
Y00125D01*
D02*
G37*
G36*
X015105Y001441D02*
X015108Y001432D01*
X015113Y001425D01*
X01512Y001418D01*
X015129Y001412D01*
X01514Y001408D01*
X015153Y001405D01*
X015168Y001402D01*
X015185Y0014D01*
X015205Y0014D01*
Y0013D01*
X015185Y0013D01*
X015168Y001298D01*
X015153Y001295D01*
X01514Y001292D01*
X015129Y001287D01*
X01512Y001282D01*
X015113Y001276D01*
X015108Y001268D01*
X015105Y001259D01*
X015104Y00125D01*
Y00145D01*
X015105Y001441D01*
D02*
G37*
G36*
X014595Y00125D02*
X014594Y001259D01*
X014591Y001268D01*
X014586Y001276D01*
X014579Y001282D01*
X01457Y001287D01*
X014559Y001292D01*
X014546Y001295D01*
X014531Y001298D01*
X014514Y0013D01*
X014495Y0013D01*
Y0014D01*
X014514Y0014D01*
X014531Y001402D01*
X014546Y001405D01*
X014559Y001408D01*
X01457Y001412D01*
X014579Y001418D01*
X014586Y001425D01*
X014591Y001432D01*
X014594Y001441D01*
X014595Y00145D01*
Y00125D01*
D02*
G37*
G36*
X013514Y001441D02*
X013517Y001432D01*
X013522Y001425D01*
X013529Y001418D01*
X013538Y001412D01*
X013549Y001408D01*
X013562Y001405D01*
X013577Y001402D01*
X013595Y0014D01*
X013614Y0014D01*
Y0013D01*
X013595Y0013D01*
X013577Y001298D01*
X013562Y001295D01*
X013549Y001292D01*
X013538Y001287D01*
X013529Y001282D01*
X013522Y001276D01*
X013517Y001268D01*
X013514Y001259D01*
X013513Y00125D01*
Y00145D01*
X013514Y001441D01*
D02*
G37*
G36*
X015945Y001426D02*
X015948Y001418D01*
X015953Y00141D01*
X01596Y001404D01*
X015969Y001398D01*
X01598Y001394D01*
X015993Y00139D01*
X016008Y001388D01*
X016025Y001386D01*
X016045Y001386D01*
Y001286D01*
X016025Y001285D01*
X016008Y001284D01*
X015993Y001281D01*
X01598Y001278D01*
X015969Y001273D01*
X01596Y001268D01*
X015953Y001261D01*
X015948Y001254D01*
X015945Y001245D01*
X015944Y001236D01*
Y001436D01*
X015945Y001426D01*
D02*
G37*
G36*
X010887Y001236D02*
X010886Y001245D01*
X010883Y001254D01*
X010878Y001261D01*
X010871Y001268D01*
X010862Y001273D01*
X010851Y001278D01*
X010838Y001281D01*
X010823Y001284D01*
X010805Y001285D01*
X010786Y001286D01*
Y001386D01*
X010805Y001386D01*
X010823Y001388D01*
X010838Y00139D01*
X010851Y001394D01*
X010862Y001398D01*
X010871Y001404D01*
X010878Y00141D01*
X010883Y001418D01*
X010886Y001426D01*
X010887Y001436D01*
Y001236D01*
D02*
G37*
G36*
X009845Y001426D02*
X009848Y001418D01*
X009853Y00141D01*
X00986Y001404D01*
X009869Y001398D01*
X00988Y001394D01*
X009893Y00139D01*
X009908Y001388D01*
X009925Y001386D01*
X009945Y001386D01*
Y001286D01*
X009925Y001285D01*
X009908Y001284D01*
X009893Y001281D01*
X00988Y001278D01*
X009869Y001273D01*
X00986Y001268D01*
X009853Y001261D01*
X009848Y001254D01*
X009845Y001245D01*
X009844Y001236D01*
Y001436D01*
X009845Y001426D01*
D02*
G37*
G36*
X009335Y001236D02*
X009334Y001245D01*
X009331Y001254D01*
X009326Y001261D01*
X009319Y001268D01*
X00931Y001273D01*
X009299Y001278D01*
X009286Y001281D01*
X009271Y001284D01*
X009254Y001285D01*
X009235Y001286D01*
Y001386D01*
X009254Y001386D01*
X009271Y001388D01*
X009286Y00139D01*
X009299Y001394D01*
X00931Y001398D01*
X009319Y001404D01*
X009326Y00141D01*
X009331Y001418D01*
X009334Y001426D01*
X009335Y001436D01*
Y001236D01*
D02*
G37*
G36*
X009045Y001426D02*
X009048Y001418D01*
X009053Y00141D01*
X00906Y001404D01*
X009069Y001398D01*
X00908Y001394D01*
X009093Y00139D01*
X009108Y001388D01*
X009125Y001386D01*
X009145Y001386D01*
Y001286D01*
X009125Y001285D01*
X009108Y001284D01*
X009093Y001281D01*
X00908Y001278D01*
X009069Y001273D01*
X00906Y001268D01*
X009053Y001261D01*
X009048Y001254D01*
X009045Y001245D01*
X009044Y001236D01*
Y001436D01*
X009045Y001426D01*
D02*
G37*
%LPC*%
G36*
X021631Y023405D02*
X021544Y023382D01*
X021474Y023341D01*
X021481Y023337D01*
X021502Y023329D01*
X021526Y023321D01*
X021552Y023315D01*
X02158Y023311D01*
X021611Y023308D01*
X021631Y023307D01*
Y023405D01*
D02*
G37*
G36*
X006913D02*
Y023307D01*
X006963Y023311D01*
X006992Y023315D01*
X007018Y023321D01*
X007041Y023329D01*
X007063Y023337D01*
X00707Y023341D01*
X007Y023382D01*
X006913Y023405D01*
D02*
G37*
G36*
X021731D02*
Y0231D01*
X022036D01*
X022013Y023187D01*
X021966Y023269D01*
X0219Y023335D01*
X021818Y023382D01*
X021731Y023405D01*
D02*
G37*
G36*
X021631Y023258D02*
X021473Y0231D01*
X021631D01*
Y023258D01*
D02*
G37*
G36*
X02139Y023258D02*
X021349Y023187D01*
X021326Y0231D01*
X021424D01*
X02142Y023151D01*
X021416Y023179D01*
X02141Y023205D01*
X021402Y023229D01*
X021394Y02325D01*
X02139Y023258D01*
D02*
G37*
G36*
X007154D02*
X00715Y02325D01*
X007141Y023229D01*
X007134Y023205D01*
X007128Y023179D01*
X007124Y023151D01*
X007121Y02312D01*
X00712Y0231D01*
X007218D01*
X007194Y023187D01*
X007154Y023258D01*
D02*
G37*
G36*
X006913Y023258D02*
Y0231D01*
X007071D01*
X006913Y023258D01*
D02*
G37*
G36*
X006813Y023405D02*
X006725Y023382D01*
X006644Y023335D01*
X006578Y023269D01*
X006531Y023187D01*
X006508Y0231D01*
X006813D01*
Y023405D01*
D02*
G37*
G36*
X020941Y023406D02*
X020847D01*
X020756Y023382D01*
X020675Y023335D01*
X020609Y023269D01*
X020562Y023187D01*
X020538Y023097D01*
Y023003D01*
X020562Y022913D01*
X020605Y022838D01*
X020565Y022808D01*
X020495Y022878D01*
X020491Y022883D01*
X020486Y022893D01*
X020481Y022905D01*
X020476Y022921D01*
X020472Y02294D01*
X020469Y022961D01*
X020464Y023017D01*
X020464Y023048D01*
X020462Y023058D01*
Y023097D01*
X020438Y023187D01*
X020391Y023269D01*
X020325Y023335D01*
X020244Y023382D01*
X020153Y023406D01*
X020059D01*
X019969Y023382D01*
X019888Y023335D01*
X019821Y023269D01*
X019775Y023187D01*
X01975Y023097D01*
Y023003D01*
X019775Y022913D01*
X019818Y022838D01*
X019777Y022808D01*
X019707Y022878D01*
X019704Y022883D01*
X019699Y022893D01*
X019694Y022905D01*
X019689Y022921D01*
X019685Y02294D01*
X019681Y022961D01*
X019677Y023017D01*
X019677Y023048D01*
X019675Y023058D01*
Y023097D01*
X019651Y023187D01*
X019604Y023269D01*
X019537Y023335D01*
X019456Y023382D01*
X019366Y023406D01*
X019272D01*
X019182Y023382D01*
X0191Y023335D01*
X019034Y023269D01*
X018987Y023187D01*
X018963Y023097D01*
Y023003D01*
X018987Y022913D01*
X019034Y022831D01*
X0191Y022765D01*
X019182Y022718D01*
X019272Y022694D01*
X01931D01*
X019318Y022692D01*
X019383Y02269D01*
X019407Y022688D01*
X019429Y022684D01*
X019448Y02268D01*
X019464Y022675D01*
X019476Y02267D01*
X019486Y022665D01*
X019491Y022661D01*
X019657Y022496D01*
Y021941D01*
X019454D01*
Y021817D01*
X019366D01*
Y021941D01*
X018654D01*
Y021753D01*
X018087D01*
X018081Y021754D01*
X018071Y021757D01*
X018059Y021762D01*
X018045Y02177D01*
X018029Y02178D01*
X018013Y021791D01*
X017972Y021826D01*
X01795Y021848D01*
X017942Y021853D01*
X017915Y02188D01*
X017835Y021926D01*
X017746Y02195D01*
X017654D01*
X017565Y021926D01*
X017485Y02188D01*
X01742Y021815D01*
X017374Y021735D01*
X01735Y021646D01*
Y021554D01*
X017374Y021465D01*
X01742Y021385D01*
X017485Y02132D01*
X017565Y021274D01*
X017654Y02125D01*
X017746D01*
X017835Y021274D01*
X017915Y02132D01*
X017941Y021346D01*
X017948Y021351D01*
X017994Y021393D01*
X018012Y021408D01*
X018029Y02142D01*
X018045Y02143D01*
X018059Y021438D01*
X018071Y021443D01*
X018081Y021446D01*
X018087Y021447D01*
X018654D01*
Y021387D01*
X019366D01*
Y021511D01*
X019454D01*
Y021387D01*
X020166D01*
Y021941D01*
X019963D01*
Y022559D01*
X019951Y022617D01*
X019918Y022667D01*
X019864Y022721D01*
X019895Y022761D01*
X019969Y022718D01*
X020059Y022694D01*
X020098D01*
X020106Y022692D01*
X02017Y02269D01*
X020194Y022688D01*
X020216Y022684D01*
X020235Y02268D01*
X020251Y022675D01*
X020264Y02267D01*
X020273Y022665D01*
X020279Y022661D01*
X021247Y021693D01*
Y021226D01*
X021245Y021217D01*
X02124Y021204D01*
X021233Y021187D01*
X021222Y021168D01*
X021208Y021146D01*
X021191Y021124D01*
X021143Y021069D01*
X021114Y021039D01*
X021109Y021031D01*
X021076Y020999D01*
X021022Y020906D01*
X020995Y020803D01*
Y020697D01*
X021022Y020594D01*
X021076Y020501D01*
X021151Y020426D01*
X021244Y020372D01*
X021347Y020345D01*
X021453D01*
X021556Y020372D01*
X021649Y020426D01*
X021724Y020501D01*
X021778Y020594D01*
X021805Y020697D01*
Y020803D01*
X021778Y020906D01*
X021724Y020999D01*
X021691Y021031D01*
X021686Y021039D01*
X021657Y021069D01*
X021609Y021124D01*
X021592Y021146D01*
X021578Y021168D01*
X021567Y021187D01*
X02156Y021204D01*
X021555Y021217D01*
X021553Y021226D01*
Y021756D01*
X021541Y021815D01*
X021508Y021864D01*
X020651Y022721D01*
X020682Y022761D01*
X020756Y022718D01*
X020847Y022694D01*
X020885D01*
X020893Y022692D01*
X020957Y02269D01*
X020981Y022688D01*
X021004Y022684D01*
X021023Y02268D01*
X021038Y022675D01*
X021051Y02267D01*
X021061Y022665D01*
X021066Y022661D01*
X022231Y021496D01*
Y021155D01*
X021979D01*
Y020345D01*
X022789D01*
Y021155D01*
X022537D01*
Y021559D01*
X022526Y021618D01*
X022492Y021668D01*
X021439Y022721D01*
X021469Y022761D01*
X021544Y022718D01*
X021631Y022695D01*
Y023D01*
X021326D01*
X021349Y022913D01*
X021392Y022838D01*
X021352Y022808D01*
X021282Y022878D01*
X021279Y022883D01*
X021274Y022893D01*
X021269Y022905D01*
X021264Y022921D01*
X021259Y02294D01*
X021256Y022961D01*
X021252Y023017D01*
X021252Y023048D01*
X02125Y023058D01*
Y023097D01*
X021225Y023187D01*
X021179Y023269D01*
X021112Y023335D01*
X021031Y023382D01*
X020941Y023406D01*
D02*
G37*
G36*
X022036Y023D02*
X021731D01*
Y022695D01*
X021818Y022718D01*
X0219Y022765D01*
X021966Y022831D01*
X022013Y022913D01*
X022036Y023D01*
D02*
G37*
G36*
X007218D02*
X006913D01*
Y022695D01*
X007Y022718D01*
X007081Y022765D01*
X007147Y022831D01*
X007194Y022913D01*
X007218Y023D01*
D02*
G37*
G36*
X004616Y021493D02*
X00431D01*
Y021266D01*
X004515D01*
Y021302D01*
X004516Y021292D01*
X004519Y021284D01*
X004524Y021276D01*
X004531Y02127D01*
X004537Y021266D01*
X004616D01*
Y021493D01*
D02*
G37*
G36*
X00421D02*
X003904D01*
Y021266D01*
X00421D01*
Y021493D01*
D02*
G37*
G36*
X005406Y021479D02*
X0051D01*
Y021252D01*
X005305D01*
Y021302D01*
X005306Y021292D01*
X005309Y021284D01*
X005314Y021276D01*
X005321Y02127D01*
X00533Y021264D01*
X005341Y02126D01*
X005354Y021256D01*
X005369Y021254D01*
X005386Y021252D01*
X005405Y021252D01*
Y021252D01*
X005406D01*
Y021479D01*
D02*
G37*
G36*
X005D02*
X004694D01*
Y021252D01*
X004695D01*
Y021252D01*
X004715Y021252D01*
X004732Y021254D01*
X004747Y021256D01*
X00476Y02126D01*
X004771Y021264D01*
X00478Y02127D01*
X004787Y021276D01*
X004792Y021284D01*
X004795Y021292D01*
X004796Y021302D01*
Y021252D01*
X005D01*
Y021479D01*
D02*
G37*
G36*
X005406Y021152D02*
X005405D01*
X005386Y021151D01*
X005369Y02115D01*
X005354Y021147D01*
X005341Y021144D01*
X00533Y021139D01*
X005321Y021134D01*
X005314Y021127D01*
X005309Y02112D01*
X005306Y021111D01*
X005305Y021102D01*
Y021152D01*
X0051D01*
Y020925D01*
X005406D01*
Y021152D01*
D02*
G37*
G36*
X005D02*
X004796D01*
Y021102D01*
X004795Y021111D01*
X004792Y02112D01*
X004787Y021127D01*
X00478Y021134D01*
X004771Y021139D01*
X00476Y021144D01*
X004747Y021147D01*
X004732Y02115D01*
X004715Y021151D01*
X004695Y021152D01*
X004694D01*
Y020925D01*
X005D01*
Y021152D01*
D02*
G37*
G36*
X004616Y021166D02*
X004615D01*
Y021152D01*
X004596Y021151D01*
X004579Y02115D01*
X004564Y021147D01*
X004551Y021144D01*
X00454Y021139D01*
X004531Y021134D01*
X004524Y021127D01*
X004519Y02112D01*
X004516Y021111D01*
X004515Y021102D01*
Y021166D01*
X00431D01*
Y020939D01*
X004616D01*
Y021166D01*
D02*
G37*
G36*
X019366Y021193D02*
X01906D01*
Y020966D01*
X019265D01*
Y021016D01*
X019266Y021006D01*
X019269Y020998D01*
X019274Y02099D01*
X019281Y020984D01*
X01929Y020978D01*
X019301Y020974D01*
X019314Y02097D01*
X019329Y020968D01*
X019346Y020966D01*
X019365Y020966D01*
X019366D01*
Y021193D01*
D02*
G37*
G36*
X020166D02*
X01986D01*
Y020966D01*
X020166D01*
Y021193D01*
D02*
G37*
G36*
X01976D02*
X019454D01*
Y020966D01*
X019455D01*
D01*
X019475Y020966D01*
X019492Y020968D01*
X019507Y02097D01*
X01952Y020974D01*
X019531Y020978D01*
X01954Y020984D01*
X019547Y02099D01*
X019552Y020998D01*
X019555Y021006D01*
X019556Y021016D01*
Y020966D01*
X01976D01*
Y021193D01*
D02*
G37*
G36*
X01896D02*
X018654D01*
Y020966D01*
X01896D01*
Y021193D01*
D02*
G37*
G36*
X00421Y021166D02*
X003904D01*
Y020939D01*
X00421D01*
Y021166D01*
D02*
G37*
G36*
X01976Y020866D02*
X019556D01*
Y020816D01*
X019555Y020825D01*
X019552Y020834D01*
X019547Y020841D01*
X01954Y020848D01*
X019531Y020853D01*
X01952Y020858D01*
X019507Y020861D01*
X019492Y020864D01*
X019475Y020865D01*
X019455Y020866D01*
X019454D01*
Y020639D01*
X01976D01*
Y020866D01*
D02*
G37*
G36*
X019366D02*
X019365D01*
D01*
X019346Y020865D01*
X019329Y020864D01*
X019314Y020861D01*
X019301Y020858D01*
X01929Y020853D01*
X019281Y020848D01*
X019274Y020841D01*
X019269Y020834D01*
X019266Y020825D01*
X019265Y020816D01*
Y020866D01*
X01906D01*
Y020741D01*
X01911D01*
X019101Y02074D01*
X019092Y020737D01*
X019085Y020732D01*
X019078Y020725D01*
X019073Y020716D01*
X019068Y020705D01*
X019065Y020692D01*
X019062Y020676D01*
X01906Y020659D01*
X01906Y02064D01*
Y020639D01*
X019366D01*
Y020866D01*
D02*
G37*
G36*
X020166D02*
X01986D01*
Y020639D01*
X020166D01*
Y020866D01*
D02*
G37*
G36*
X01896D02*
X018654D01*
Y020639D01*
X01896D01*
Y02064D01*
D01*
X018959Y020659D01*
X018958Y020676D01*
X018956Y020692D01*
X018952Y020705D01*
X018947Y020716D01*
X018942Y020725D01*
X018936Y020732D01*
X018928Y020737D01*
X01892Y02074D01*
X01891Y020741D01*
X01896D01*
Y020866D01*
D02*
G37*
G36*
X014167Y014894D02*
X013949D01*
Y013988D01*
X014167D01*
Y014894D01*
D02*
G37*
G36*
X0201D02*
X019883D01*
Y013988D01*
X0201D01*
Y014894D01*
D02*
G37*
G36*
X007233Y014844D02*
X007016D01*
Y013938D01*
X007233D01*
Y014844D01*
D02*
G37*
G36*
X00155D02*
X001333D01*
Y013938D01*
X00155D01*
Y014844D01*
D02*
G37*
G36*
X0201Y013888D02*
X019883D01*
Y012981D01*
X0201D01*
Y012983D01*
X0201D01*
X020099Y013002D01*
X020098Y013019D01*
X020096Y013034D01*
X020092Y013047D01*
X020087Y013059D01*
X020082Y013068D01*
X020076Y013075D01*
X020068Y01308D01*
X020059Y013083D01*
X02005Y013084D01*
X0201D01*
Y013888D01*
D02*
G37*
G36*
X014167D02*
X013949D01*
Y012981D01*
X014167D01*
Y012983D01*
X014166Y013002D01*
X014165Y013019D01*
X014162Y013034D01*
X014159Y013047D01*
X014154Y013059D01*
X014149Y013068D01*
X014142Y013075D01*
X014135Y01308D01*
X014126Y013083D01*
X014117Y013084D01*
X014167D01*
Y013888D01*
D02*
G37*
G36*
X007233Y013838D02*
X007016D01*
Y012931D01*
X007233D01*
Y012933D01*
X007233Y012952D01*
X007231Y012969D01*
X007229Y012984D01*
X007225Y012997D01*
X007221Y013009D01*
X007215Y013018D01*
X007209Y013025D01*
X007201Y01303D01*
X007193Y013033D01*
X007183Y013034D01*
X007233D01*
Y013838D01*
D02*
G37*
G36*
X00155D02*
X001333D01*
Y012931D01*
X00155D01*
Y012933D01*
D01*
X001549Y012952D01*
X001548Y012969D01*
X001546Y012984D01*
X001542Y012997D01*
X001538Y013009D01*
X001532Y013018D01*
X001525Y013025D01*
X001518Y01303D01*
X001509Y013033D01*
X0015Y013034D01*
X00155D01*
Y013838D01*
D02*
G37*
G36*
X024966Y011943D02*
X02466D01*
Y011716D01*
X024966D01*
Y011943D01*
D02*
G37*
G36*
X018866D02*
X01856D01*
Y011716D01*
X018866D01*
Y011943D01*
D02*
G37*
G36*
X012156D02*
X01185D01*
Y011716D01*
X012156D01*
Y011943D01*
D02*
G37*
G36*
X01846D02*
X018154D01*
Y011716D01*
X018155D01*
X018175Y011716D01*
X018192Y011718D01*
X018207Y01172D01*
X01822Y011724D01*
X018231Y011728D01*
X01824Y011734D01*
X018247Y01174D01*
X018252Y011748D01*
X018255Y011756D01*
X018256Y011766D01*
Y011716D01*
X01846D01*
Y011943D01*
D02*
G37*
G36*
X02456D02*
X024254D01*
Y011716D01*
X024255D01*
X024275Y011716D01*
X024292Y011718D01*
X024307Y01172D01*
X02432Y011724D01*
X024331Y011728D01*
X02434Y011734D01*
X024347Y01174D01*
X024352Y011748D01*
X024355Y011756D01*
X024356Y011766D01*
Y011716D01*
X02456D01*
Y011943D01*
D02*
G37*
G36*
X01175D02*
X011444D01*
Y011716D01*
X011445D01*
X011465Y011716D01*
X011482Y011718D01*
X011497Y01172D01*
X01151Y011724D01*
X011521Y011728D01*
X01153Y011734D01*
X011537Y01174D01*
X011542Y011748D01*
X011545Y011756D01*
X011546Y011766D01*
Y011716D01*
X01175D01*
Y011943D01*
D02*
G37*
G36*
X011275D02*
X010969D01*
Y011716D01*
X011174D01*
Y011766D01*
X011175Y011756D01*
X011178Y011748D01*
X011183Y01174D01*
X01119Y011734D01*
X011199Y011728D01*
X01121Y011724D01*
X011223Y01172D01*
X011238Y011718D01*
X011255Y011716D01*
X011274Y011716D01*
Y011716D01*
X011275D01*
Y011943D01*
D02*
G37*
G36*
X024107D02*
X023801D01*
Y011716D01*
X024006D01*
Y011766D01*
X024007Y011756D01*
X02401Y011748D01*
X024015Y01174D01*
X024022Y011734D01*
X024031Y011728D01*
X024042Y011724D01*
X024055Y01172D01*
X02407Y011718D01*
X024087Y011716D01*
X024106Y011716D01*
Y011716D01*
X024107D01*
Y011943D01*
D02*
G37*
G36*
X018032D02*
X017726D01*
Y011716D01*
X017931D01*
Y011766D01*
X017932Y011756D01*
X017935Y011748D01*
X01794Y01174D01*
X017947Y011734D01*
X017956Y011728D01*
X017967Y011724D01*
X01798Y01172D01*
X017995Y011718D01*
X018012Y011716D01*
X018031Y011716D01*
Y011716D01*
X018032D01*
Y011943D01*
D02*
G37*
G36*
X010869D02*
X010563D01*
Y011716D01*
X010564D01*
Y011736D01*
X010583Y011736D01*
X010601Y011738D01*
X010616Y01174D01*
X010629Y011744D01*
X01064Y011748D01*
X010649Y011754D01*
X010656Y01176D01*
X010661Y011768D01*
X010664Y011776D01*
X010665Y011786D01*
Y011716D01*
X010869D01*
Y011943D01*
D02*
G37*
G36*
X023701D02*
X023396D01*
Y011716D01*
X023397D01*
Y011716D01*
X023416Y011716D01*
X023433Y011718D01*
X023448Y01172D01*
X023461Y011724D01*
X023473Y011728D01*
X023482Y011734D01*
X023489Y01174D01*
X023494Y011748D01*
X023497Y011756D01*
X023498Y011766D01*
Y011716D01*
X023701D01*
Y011943D01*
D02*
G37*
G36*
X017626D02*
X017321D01*
Y011716D01*
X017322D01*
Y011736D01*
X017341Y011736D01*
X017358Y011738D01*
X017373Y01174D01*
X017386Y011744D01*
X017398Y011748D01*
X017407Y011754D01*
X017414Y01176D01*
X017419Y011768D01*
X017422Y011776D01*
X017423Y011786D01*
Y011716D01*
X017626D01*
Y011943D01*
D02*
G37*
G36*
X022867Y011636D02*
X022664D01*
Y011586D01*
X022663Y011595D01*
X02266Y011604D01*
X022655Y011611D01*
X022647Y011618D01*
X022638Y011623D01*
X022627Y011628D01*
X022614Y011631D01*
X022599Y011634D01*
X022582Y011635D01*
X022562Y011636D01*
X022561D01*
Y011369D01*
X022867D01*
Y011636D01*
D02*
G37*
G36*
X022414D02*
X022413D01*
X022394Y011635D01*
X022377Y011634D01*
X022362Y011631D01*
X022349Y011628D01*
X022337Y011623D01*
X022328Y011618D01*
X022321Y011611D01*
X022316Y011604D01*
X022313Y011595D01*
X022312Y011586D01*
Y011636D01*
X022109D01*
Y01147D01*
X022159D01*
X022149Y011469D01*
X022141Y011466D01*
X022133Y011461D01*
X022127Y011454D01*
X022121Y011445D01*
X022117Y011434D01*
X022113Y011421D01*
X022111Y011406D01*
X022109Y011389D01*
X022109Y01137D01*
Y011369D01*
X022414D01*
Y011636D01*
D02*
G37*
G36*
X017626Y011616D02*
X017423D01*
Y011586D01*
X017422Y011595D01*
X017419Y011604D01*
X017414Y011611D01*
X017409Y011616D01*
X017321D01*
Y011389D01*
X017626D01*
Y011616D01*
D02*
G37*
G36*
X017223Y011636D02*
X017222D01*
X017203Y011635D01*
X017185Y011634D01*
X01717Y011631D01*
X017157Y011628D01*
X017146Y011623D01*
X017137Y011618D01*
X01713Y011611D01*
X017125Y011604D01*
X017122Y011595D01*
X017121Y011586D01*
Y011636D01*
X016917D01*
Y011369D01*
X017223D01*
Y011636D01*
D02*
G37*
G36*
X016817D02*
X016614D01*
Y011586D01*
X016613Y011595D01*
X01661Y011604D01*
X016605Y011611D01*
X016597Y011618D01*
X016588Y011623D01*
X016577Y011628D01*
X016564Y011631D01*
X016549Y011634D01*
X016532Y011635D01*
X016512Y011636D01*
X016511D01*
Y011369D01*
X016817D01*
Y011636D01*
D02*
G37*
G36*
X016389D02*
X016388D01*
X016369Y011635D01*
X016352Y011634D01*
X016337Y011631D01*
X016324Y011628D01*
X016312Y011623D01*
X016303Y011618D01*
X016296Y011611D01*
X016291Y011604D01*
X016288Y011595D01*
X016287Y011586D01*
Y011636D01*
X016084D01*
Y011369D01*
X016389D01*
Y011636D01*
D02*
G37*
G36*
X010012Y011636D02*
X009809D01*
Y011586D01*
X009808Y011595D01*
X009805Y011604D01*
X0098Y011611D01*
X009792Y011618D01*
X009783Y011623D01*
X009772Y011628D01*
X009759Y011631D01*
X009744Y011634D01*
X009727Y011635D01*
X009707Y011636D01*
X009706D01*
Y011369D01*
X010012D01*
Y011636D01*
D02*
G37*
G36*
X009537Y011636D02*
X009536D01*
X009517Y011635D01*
X009499Y011634D01*
X009484Y011631D01*
X009471Y011628D01*
X00946Y011623D01*
X009451Y011618D01*
X009444Y011611D01*
X009439Y011604D01*
X009436Y011595D01*
X009435Y011586D01*
Y011636D01*
X009231D01*
Y011369D01*
X009537D01*
Y011636D01*
D02*
G37*
G36*
X010869Y011616D02*
X010665D01*
Y011586D01*
X010664Y011595D01*
X010661Y011604D01*
X010656Y011611D01*
X010651Y011616D01*
X010563D01*
Y011389D01*
X010869D01*
Y01139D01*
X010869D01*
X010868Y011409D01*
X010867Y011426D01*
X010864Y011442D01*
X010861Y011455D01*
X010856Y011466D01*
X010851Y011475D01*
X010844Y011482D01*
X010837Y011487D01*
X010828Y01149D01*
X010819Y011491D01*
X010869D01*
Y011616D01*
D02*
G37*
G36*
X010418Y011636D02*
X010417D01*
D01*
X010398Y011635D01*
X01038Y011634D01*
X010365Y011631D01*
X010352Y011628D01*
X010341Y011623D01*
X010332Y011618D01*
X010325Y011611D01*
X01032Y011604D01*
X010317Y011595D01*
X010316Y011586D01*
Y011636D01*
X010112D01*
Y011369D01*
X010418D01*
Y011636D01*
D02*
G37*
G36*
X02456Y011616D02*
X024356D01*
Y011566D01*
X024355Y011575D01*
X024352Y011584D01*
X024347Y011591D01*
X02434Y011598D01*
X024331Y011603D01*
X02432Y011608D01*
X024307Y011611D01*
X024292Y011614D01*
X024275Y011615D01*
X024255Y011616D01*
Y011616D01*
X024254D01*
Y011389D01*
X02456D01*
Y011616D01*
D02*
G37*
G36*
X024107Y011616D02*
X024106D01*
X024087Y011615D01*
X02407Y011614D01*
X024055Y011611D01*
X024042Y011608D01*
X024031Y011603D01*
X024022Y011598D01*
X024015Y011591D01*
X02401Y011584D01*
X024007Y011575D01*
X024006Y011566D01*
Y011616D01*
X023801D01*
Y011389D01*
X024107D01*
Y011616D01*
D02*
G37*
G36*
X023701D02*
X023498D01*
Y011566D01*
X023497Y011575D01*
X023494Y011584D01*
X023489Y011591D01*
X023482Y011598D01*
X023473Y011603D01*
X023461Y011608D01*
X023448Y011611D01*
X023433Y011614D01*
X023416Y011615D01*
X023397Y011616D01*
X023396D01*
Y011389D01*
X023701D01*
Y011616D01*
D02*
G37*
G36*
X023273Y011636D02*
X023272D01*
Y011616D01*
X023253Y011615D01*
X023235Y011614D01*
X02322Y011611D01*
X023207Y011608D01*
X023196Y011603D01*
X023187Y011598D01*
X02318Y011591D01*
X023175Y011584D01*
X023172Y011575D01*
X023171Y011566D01*
Y011636D01*
X022967D01*
Y011369D01*
X023273D01*
Y011636D01*
D02*
G37*
G36*
X01846Y011616D02*
X018256D01*
Y011566D01*
X018255Y011575D01*
X018252Y011584D01*
X018247Y011591D01*
X01824Y011598D01*
X018231Y011603D01*
X01822Y011608D01*
X018207Y011611D01*
X018192Y011614D01*
X018175Y011615D01*
X018155Y011616D01*
Y011616D01*
X018154D01*
Y011389D01*
X01846D01*
Y01139D01*
X01846Y011409D01*
X018458Y011426D01*
X018455Y011442D01*
X018452Y011455D01*
X018448Y011466D01*
X018442Y011475D01*
X018435Y011482D01*
X018428Y011487D01*
X01842Y01149D01*
X01841Y011491D01*
X01846D01*
Y011616D01*
D02*
G37*
G36*
X018032Y011616D02*
X018031D01*
X018012Y011615D01*
X017995Y011614D01*
X01798Y011611D01*
X017967Y011608D01*
X017956Y011603D01*
X017947Y011598D01*
X01794Y011591D01*
X017935Y011584D01*
X017932Y011575D01*
X017931Y011566D01*
Y011616D01*
X017726D01*
Y011389D01*
X018032D01*
Y011616D01*
D02*
G37*
G36*
X01175Y011616D02*
X011546D01*
Y011566D01*
X011545Y011575D01*
X011542Y011584D01*
X011537Y011591D01*
X01153Y011598D01*
X011521Y011603D01*
X01151Y011608D01*
X011497Y011611D01*
X011482Y011614D01*
X011465Y011615D01*
X011445Y011616D01*
Y011616D01*
X011444D01*
Y011389D01*
X01175D01*
Y011616D01*
D02*
G37*
G36*
X011275Y011616D02*
X011274D01*
X011255Y011615D01*
X011238Y011614D01*
X011223Y011611D01*
X01121Y011608D01*
X011199Y011603D01*
X01119Y011598D01*
X011183Y011591D01*
X011178Y011584D01*
X011175Y011575D01*
X011174Y011566D01*
Y011616D01*
X010969D01*
Y011491D01*
X011019D01*
X011009Y01149D01*
X011001Y011487D01*
X010993Y011482D01*
X010987Y011475D01*
X010981Y011466D01*
X010977Y011455D01*
X010973Y011442D01*
X010971Y011426D01*
X010969Y011409D01*
X010969Y01139D01*
Y011389D01*
X011275D01*
Y011616D01*
D02*
G37*
G36*
X024966Y011616D02*
X02466D01*
Y011389D01*
X024966D01*
Y011616D01*
D02*
G37*
G36*
X018866D02*
X01856D01*
Y011491D01*
X01861D01*
X0186Y01149D01*
X018592Y011487D01*
X018585Y011482D01*
X018578Y011475D01*
X018572Y011466D01*
X018568Y011455D01*
X018564Y011442D01*
X018562Y011426D01*
X018561Y011409D01*
X01856Y01139D01*
X01856D01*
Y011389D01*
X018866D01*
Y011616D01*
D02*
G37*
G36*
X012156D02*
X01185D01*
Y011389D01*
X012156D01*
Y011616D01*
D02*
G37*
G36*
X022009Y011636D02*
X021703D01*
Y011369D01*
X022009D01*
Y01137D01*
X022008Y011389D01*
X022007Y011406D01*
X022004Y011421D01*
X022001Y011434D01*
X021996Y011445D01*
X021991Y011454D01*
X021984Y011461D01*
X021977Y011466D01*
X021968Y011469D01*
X021959Y01147D01*
X022009D01*
Y011636D01*
D02*
G37*
G36*
X017216Y008443D02*
X01691D01*
Y008216D01*
X017115D01*
Y008266D01*
X017116Y008256D01*
X017119Y008248D01*
X017124Y00824D01*
X017131Y008234D01*
X01714Y008228D01*
X017151Y008224D01*
X017164Y00822D01*
X017179Y008218D01*
X017196Y008216D01*
X017215Y008216D01*
X017216D01*
Y008443D01*
D02*
G37*
G36*
X018216D02*
X01791D01*
Y008216D01*
X018216D01*
Y008443D01*
D02*
G37*
G36*
X01781D02*
X017504D01*
Y008216D01*
X017505D01*
D01*
X017525Y008216D01*
X017542Y008218D01*
X017557Y00822D01*
X01757Y008224D01*
X017581Y008228D01*
X01759Y008234D01*
X017597Y00824D01*
X017602Y008248D01*
X017605Y008256D01*
X017606Y008266D01*
Y008216D01*
X01781D01*
Y008443D01*
D02*
G37*
G36*
Y008116D02*
X017606D01*
Y008066D01*
X017605Y008075D01*
X017602Y008084D01*
X017597Y008091D01*
X01759Y008098D01*
X017581Y008103D01*
X01757Y008108D01*
X017557Y008111D01*
X017542Y008114D01*
X017525Y008115D01*
X017505Y008116D01*
X017504D01*
Y007889D01*
X01781D01*
Y00789D01*
X0178D01*
X0178Y007909D01*
X017798Y007926D01*
X017795Y007942D01*
X017792Y007955D01*
X017787Y007966D01*
X017782Y007975D01*
X017775Y007982D01*
X017768Y007987D01*
X017759Y00799D01*
X01775Y007991D01*
X01781D01*
Y008116D01*
D02*
G37*
G36*
X017216D02*
X017215D01*
D01*
X017196Y008115D01*
X017179Y008114D01*
X017164Y008111D01*
X017151Y008108D01*
X01714Y008103D01*
X017131Y008098D01*
X017124Y008091D01*
X017119Y008084D01*
X017116Y008075D01*
X017115Y008066D01*
Y008116D01*
X01691D01*
Y007991D01*
X01695D01*
X01694Y00799D01*
X016932Y007987D01*
X016925Y007982D01*
X016918Y007975D01*
X016912Y007966D01*
X01691Y00796D01*
Y007889D01*
X017216D01*
Y008116D01*
D02*
G37*
G36*
X018216D02*
X01791D01*
Y007991D01*
X01795D01*
X01794Y00799D01*
X017932Y007987D01*
X017924Y007982D01*
X017918Y007975D01*
X017912Y007966D01*
X01791Y00796D01*
Y007889D01*
X018216D01*
Y008116D01*
D02*
G37*
G36*
X003965Y00802D02*
X0036D01*
Y007459D01*
X003863D01*
Y007509D01*
X003864Y007499D01*
X003867Y007491D01*
X003872Y007483D01*
X003879Y007477D01*
X003888Y007471D01*
X003899Y007467D01*
X003912Y007463D01*
X003927Y007461D01*
X003945Y007459D01*
X003964Y007459D01*
Y007459D01*
X003965D01*
Y00802D01*
D02*
G37*
G36*
X005965Y00802D02*
X0056D01*
Y007459D01*
X005863D01*
Y007509D01*
X005864Y007499D01*
X005867Y007491D01*
X005872Y007483D01*
X005879Y007477D01*
X005888Y007471D01*
X005899Y007467D01*
X005912Y007463D01*
X005927Y007461D01*
X005945Y007459D01*
X005964Y007459D01*
X005965D01*
Y00802D01*
D02*
G37*
G36*
X0055D02*
X005135D01*
Y007459D01*
X005136D01*
Y007459D01*
X005155Y007459D01*
X005172Y007461D01*
X005187Y007463D01*
X0052Y007467D01*
X005211Y007471D01*
X00522Y007477D01*
X005227Y007483D01*
X005232Y007491D01*
X005235Y007499D01*
X005236Y007509D01*
Y007459D01*
X0055D01*
Y00802D01*
D02*
G37*
G36*
X0035Y00802D02*
X003135D01*
Y007459D01*
X003136D01*
Y007459D01*
X003155Y007459D01*
X003172Y007461D01*
X003187Y007463D01*
X0032Y007467D01*
X003211Y007471D01*
X00322Y007477D01*
X003227Y007483D01*
X003232Y007491D01*
X003235Y007499D01*
X003236Y007509D01*
Y007459D01*
X0035D01*
Y00802D01*
D02*
G37*
G36*
X008115Y00797D02*
X00775D01*
Y007409D01*
X008115D01*
Y00797D01*
D02*
G37*
G36*
X00765D02*
X007285D01*
Y007409D01*
X007286D01*
Y007459D01*
X007305Y007459D01*
X007322Y007461D01*
X007337Y007463D01*
X00735Y007467D01*
X007361Y007471D01*
X00737Y007477D01*
X007377Y007483D01*
X007382Y007491D01*
X007385Y007499D01*
X007386Y007509D01*
Y007409D01*
X00765D01*
Y00797D01*
D02*
G37*
G36*
X0055Y007359D02*
X005236D01*
Y007309D01*
X005235Y007318D01*
X005232Y007327D01*
X005227Y007334D01*
X00522Y007341D01*
X005211Y007346D01*
X0052Y007351D01*
X005187Y007354D01*
X005172Y007357D01*
X005155Y007358D01*
X005136Y007359D01*
X005135D01*
Y006797D01*
X0055D01*
Y007359D01*
D02*
G37*
G36*
X003965D02*
X003964D01*
X003945Y007358D01*
X003927Y007357D01*
X003912Y007354D01*
X003899Y007351D01*
X003888Y007346D01*
X003879Y007341D01*
X003872Y007334D01*
X003867Y007327D01*
X003864Y007318D01*
X003863Y007309D01*
Y007359D01*
X0036D01*
Y006797D01*
X003965D01*
Y007359D01*
D02*
G37*
G36*
X0035D02*
X003236D01*
Y007309D01*
X003235Y007318D01*
X003232Y007327D01*
X003227Y007334D01*
X00322Y007341D01*
X003211Y007346D01*
X0032Y007351D01*
X003187Y007354D01*
X003172Y007357D01*
X003155Y007358D01*
X003136Y007359D01*
X003135D01*
Y006797D01*
X0035D01*
Y007359D01*
D02*
G37*
G36*
X005965D02*
X005964D01*
D01*
X005945Y007358D01*
X005927Y007357D01*
X005912Y007354D01*
X005899Y007351D01*
X005888Y007346D01*
X005879Y007341D01*
X005872Y007334D01*
X005867Y007327D01*
X005864Y007318D01*
X005863Y007309D01*
Y007359D01*
X0056D01*
Y006797D01*
X005965D01*
Y007359D01*
D02*
G37*
G36*
X018206Y007451D02*
X0179D01*
Y00745D01*
D01*
X017901Y007431D01*
X017902Y007414D01*
X017904Y007399D01*
X017908Y007386D01*
X017912Y007375D01*
X017918Y007366D01*
X017924Y007359D01*
X017932Y007354D01*
X01794Y007351D01*
X01795Y00735D01*
X0179D01*
Y007185D01*
X018206D01*
Y007451D01*
D02*
G37*
G36*
X0178D02*
X017494D01*
Y007185D01*
X0178D01*
Y00735D01*
X01775D01*
X017759Y007351D01*
X017768Y007354D01*
X017775Y007359D01*
X017782Y007366D01*
X017787Y007375D01*
X017792Y007386D01*
X017795Y007399D01*
X017798Y007414D01*
X0178Y007431D01*
X0178Y00745D01*
Y007451D01*
D02*
G37*
G36*
X008115Y007309D02*
X00775D01*
Y006747D01*
X008115D01*
Y007309D01*
D02*
G37*
G36*
X00765D02*
X007285D01*
Y006747D01*
X00765D01*
Y007309D01*
D02*
G37*
G36*
X014702Y007469D02*
X01225D01*
Y0055D01*
X014702D01*
Y007469D01*
D02*
G37*
G36*
X01215D02*
X009698D01*
Y0055D01*
X01215D01*
Y007469D01*
D02*
G37*
G36*
X018206Y007085D02*
X01785D01*
X017494D01*
Y006832D01*
X017494Y006818D01*
Y006782D01*
X017494Y006768D01*
Y006149D01*
X017697D01*
Y00598D01*
X017514D01*
Y005347D01*
X018186D01*
Y00598D01*
X018003D01*
Y006149D01*
X018206D01*
Y006768D01*
X018206Y006782D01*
Y006818D01*
X018206Y006832D01*
Y007085D01*
D02*
G37*
G36*
X0231Y005419D02*
X023013Y005402D01*
X02294Y005353D01*
X02289Y005279D01*
X022875Y005204D01*
X022825D01*
X02281Y005279D01*
X02276Y005353D01*
X022687Y005402D01*
X0226Y005419D01*
X022513Y005402D01*
X02244Y005353D01*
X02239Y005279D01*
X022375Y005204D01*
X022325D01*
X02231Y005279D01*
X02226Y005353D01*
X022187Y005402D01*
X0221Y005419D01*
X022013Y005402D01*
X02194Y005353D01*
X02189Y005279D01*
X021875Y005204D01*
X021825D01*
X02181Y005279D01*
X02176Y005353D01*
X021687Y005402D01*
X0216Y005419D01*
X021513Y005402D01*
X02144Y005353D01*
X02139Y005279D01*
X021375Y005204D01*
X021325D01*
X02131Y005279D01*
X02126Y005353D01*
X021187Y005402D01*
X0211Y005419D01*
X021013Y005402D01*
X02094Y005353D01*
X02089Y005279D01*
X020875Y005204D01*
X020825D01*
X02081Y005279D01*
X02076Y005353D01*
X020687Y005402D01*
X0206Y005419D01*
X020513Y005402D01*
X02044Y005353D01*
X02039Y005279D01*
X020375Y005204D01*
X020325D01*
X02031Y005279D01*
X02026Y005353D01*
X020187Y005402D01*
X0201Y005419D01*
X020013Y005402D01*
X01994Y005353D01*
X01989Y005279D01*
X019875Y005204D01*
X019825D01*
X01981Y005279D01*
X01976Y005353D01*
X019687Y005402D01*
X0196Y005419D01*
X019513Y005402D01*
X01944Y005353D01*
X01939Y005279D01*
X019373Y005192D01*
Y004413D01*
X01939Y004326D01*
X01944Y004252D01*
X019446Y004248D01*
X019447Y00423D01*
Y004053D01*
X018725Y003331D01*
X018709Y003316D01*
X018697Y003306D01*
X018697Y003306D01*
X018678D01*
X018674Y003307D01*
X01867Y003306D01*
X018297D01*
X018283Y003306D01*
X018247D01*
X018233Y003306D01*
X017981D01*
Y00295D01*
Y002594D01*
X018233D01*
X018247Y002594D01*
X018283D01*
X018297Y002594D01*
X018463D01*
Y001576D01*
X018461Y001567D01*
X018456Y001554D01*
X018449Y001537D01*
X018438Y001518D01*
X018424Y001496D01*
X018406Y001474D01*
X018359Y001419D01*
X01833Y001389D01*
X018324Y001381D01*
X018292Y001349D01*
X018238Y001256D01*
X018211Y001153D01*
Y001047D01*
X018238Y000944D01*
X018292Y000851D01*
X018367Y000776D01*
X018459Y000722D01*
X018562Y000695D01*
X018669D01*
X018772Y000722D01*
X018865Y000776D01*
X01894Y000851D01*
X018993Y000944D01*
X019021Y001047D01*
Y001153D01*
X018993Y001256D01*
X01894Y001349D01*
X018907Y001381D01*
X018902Y001389D01*
X018873Y001419D01*
X018825Y001474D01*
X018808Y001496D01*
X018794Y001518D01*
X018783Y001537D01*
X018775Y001554D01*
X018771Y001567D01*
X018769Y001576D01*
Y002594D01*
X018917D01*
Y003059D01*
X018917Y003063D01*
X018917Y003067D01*
Y003086D01*
X018938Y003111D01*
X019708Y003881D01*
X019741Y003931D01*
X019753Y003989D01*
Y004234D01*
X019754Y004244D01*
X019754Y004248D01*
X01976Y004252D01*
X01981Y004326D01*
X019825Y004401D01*
X019875D01*
X01989Y004326D01*
X01994Y004252D01*
X019946Y004248D01*
X019947Y00423D01*
Y003537D01*
X01974Y00333D01*
X019724Y003316D01*
X019712Y003306D01*
X019299D01*
Y002594D01*
X019447D01*
Y001505D01*
X019195D01*
Y000695D01*
X020005D01*
Y001505D01*
X019753D01*
Y002594D01*
X019918D01*
X019932Y002594D01*
Y002594D01*
X019968D01*
Y002594D01*
X020235D01*
Y00295D01*
Y003306D01*
X020214D01*
X020194Y003352D01*
X020208Y003366D01*
X020241Y003415D01*
X020253Y003474D01*
Y004234D01*
X020254Y004244D01*
X020254Y004248D01*
X02026Y004252D01*
X02031Y004326D01*
X020325Y004401D01*
X020375D01*
X02039Y004326D01*
X02044Y004252D01*
X020446Y004248D01*
X020447Y00423D01*
Y00415D01*
X020459Y004091D01*
X020492Y004042D01*
X021028Y003505D01*
X021028Y003505D01*
X021182Y003352D01*
X021165Y003313D01*
Y00295D01*
Y002594D01*
X021432D01*
X021432Y002594D01*
X021468D01*
Y002594D01*
X021482Y002594D01*
X021613D01*
Y001576D01*
X021611Y001567D01*
X021606Y001554D01*
X021599Y001537D01*
X021588Y001518D01*
X021574Y001496D01*
X021556Y001474D01*
X021509Y001419D01*
X02148Y001389D01*
X021474Y001381D01*
X021442Y001349D01*
X021388Y001256D01*
X021361Y001153D01*
Y001047D01*
X021388Y000944D01*
X021442Y000851D01*
X021517Y000776D01*
X021609Y000722D01*
X021712Y000695D01*
X021819D01*
X021922Y000722D01*
X022015Y000776D01*
X02209Y000851D01*
X022143Y000944D01*
X022171Y001047D01*
Y001153D01*
X022143Y001256D01*
X02209Y001349D01*
X022057Y001381D01*
X022052Y001389D01*
X022023Y001419D01*
X021975Y001474D01*
X021958Y001496D01*
X021944Y001518D01*
X021933Y001537D01*
X021925Y001554D01*
X021921Y001567D01*
X021919Y001576D01*
Y002594D01*
X022101D01*
Y00313D01*
X022147Y003149D01*
X022249Y003048D01*
X022298Y003015D01*
X022357Y003003D01*
X022449D01*
Y002594D01*
X022612D01*
Y001505D01*
X022345D01*
Y000695D01*
X023155D01*
Y001505D01*
X022918D01*
Y002594D01*
X023068D01*
X023082Y002594D01*
X023118D01*
X023132Y002594D01*
X023385D01*
Y00295D01*
Y003204D01*
X02335D01*
X023359Y003205D01*
X023368Y003208D01*
X023375Y003213D01*
X023382Y00322D01*
X023385Y003224D01*
Y003306D01*
X023132D01*
X023118Y003306D01*
X023082D01*
X023068Y003306D01*
X022614D01*
X022599Y003309D01*
X02242D01*
X021588Y004141D01*
X021612Y004188D01*
X021687Y004203D01*
X02176Y004252D01*
X02181Y004326D01*
X021825Y004401D01*
X021875D01*
X02189Y004326D01*
X02194Y004252D01*
X022013Y004203D01*
X0221Y004186D01*
X022187Y004203D01*
X02226Y004252D01*
X02231Y004326D01*
X022325Y004401D01*
X022375D01*
X02239Y004326D01*
X02244Y004252D01*
X022513Y004203D01*
X0226Y004186D01*
X022687Y004203D01*
X02276Y004252D01*
X02281Y004326D01*
X022825Y004401D01*
X022875D01*
X02289Y004326D01*
X02294Y004252D01*
X023013Y004203D01*
X0231Y004186D01*
X023187Y004203D01*
X02326Y004252D01*
X02331Y004326D01*
X023325Y004401D01*
X023375D01*
X02339Y004326D01*
X02344Y004252D01*
X023513Y004203D01*
X02355Y004196D01*
Y004202D01*
X02355Y004229D01*
X023546Y004275D01*
X023542Y004293D01*
X023538Y004309D01*
X023532Y004322D01*
X023526Y004332D01*
X023519Y004339D01*
X02351Y004343D01*
X023501Y004345D01*
X02355D01*
Y004803D01*
Y005261D01*
X023501D01*
X02351Y005262D01*
X023519Y005266D01*
X023526Y005273D01*
X023532Y005283D01*
X023538Y005296D01*
X023542Y005312D01*
X023546Y00533D01*
X023548Y005352D01*
X02355Y005376D01*
X02355Y005403D01*
Y005409D01*
X023513Y005402D01*
X02344Y005353D01*
X02339Y005279D01*
X023375Y005204D01*
X023325D01*
X02331Y005279D01*
X02326Y005353D01*
X023187Y005402D01*
X0231Y005419D01*
D02*
G37*
G36*
X02365Y005409D02*
Y005403D01*
X02365D01*
X02365Y005376D01*
X023654Y00533D01*
X023658Y005312D01*
X023662Y005296D01*
X023668Y005283D01*
X023674Y005273D01*
X023681Y005266D01*
X02369Y005262D01*
X023699Y005261D01*
X02365D01*
Y004853D01*
X023827D01*
Y005192D01*
X02381Y005279D01*
X02376Y005353D01*
X023687Y005402D01*
X02365Y005409D01*
D02*
G37*
G36*
X023827Y004753D02*
X02365D01*
Y004345D01*
X023699D01*
X02369Y004343D01*
X023681Y004339D01*
X023674Y004332D01*
X023668Y004322D01*
X023662Y004309D01*
X023658Y004293D01*
X023654Y004275D01*
X023652Y004253D01*
X02365Y004229D01*
X02365Y004202D01*
X02365D01*
Y004196D01*
X023687Y004203D01*
X02376Y004252D01*
X02381Y004326D01*
X023827Y004413D01*
Y004753D01*
D02*
G37*
G36*
X014702Y0054D02*
X01225D01*
Y003431D01*
X014702D01*
Y0054D01*
D02*
G37*
G36*
X01215D02*
X009698D01*
Y003431D01*
X01215D01*
Y0054D01*
D02*
G37*
G36*
X0235Y003306D02*
X0235Y003305D01*
X023485D01*
Y003305D01*
X0235D01*
X0235Y003285D01*
X023502Y003268D01*
X023505Y003253D01*
X023508Y00324D01*
X023512Y003229D01*
X023518Y00322D01*
X023524Y003213D01*
X023532Y003208D01*
X02354Y003205D01*
X02355Y003204D01*
X023485D01*
Y003D01*
X023751D01*
Y003306D01*
X0235D01*
D02*
G37*
G36*
X020562D02*
X020335D01*
Y003D01*
X020601D01*
Y003299D01*
X020556Y0033D01*
X020562Y003306D01*
D02*
G37*
G36*
X021065D02*
X020864D01*
X020799Y003239D01*
Y003D01*
X021065D01*
Y003306D01*
D02*
G37*
G36*
X017881D02*
X017614D01*
Y003D01*
X017615D01*
X017635Y003D01*
X017652Y003002D01*
X017667Y003004D01*
X01768Y003008D01*
X017691Y003013D01*
X0177Y003018D01*
X017707Y003025D01*
X017713Y003032D01*
X017716Y00304D01*
X017717Y00305D01*
Y003D01*
X017881D01*
Y003306D01*
D02*
G37*
G36*
Y0029D02*
X017717D01*
Y00285D01*
X017716Y00286D01*
X017713Y002868D01*
X017707Y002876D01*
X0177Y002882D01*
X017691Y002887D01*
X01768Y002892D01*
X017667Y002896D01*
X017652Y002898D01*
X017635Y0029D01*
X017615Y0029D01*
Y0029D01*
X017614D01*
Y002594D01*
X017881D01*
Y0029D01*
D02*
G37*
G36*
X023751Y0029D02*
X023485D01*
Y002594D01*
X023751D01*
Y0029D01*
D02*
G37*
G36*
X021065D02*
X020799D01*
Y002594D01*
X021065D01*
Y0029D01*
D02*
G37*
G36*
X020601D02*
X020335D01*
Y002594D01*
X020601D01*
Y0029D01*
D02*
G37*
G36*
X015206Y002375D02*
X0149D01*
Y002374D01*
X0149D01*
X0149Y002355D01*
X014902Y002338D01*
X014905Y002322D01*
X014908Y002309D01*
X014913Y002298D01*
X014918Y002289D01*
X014924Y002282D01*
X014932Y002277D01*
X014941Y002274D01*
X01495Y002273D01*
X0149D01*
Y002148D01*
X015104D01*
Y002184D01*
X015105Y002175D01*
X015108Y002166D01*
X015113Y002159D01*
X01512Y002152D01*
X015126Y002148D01*
X015206D01*
Y002375D01*
D02*
G37*
G36*
X0148D02*
X014494D01*
Y002148D01*
X0148D01*
Y002273D01*
X01475D01*
X01476Y002274D01*
X014768Y002277D01*
X014776Y002282D01*
X014782Y002289D01*
X014787Y002298D01*
X014792Y002309D01*
X014796Y002322D01*
X014798Y002338D01*
X014799Y002355D01*
X0148Y002374D01*
Y002375D01*
D02*
G37*
G36*
X009146Y002361D02*
X00884D01*
Y002134D01*
X009044D01*
Y002184D01*
X009045Y002175D01*
X009048Y002166D01*
X009053Y002159D01*
X00906Y002152D01*
X009069Y002147D01*
X00908Y002142D01*
X009093Y002139D01*
X009108Y002136D01*
X009125Y002135D01*
X009145Y002134D01*
X009146D01*
Y002361D01*
D02*
G37*
G36*
X016046D02*
X01574D01*
Y00236D01*
X01575D01*
X01575Y002341D01*
X015752Y002324D01*
X015754Y002308D01*
X015758Y002295D01*
X015762Y002284D01*
X015768Y002275D01*
X015775Y002268D01*
X015782Y002263D01*
X01579Y00226D01*
X0158Y002259D01*
X01574D01*
Y002134D01*
X016046D01*
Y002361D01*
D02*
G37*
G36*
X009946D02*
X00964D01*
Y00236D01*
D01*
X00964Y002341D01*
X009642Y002324D01*
X009645Y002308D01*
X009648Y002295D01*
X009653Y002284D01*
X009658Y002275D01*
X009664Y002268D01*
X009672Y002263D01*
X009681Y00226D01*
X00969Y002259D01*
X00964D01*
Y002134D01*
X009946D01*
Y002361D01*
D02*
G37*
G36*
X01564D02*
X015334D01*
Y002134D01*
X015335D01*
D01*
X015354Y002135D01*
X015371Y002136D01*
X015386Y002139D01*
X015399Y002142D01*
X01541Y002147D01*
X015419Y002152D01*
X015426Y002159D01*
X015431Y002166D01*
X015434Y002175D01*
X015435Y002184D01*
Y002134D01*
X01564D01*
Y002259D01*
X0156D01*
X01561Y00226D01*
X015618Y002263D01*
X015625Y002268D01*
X015632Y002275D01*
X015638Y002284D01*
X01564Y00229D01*
Y002361D01*
D02*
G37*
G36*
X00954D02*
X009234D01*
Y002134D01*
X009235D01*
D01*
X009254Y002135D01*
X009271Y002136D01*
X009286Y002139D01*
X009299Y002142D01*
X00931Y002147D01*
X009319Y002152D01*
X009326Y002159D01*
X009331Y002166D01*
X009334Y002175D01*
X009335Y002184D01*
Y002134D01*
X00954D01*
Y002259D01*
X00949D01*
X009499Y00226D01*
X009508Y002263D01*
X009516Y002268D01*
X009522Y002275D01*
X009528Y002284D01*
X009532Y002295D01*
X009535Y002308D01*
X009538Y002324D01*
X009539Y002341D01*
X00954Y00236D01*
Y002361D01*
D02*
G37*
G36*
X00874D02*
X008434D01*
Y002134D01*
X00874D01*
Y002361D01*
D02*
G37*
G36*
X007169Y002341D02*
X007175Y002327D01*
X007189Y002302D01*
X007206Y002276D01*
X007227Y002249D01*
X007277Y002191D01*
X007307Y002161D01*
X00715D01*
Y002D01*
X007495D01*
Y002002D01*
X007468Y002103D01*
X007416Y002193D01*
X007343Y002266D01*
X007253Y002318D01*
X007169Y002341D01*
D02*
G37*
G36*
X007031D02*
X006947Y002318D01*
X006857Y002266D01*
X006784Y002193D01*
X006732Y002103D01*
X006705Y002002D01*
Y002D01*
X00705D01*
Y002161D01*
X006893D01*
X006923Y002191D01*
X006973Y002249D01*
X006994Y002276D01*
X007011Y002302D01*
X007025Y002327D01*
X007031Y002341D01*
D02*
G37*
G36*
X01564Y002034D02*
X015435D01*
Y001984D01*
X015434Y001994D01*
X015431Y002002D01*
X015426Y00201D01*
X015419Y002016D01*
X01541Y002022D01*
X015399Y002026D01*
X015386Y00203D01*
X015371Y002032D01*
X015354Y002034D01*
X015335Y002034D01*
X015334D01*
Y001807D01*
X01564D01*
Y002034D01*
D02*
G37*
G36*
X015206Y002048D02*
X015205D01*
Y002034D01*
X015185Y002034D01*
X015168Y002032D01*
X015153Y00203D01*
X01514Y002026D01*
X015129Y002022D01*
X01512Y002016D01*
X015113Y00201D01*
X015108Y002002D01*
X015105Y001994D01*
X015104Y001984D01*
Y002048D01*
X0149D01*
Y001821D01*
X015206D01*
Y002048D01*
D02*
G37*
G36*
X00954Y002034D02*
X009335D01*
Y001984D01*
X009334Y001994D01*
X009331Y002002D01*
X009326Y00201D01*
X009319Y002016D01*
X00931Y002022D01*
X009299Y002026D01*
X009286Y00203D01*
X009271Y002032D01*
X009254Y002034D01*
X009235Y002034D01*
X009234D01*
Y001807D01*
X00954D01*
Y002034D01*
D02*
G37*
G36*
X009146D02*
X009145D01*
D01*
X009125Y002034D01*
X009108Y002032D01*
X009093Y00203D01*
X00908Y002026D01*
X009069Y002022D01*
X00906Y002016D01*
X009053Y00201D01*
X009048Y002002D01*
X009045Y001994D01*
X009044Y001984D01*
Y002034D01*
X00884D01*
Y001807D01*
X009146D01*
Y002034D01*
D02*
G37*
G36*
X0148Y002048D02*
X014494D01*
Y001821D01*
X0148D01*
Y002048D01*
D02*
G37*
G36*
X016046Y002034D02*
X01574D01*
Y001807D01*
X016046D01*
Y002034D01*
D02*
G37*
G36*
X009946D02*
X00964D01*
Y001807D01*
X009946D01*
Y002034D01*
D02*
G37*
G36*
X006804Y0019D02*
X006705D01*
Y001898D01*
X006732Y001797D01*
X006775Y001722D01*
X00678Y001736D01*
X006788Y001764D01*
X006794Y001795D01*
X006799Y001829D01*
X006804Y0019D01*
D02*
G37*
G36*
X00705D02*
X006852D01*
X00705Y001702D01*
Y0019D01*
D02*
G37*
G36*
X007495D02*
X00715D01*
Y001555D01*
X007152D01*
X007253Y001582D01*
X007343Y001634D01*
X007416Y001707D01*
X007468Y001797D01*
X007495Y001898D01*
Y0019D01*
D02*
G37*
G36*
X00705Y001654D02*
X006979Y001649D01*
X006945Y001644D01*
X006914Y001638D01*
X006886Y00163D01*
X006872Y001625D01*
X006947Y001582D01*
X007048Y001555D01*
X00705D01*
Y001654D01*
D02*
G37*
%LPD*%
G36*
X02115Y023012D02*
X021155Y022949D01*
X021159Y022921D01*
X021165Y022895D01*
X021172Y022871D01*
X021181Y02285D01*
X021191Y022831D01*
X021202Y022814D01*
X021215Y022799D01*
X021144Y022729D01*
X02113Y022741D01*
X021113Y022753D01*
X021094Y022763D01*
X021072Y022771D01*
X021049Y022779D01*
X021023Y022785D01*
X020995Y022789D01*
X020964Y022792D01*
X020896Y022794D01*
X02115Y023047D01*
X02115Y023012D01*
D02*
G37*
G36*
X020363D02*
X020367Y022949D01*
X020372Y022921D01*
X020378Y022895D01*
X020385Y022871D01*
X020394Y02285D01*
X020404Y022831D01*
X020415Y022814D01*
X020428Y022799D01*
X020357Y022729D01*
X020342Y022741D01*
X020326Y022753D01*
X020306Y022763D01*
X020285Y022771D01*
X020261Y022779D01*
X020235Y022785D01*
X020207Y022789D01*
X020177Y022792D01*
X020109Y022794D01*
X020362Y023047D01*
X020363Y023012D01*
D02*
G37*
G36*
X019575D02*
X01958Y022949D01*
X019584Y022921D01*
X01959Y022895D01*
X019598Y022871D01*
X019606Y02285D01*
X019616Y022831D01*
X019628Y022814D01*
X01964Y022799D01*
X01957Y022729D01*
X019555Y022741D01*
X019538Y022753D01*
X019519Y022763D01*
X019498Y022771D01*
X019474Y022779D01*
X019448Y022785D01*
X01942Y022789D01*
X019389Y022792D01*
X019321Y022794D01*
X019575Y023047D01*
X019575Y023012D01*
D02*
G37*
G36*
X019861Y021921D02*
X019862Y021904D01*
X019864Y021888D01*
X019868Y021875D01*
X019872Y021864D01*
X019878Y021855D01*
X019885Y021848D01*
X019892Y021843D01*
X0199Y02184D01*
X01991Y021839D01*
X01971D01*
X01972Y02184D01*
X019728Y021843D01*
X019735Y021848D01*
X019742Y021855D01*
X019748Y021864D01*
X019752Y021875D01*
X019756Y021888D01*
X019758Y021904D01*
X01976Y021921D01*
X01976Y02194D01*
X01986D01*
X019861Y021921D01*
D02*
G37*
G36*
X019556Y021564D02*
X019555Y021574D01*
X019552Y021582D01*
X019547Y02159D01*
X01954Y021596D01*
X019531Y021602D01*
X01952Y021606D01*
X019507Y02161D01*
X019492Y021612D01*
X019475Y021614D01*
X019455Y021614D01*
Y021714D01*
X019475Y021715D01*
X019492Y021716D01*
X019507Y021719D01*
X01952Y021722D01*
X019531Y021727D01*
X01954Y021732D01*
X019547Y021739D01*
X019552Y021746D01*
X019555Y021755D01*
X019556Y021764D01*
Y021564D01*
D02*
G37*
G36*
X019266Y021755D02*
X019269Y021746D01*
X019274Y021739D01*
X019281Y021732D01*
X01929Y021727D01*
X019301Y021722D01*
X019314Y021719D01*
X019329Y021716D01*
X019346Y021715D01*
X019365Y021714D01*
Y021614D01*
X019346Y021614D01*
X019329Y021612D01*
X019314Y02161D01*
X019301Y021606D01*
X01929Y021602D01*
X019281Y021596D01*
X019274Y02159D01*
X019269Y021582D01*
X019266Y021574D01*
X019265Y021564D01*
Y021764D01*
X019266Y021755D01*
D02*
G37*
G36*
X018756Y0215D02*
X018755Y021509D01*
X018752Y021518D01*
X018747Y021525D01*
X01874Y021532D01*
X018731Y021537D01*
X01872Y021542D01*
X018707Y021546D01*
X018692Y021548D01*
X018675Y021549D01*
X018655Y02155D01*
Y02165D01*
X018675Y021651D01*
X018692Y021652D01*
X018707Y021655D01*
X01872Y021658D01*
X018731Y021662D01*
X01874Y021668D01*
X018747Y021674D01*
X018752Y021682D01*
X018755Y02169D01*
X018756Y0217D01*
Y0215D01*
D02*
G37*
G36*
X017903Y021751D02*
X017949Y021711D01*
X017972Y021695D01*
X017994Y021681D01*
X018015Y02167D01*
X018036Y021661D01*
X018056Y021655D01*
X018076Y021651D01*
X018095Y02165D01*
Y02155D01*
X018076Y021549D01*
X018056Y021545D01*
X018036Y021539D01*
X018015Y02153D01*
X017994Y021519D01*
X017972Y021505D01*
X017949Y021489D01*
X017926Y02147D01*
X017879Y021425D01*
Y021775D01*
X017903Y021751D01*
D02*
G37*
G36*
X022435Y021135D02*
X022436Y021117D01*
X022439Y021102D01*
X022442Y021089D01*
X022447Y021078D01*
X022452Y021069D01*
X022459Y021062D01*
X022466Y021057D01*
X022475Y021054D01*
X022484Y021053D01*
X022284D01*
X022294Y021054D01*
X022302Y021057D01*
X02231Y021062D01*
X022316Y021069D01*
X022322Y021078D01*
X022326Y021089D01*
X02233Y021102D01*
X022332Y021117D01*
X022334Y021135D01*
X022334Y021154D01*
X022434D01*
X022435Y021135D01*
D02*
G37*
G36*
X021452Y021212D02*
X021457Y02119D01*
X021465Y021166D01*
X021476Y021141D01*
X021491Y021115D01*
X021509Y021087D01*
X02153Y021059D01*
X021583Y020999D01*
X021614Y020968D01*
X021186D01*
X021218Y020999D01*
X02127Y021059D01*
X021291Y021087D01*
X021309Y021115D01*
X021324Y021141D01*
X021335Y021166D01*
X021343Y02119D01*
X021348Y021212D01*
X02135Y021234D01*
X02145D01*
X021452Y021212D01*
D02*
G37*
G36*
X0146Y00714D02*
X014603Y007132D01*
X014608Y007125D01*
X014615Y007118D01*
X014624Y007113D01*
X014636Y007108D01*
X014649Y007104D01*
X014664Y007102D01*
X014681Y0071D01*
X0147Y0071D01*
Y007D01*
X014681Y006999D01*
X014664Y006998D01*
X014649Y006995D01*
X014636Y006992D01*
X014624Y006988D01*
X014615Y006982D01*
X014608Y006975D01*
X014603Y006968D01*
X0146Y006959D01*
X014599Y00695D01*
Y00715D01*
X0146Y00714D01*
D02*
G37*
G36*
X01794Y00625D02*
X017932Y006247D01*
X017924Y006242D01*
X017918Y006235D01*
X017912Y006226D01*
X017908Y006215D01*
X017904Y006202D01*
X017902Y006186D01*
X017901Y006169D01*
X0179Y00615D01*
X0178D01*
X0178Y006169D01*
X017798Y006186D01*
X017795Y006202D01*
X017792Y006215D01*
X017787Y006226D01*
X017782Y006235D01*
X017775Y006242D01*
X017768Y006247D01*
X017759Y00625D01*
X01775Y006251D01*
X01795D01*
X01794Y00625D01*
D02*
G37*
G36*
X017901Y00596D02*
X017902Y005943D01*
X017904Y005928D01*
X017908Y005915D01*
X017912Y005904D01*
X017918Y005895D01*
X017924Y005888D01*
X017932Y005883D01*
X01794Y00588D01*
X01795Y005879D01*
X01775D01*
X017759Y00588D01*
X017768Y005883D01*
X017775Y005888D01*
X017782Y005895D01*
X017787Y005904D01*
X017792Y005915D01*
X017795Y005928D01*
X017798Y005943D01*
X0178Y00596D01*
X0178Y005979D01*
X0179D01*
X017901Y00596D01*
D02*
G37*
G36*
X021215Y004424D02*
X021212Y004416D01*
X021212Y004406D01*
X021214Y004394D01*
X021219Y004382D01*
X021227Y004368D01*
X021237Y004352D01*
X02125Y004336D01*
X021266Y004318D01*
X021284Y004299D01*
X021214Y004228D01*
X021194Y004247D01*
X021159Y004276D01*
X021144Y004287D01*
X02113Y004295D01*
X021117Y0043D01*
X021105Y004303D01*
X021095Y004303D01*
X021086Y0043D01*
X021078Y004294D01*
X021221Y004432D01*
X021215Y004424D01*
D02*
G37*
G36*
X02069Y004343D02*
X020681Y004339D01*
X020674Y004332D01*
X020668Y004322D01*
X020662Y004309D01*
X020658Y004293D01*
X020654Y004275D01*
X020652Y004253D01*
X02065Y004229D01*
X02065Y004202D01*
X02055D01*
X02055Y004229D01*
X020546Y004275D01*
X020542Y004293D01*
X020538Y004309D01*
X020532Y004322D01*
X020526Y004332D01*
X020519Y004339D01*
X02051Y004343D01*
X020501Y004345D01*
X020699D01*
X02069Y004343D01*
D02*
G37*
G36*
X02019D02*
X020181Y004339D01*
X020174Y004332D01*
X020168Y004322D01*
X020162Y004309D01*
X020158Y004293D01*
X020154Y004275D01*
X020152Y004253D01*
X02015Y004229D01*
X02015Y004202D01*
X02005D01*
X02005Y004229D01*
X020046Y004275D01*
X020042Y004293D01*
X020038Y004309D01*
X020032Y004322D01*
X020026Y004332D01*
X020019Y004339D01*
X02001Y004343D01*
X020001Y004345D01*
X020199D01*
X02019Y004343D01*
D02*
G37*
G36*
X01969D02*
X019681Y004339D01*
X019674Y004332D01*
X019668Y004322D01*
X019662Y004309D01*
X019658Y004293D01*
X019654Y004275D01*
X019652Y004253D01*
X01965Y004229D01*
X01965Y004202D01*
X01955D01*
X01955Y004229D01*
X019546Y004275D01*
X019542Y004293D01*
X019538Y004309D01*
X019532Y004322D01*
X019526Y004332D01*
X019519Y004339D01*
X01951Y004343D01*
X019501Y004345D01*
X019699D01*
X01969Y004343D01*
D02*
G37*
G36*
X018886Y003205D02*
X018866Y003184D01*
X018835Y003147D01*
X018824Y003131D01*
X018815Y003116D01*
X01881Y003103D01*
X018807Y003091D01*
Y00308D01*
X01881Y003071D01*
X018815Y003063D01*
X018674Y003205D01*
X018682Y003199D01*
X018691Y003196D01*
X018701D01*
X018714Y003199D01*
X018727Y003205D01*
X018742Y003213D01*
X018758Y003225D01*
X018776Y003239D01*
X018815Y003275D01*
X018886Y003205D01*
D02*
G37*
G36*
X019901D02*
X019881Y003184D01*
X01985Y003147D01*
X019839Y003131D01*
X01983Y003116D01*
X019824Y003103D01*
X019821Y003091D01*
X019821Y00308D01*
X019824Y003071D01*
X019829Y003063D01*
X019689Y003204D01*
X019697Y003198D01*
X019706Y003195D01*
X019717Y003195D01*
X019729Y003198D01*
X019742Y003204D01*
X019757Y003213D01*
X019773Y003224D01*
X019791Y003238D01*
X019831Y003275D01*
X019901Y003205D01*
D02*
G37*
G36*
X02255D02*
Y003056D01*
X022549Y003065D01*
X022546Y003074D01*
X022541Y003081D01*
X022534Y003088D01*
X022525Y003093D01*
X022514Y003098D01*
X022501Y003101D01*
X022486Y003104D01*
X022469Y003105D01*
X02245Y003106D01*
Y003206D01*
X02255Y003205D01*
D02*
G37*
G36*
X021552Y003254D02*
X021592Y00322D01*
X021608Y003208D01*
X021624Y003199D01*
X021637Y003194D01*
X021648Y003191D01*
X021658Y003192D01*
X021665Y003196D01*
X021671Y003204D01*
X021571Y003024D01*
X021574Y003034D01*
X021574Y003045D01*
X021571Y003059D01*
X021565Y003074D01*
X021556Y00309D01*
X021544Y003109D01*
X021528Y003129D01*
X021488Y003175D01*
X021463Y003201D01*
X02153Y003275D01*
X021552Y003254D01*
D02*
G37*
G36*
X022856Y002695D02*
X022847Y002692D01*
X02284Y002687D01*
X022833Y00268D01*
X022828Y002671D01*
X022823Y00266D01*
X02282Y002647D01*
X022817Y002632D01*
X022816Y002615D01*
X022815Y002595D01*
X022715D01*
X022715Y002615D01*
X022713Y002632D01*
X022711Y002647D01*
X022707Y00266D01*
X022703Y002671D01*
X022697Y00268D01*
X022691Y002687D01*
X022683Y002692D01*
X022675Y002695D01*
X022665Y002696D01*
X022865D01*
X022856Y002695D01*
D02*
G37*
G36*
X021856D02*
X021848Y002692D01*
X02184Y002687D01*
X021834Y00268D01*
X021828Y002671D01*
X021824Y00266D01*
X02182Y002647D01*
X021818Y002632D01*
X021816Y002615D01*
X021816Y002595D01*
X021716D01*
X021715Y002615D01*
X021714Y002632D01*
X021711Y002647D01*
X021708Y00266D01*
X021703Y002671D01*
X021698Y00268D01*
X021691Y002687D01*
X021684Y002692D01*
X021675Y002695D01*
X021666Y002696D01*
X021866D01*
X021856Y002695D01*
D02*
G37*
G36*
X019691D02*
X019682Y002692D01*
X019675Y002687D01*
X019668Y00268D01*
X019662Y002671D01*
X019658Y00266D01*
X019655Y002647D01*
X019652Y002632D01*
X01965Y002615D01*
X01965Y002595D01*
X01955D01*
X019549Y002615D01*
X019548Y002632D01*
X019546Y002647D01*
X019542Y00266D01*
X019538Y002671D01*
X019532Y00268D01*
X019526Y002687D01*
X019518Y002692D01*
X01951Y002695D01*
X0195Y002696D01*
X0197D01*
X019691Y002695D01*
D02*
G37*
G36*
X018706D02*
X018698Y002692D01*
X01869Y002687D01*
X018684Y00268D01*
X018678Y002671D01*
X018674Y00266D01*
X01867Y002647D01*
X018668Y002632D01*
X018666Y002615D01*
X018666Y002595D01*
X018566D01*
X018565Y002615D01*
X018564Y002632D01*
X018561Y002647D01*
X018558Y00266D01*
X018553Y002671D01*
X018548Y00268D01*
X018541Y002687D01*
X018534Y002692D01*
X018525Y002695D01*
X018516Y002696D01*
X018716D01*
X018706Y002695D01*
D02*
G37*
G36*
X022816Y001485D02*
X022817Y001467D01*
X02282Y001452D01*
X022823Y001439D01*
X022828Y001428D01*
X022833Y001419D01*
X02284Y001412D01*
X022847Y001407D01*
X022856Y001404D01*
X022865Y001403D01*
X022665D01*
X022675Y001404D01*
X022683Y001407D01*
X022691Y001412D01*
X022697Y001419D01*
X022703Y001428D01*
X022707Y001439D01*
X022711Y001452D01*
X022713Y001467D01*
X022715Y001485D01*
X022715Y001504D01*
X022815D01*
X022816Y001485D01*
D02*
G37*
G36*
X01965D02*
X019652Y001467D01*
X019655Y001452D01*
X019658Y001439D01*
X019662Y001428D01*
X019668Y001419D01*
X019675Y001412D01*
X019682Y001407D01*
X019691Y001404D01*
X0197Y001403D01*
X0195D01*
X01951Y001404D01*
X019518Y001407D01*
X019526Y001412D01*
X019532Y001419D01*
X019538Y001428D01*
X019542Y001439D01*
X019546Y001452D01*
X019548Y001467D01*
X019549Y001485D01*
X01955Y001504D01*
X01965D01*
X01965Y001485D01*
D02*
G37*
G36*
X021817Y001562D02*
X021822Y00154D01*
X02183Y001516D01*
X021842Y001491D01*
X021857Y001465D01*
X021875Y001437D01*
X021896Y001409D01*
X021948Y001349D01*
X021979Y001318D01*
X021552D01*
X021583Y001349D01*
X021636Y001409D01*
X021657Y001437D01*
X021675Y001465D01*
X02169Y001491D01*
X021701Y001516D01*
X021709Y00154D01*
X021714Y001562D01*
X021716Y001584D01*
X021816D01*
X021817Y001562D01*
D02*
G37*
G36*
X018667D02*
X018672Y00154D01*
X01868Y001516D01*
X018692Y001491D01*
X018707Y001465D01*
X018725Y001437D01*
X018746Y001409D01*
X018798Y001349D01*
X018829Y001318D01*
X018402D01*
X018433Y001349D01*
X018486Y001409D01*
X018507Y001437D01*
X018525Y001465D01*
X01854Y001491D01*
X018551Y001516D01*
X018559Y00154D01*
X018564Y001562D01*
X018566Y001584D01*
X018666D01*
X018667Y001562D01*
D02*
G37*
G36*
X014595Y003666D02*
X014592Y003656D01*
Y003646D01*
X014595Y003634D01*
X0146Y00362D01*
X014609Y003605D01*
X01462Y003589D01*
X014634Y003572D01*
X014671Y003532D01*
X0146Y003461D01*
X01458Y003481D01*
X014543Y003512D01*
X014527Y003523D01*
X014512Y003532D01*
X014499Y003538D01*
X014487Y00354D01*
X014476D01*
X014467Y003538D01*
X014459Y003532D01*
X0146Y003673D01*
X014595Y003666D01*
D02*
G37*
G36*
X009941Y003532D02*
X009933Y003538D01*
X009924Y00354D01*
X009913D01*
X009901Y003538D01*
X009888Y003532D01*
X009873Y003523D01*
X009857Y003512D01*
X009839Y003498D01*
X0098Y003461D01*
X009729Y003532D01*
X009749Y003552D01*
X00978Y003589D01*
X009791Y003605D01*
X0098Y00362D01*
X009805Y003634D01*
X009808Y003646D01*
Y003656D01*
X009805Y003666D01*
X0098Y003673D01*
X009941Y003532D01*
D02*
G37*
G36*
X0205Y003205D02*
X020351Y003204D01*
X020361Y003205D01*
X020369Y003208D01*
X020377Y003213D01*
X020383Y00322D01*
X020389Y003229D01*
X020393Y00324D01*
X020397Y003253D01*
X020399Y003268D01*
X020401Y003286D01*
X020401Y003305D01*
X020501D01*
X0205Y003205D01*
D02*
G37*
G36*
X020921Y003255D02*
X020958Y003224D01*
X020974Y003213D01*
X020989Y003204D01*
X021002Y003198D01*
X021014Y003195D01*
X021025Y003195D01*
X021034Y003198D01*
X021041Y003204D01*
X020901Y003063D01*
X020907Y003071D01*
X020909Y00308D01*
X020909Y003091D01*
X020906Y003103D01*
X020901Y003116D01*
X020892Y003131D01*
X020881Y003147D01*
X020866Y003165D01*
X020829Y003205D01*
X0209Y003275D01*
X020921Y003255D01*
D02*
G37*
%LPC*%
G36*
X00606Y011893D02*
X005754D01*
Y011666D01*
X005755D01*
X005775Y011666D01*
X005792Y011668D01*
X005807Y01167D01*
X00582Y011674D01*
X005831Y011678D01*
X00584Y011684D01*
X005847Y01169D01*
X005852Y011698D01*
X005855Y011706D01*
X005856Y011716D01*
Y011666D01*
X00606D01*
Y011893D01*
D02*
G37*
G36*
X005582D02*
X005276D01*
Y011666D01*
X005481D01*
Y011716D01*
X005482Y011706D01*
X005485Y011698D01*
X00549Y01169D01*
X005497Y011684D01*
X005506Y011678D01*
X005517Y011674D01*
X00553Y01167D01*
X005545Y011668D01*
X005562Y011666D01*
X005581Y011666D01*
Y011666D01*
X005582D01*
Y011893D01*
D02*
G37*
G36*
X005176D02*
X004871D01*
Y011666D01*
X004872D01*
Y011686D01*
X004891Y011686D01*
X004908Y011688D01*
X004923Y01169D01*
X004936Y011694D01*
X004948Y011698D01*
X004957Y011704D01*
X004964Y01171D01*
X004969Y011718D01*
X004972Y011726D01*
X004973Y011736D01*
Y011666D01*
X005176D01*
Y011893D01*
D02*
G37*
G36*
X004317Y011586D02*
X004114D01*
Y011536D01*
X004113Y011545D01*
X00411Y011554D01*
X004105Y011561D01*
X004097Y011568D01*
X004088Y011573D01*
X004077Y011578D01*
X004064Y011581D01*
X004049Y011584D01*
X004032Y011585D01*
X004013Y011586D01*
X004011D01*
Y011319D01*
X004317D01*
Y011586D01*
D02*
G37*
G36*
X003839Y011586D02*
X003838D01*
X003819Y011585D01*
X003802Y011584D01*
X003787Y011581D01*
X003774Y011578D01*
X003762Y011573D01*
X003753Y011568D01*
X003746Y011561D01*
X003741Y011554D01*
X003738Y011545D01*
X003737Y011536D01*
Y011586D01*
X003534D01*
Y01142D01*
X00355D01*
X003541Y011419D01*
X003534Y011417D01*
Y011319D01*
X003839D01*
Y011586D01*
D02*
G37*
G36*
X005176Y011566D02*
X004973D01*
Y011536D01*
X004972Y011545D01*
X004969Y011554D01*
X004964Y011561D01*
X004959Y011566D01*
X004871D01*
Y011339D01*
X005176D01*
Y011566D01*
D02*
G37*
G36*
X004723Y011586D02*
X004722D01*
D01*
X004703Y011585D01*
X004685Y011584D01*
X00467Y011581D01*
X004657Y011578D01*
X004646Y011573D01*
X004637Y011568D01*
X00463Y011561D01*
X004625Y011554D01*
X004622Y011545D01*
X004621Y011536D01*
Y011586D01*
X004417D01*
Y011319D01*
X004723D01*
Y011586D01*
D02*
G37*
G36*
X00606Y011566D02*
X005856D01*
Y011516D01*
X005855Y011525D01*
X005852Y011534D01*
X005847Y011541D01*
X00584Y011548D01*
X005831Y011553D01*
X00582Y011558D01*
X005807Y011561D01*
X005792Y011564D01*
X005775Y011565D01*
X005755Y011566D01*
Y011566D01*
X005754D01*
Y011339D01*
X00606D01*
Y011566D01*
D02*
G37*
G36*
X005582Y011566D02*
X005581D01*
X005562Y011565D01*
X005545Y011564D01*
X00553Y011561D01*
X005517Y011558D01*
X005506Y011553D01*
X005497Y011548D01*
X00549Y011541D01*
X005485Y011534D01*
X005482Y011525D01*
X005481Y011516D01*
Y011566D01*
X005276D01*
Y011339D01*
X005582D01*
Y011566D01*
D02*
G37*
G36*
X003434Y011586D02*
X003128D01*
Y011319D01*
X003434D01*
Y01132D01*
X0034D01*
X003399Y011339D01*
X003398Y011356D01*
X003395Y011371D01*
X003392Y011384D01*
X003388Y011395D01*
X003382Y011404D01*
X003376Y011411D01*
X003368Y011416D01*
X003359Y011419D01*
X00335Y01142D01*
X003434D01*
Y011586D01*
D02*
G37*
%LPD*%
D15*
X013255Y00135D02*
X01485D01*
X0132Y001405D02*
X013255Y00135D01*
X00959Y001336D02*
X011131D01*
X0112Y001405D01*
X0186Y002989D02*
X0196Y003989D01*
X0186Y00295D02*
Y002989D01*
X0196Y003989D02*
Y004803D01*
X0186Y00295D02*
X018616Y002934D01*
Y0011D02*
Y002934D01*
X017165Y00295D02*
X017931D01*
X02055Y00355D02*
X020555D01*
X021115Y002989D01*
X0196Y002974D02*
X0201Y003474D01*
Y004803D01*
X0236Y003958D02*
Y004803D01*
X02345Y0037D02*
Y003808D01*
X0236Y003958D01*
X0157Y002094D02*
Y003D01*
X01569Y002084D02*
X0157Y002094D01*
X020451Y003117D02*
Y003308D01*
X020285Y00295D02*
X020451Y003117D01*
X021115Y00295D02*
Y002989D01*
X02345Y002965D02*
Y0037D01*
X023435Y00295D02*
X02345Y002965D01*
X022917Y011686D02*
X022937Y011666D01*
X023751D01*
X00585Y013867D02*
X007283Y012433D01*
X00585Y013867D02*
Y021D01*
X005793D02*
X00585D01*
X005591Y021202D02*
X005793Y021D01*
X004274Y021202D02*
X005591D01*
X012682Y00545D02*
X01485Y003282D01*
X0122Y00545D02*
X012682D01*
X01485Y002098D02*
Y003282D01*
Y002098D02*
X014864Y002084D01*
X01569D01*
X011718Y00545D02*
X0122D01*
X00959Y002084D02*
Y003322D01*
X011718Y00545D01*
X00879Y002084D02*
X00959D01*
X0177Y0216D02*
X018946D01*
X01901Y021664D01*
Y01349D02*
Y020916D01*
Y01349D02*
X02015Y01235D01*
X01901Y020916D02*
X01981D01*
X020894Y022956D02*
X020987D01*
X022384Y021559D01*
Y02075D02*
Y021559D01*
X020894Y022956D02*
Y02305D01*
X0214Y02075D02*
Y021756D01*
X020106Y02305D02*
X0214Y021756D01*
X007563Y02375D02*
X020981D01*
X021681Y02305D01*
X006863D02*
X007563Y02375D01*
X022357Y003156D02*
X022599D01*
X0211Y004413D02*
X022357Y003156D01*
X022765Y00295D02*
Y002989D01*
X0211Y004413D02*
Y004803D01*
X022599Y003156D02*
X022765Y002989D01*
X0206Y00415D02*
Y004803D01*
X0191D02*
Y008397D01*
Y009D01*
X01891Y00919D02*
X0191Y009D01*
X01786Y009131D02*
X017919Y00919D01*
X01786Y008914D02*
Y009131D01*
X017919Y00919D02*
X01891D01*
X02365Y00975D02*
X0243D01*
X0226D02*
X02365D01*
X0178Y0103D02*
Y01035D01*
X01835Y0109D01*
Y011016D01*
X01851Y011176D02*
Y011666D01*
X01835Y011016D02*
X01851Y011176D01*
X016654Y008787D02*
Y009D01*
X00785D02*
X016654D01*
X0197Y0095D02*
X0201Y0091D01*
X00345Y0095D02*
X0197D01*
X0021Y01085D02*
X00345Y0095D01*
X009825Y0102D02*
X0101D01*
X0083Y011686D02*
X008339D01*
X009825Y0102D01*
X02065Y01045D02*
X0216Y0095D01*
Y008397D02*
Y0095D01*
X020433Y0099D02*
X0211Y009233D01*
X020258Y0097D02*
X0206Y009358D01*
Y008397D02*
Y009358D01*
X0211Y008397D02*
Y009233D01*
X01585Y0099D02*
X020433D01*
X0212Y0104D02*
X0221Y0095D01*
X0212Y0104D02*
Y011686D01*
X008723Y0097D02*
X020258D01*
X0201Y008397D02*
Y0091D01*
X016654Y008787D02*
X016733D01*
X016366Y008498D02*
X016654Y008787D01*
X016733D02*
X01686Y008914D01*
X007783Y01064D02*
X008723Y0097D01*
X014717Y011033D02*
X01585Y0099D01*
X016549Y010377D02*
X016723D01*
X0168Y0103D01*
X015239Y011686D02*
X016549Y010377D01*
X0152Y011686D02*
X015239D01*
X014717Y011033D02*
Y013938D01*
X014217Y010917D02*
Y012383D01*
X01375Y01045D02*
X014217Y010917D01*
Y012383D02*
Y013938D01*
X0236Y00705D02*
X024791D01*
X0236Y005153D02*
Y00705D01*
X02485Y007109D02*
Y0092D01*
X024791Y00705D02*
X02485Y007109D01*
X022059Y010291D02*
X0226Y00975D01*
X0243D02*
X02485Y0092D01*
X022059Y010291D02*
Y011686D01*
X007783Y01064D02*
Y013888D01*
X0026Y011636D02*
X0027Y011536D01*
Y01085D02*
Y011536D01*
X0015Y01025D02*
X001575Y010325D01*
Y012425D01*
X0016Y01245D01*
X0015Y007567D02*
Y01025D01*
Y007567D02*
X001659Y007409D01*
X00345Y011602D02*
X003484Y011636D01*
X00345Y01045D02*
Y011602D01*
X00365Y02045D02*
X0039Y0202D01*
X00365Y02045D02*
Y0218D01*
X003814Y021964D01*
X00426D01*
Y021216D02*
X004274Y021202D01*
X0071Y00195D02*
Y00325D01*
X0138Y00705D02*
X0152D01*
X0122Y00545D02*
X0138Y00705D01*
X016366Y00485D02*
Y008498D01*
X01685Y008156D02*
X01686Y008166D01*
X01685Y00705D02*
Y008156D01*
X010919Y010619D02*
X011088Y01045D01*
X01375D01*
X010919Y010619D02*
Y011666D01*
X0016Y01245D02*
Y013888D01*
X02015Y013938D02*
X02015Y013938D01*
Y01235D02*
Y013938D01*
X007283Y012433D02*
Y013888D01*
X001659Y007409D02*
X00205D01*
X00355D01*
X00205Y00195D02*
Y007409D01*
X00765Y007409D02*
X0077Y007359D01*
X00555Y007409D02*
X00765D01*
X00355Y007409D02*
X00555D01*
X00555Y007409D01*
X00205Y00195D02*
X0028Y0012D01*
X00635D01*
X0071Y00195D01*
X0196Y0076D02*
Y008747D01*
X02015Y00705D02*
X0236D01*
X0196Y0076D02*
X02015Y00705D01*
X01785Y007135D02*
Y008156D01*
X01786Y008166D01*
X01686D02*
X01786D01*
X019319Y02305D02*
X01981Y022559D01*
Y021664D02*
Y022559D01*
X01901Y021664D02*
X01981D01*
X023751Y011666D02*
X02461D01*
X022059Y011686D02*
X022917D01*
X017676Y011666D02*
X01851D01*
X017657Y011686D02*
X017676Y011666D01*
X016867Y011686D02*
X017657D01*
X016034D02*
X016867D01*
X010919Y011666D02*
X0118D01*
X010899Y011686D02*
X010919Y011666D01*
X010062Y011686D02*
X010899D01*
X009181Y011686D02*
X010062D01*
X010062Y011686D01*
X005226Y011616D02*
X00611D01*
X005207Y011636D02*
X005226Y011616D01*
X004367Y011636D02*
X005207D01*
X004367Y011636D02*
X004367Y011636D01*
X003484Y011636D02*
X004367D01*
X00426Y021964D02*
X005036D01*
X0045Y02305D02*
X00505Y0225D01*
Y02195D02*
Y0225D01*
X005036Y021964D02*
X00505Y02195D01*
X01686Y008914D02*
X01786D01*
X01785Y005663D02*
Y006465D01*
X016366Y001624D02*
Y00485D01*
X016379Y004837D01*
X01785D01*
X01569Y001336D02*
X016077D01*
X016366Y001624D01*
X01485Y00135D02*
X015676D01*
X01569Y001336D01*
X00879D02*
X00959D01*
X008711D02*
X00879D01*
X0077Y002347D02*
Y005941D01*
Y002347D02*
X008711Y001336D01*
X022765Y001115D02*
Y00295D01*
X02275Y0011D02*
X022765Y001115D01*
X0211Y005153D02*
X021126Y005126D01*
X021136Y003614D02*
X021136D01*
X0206Y00415D02*
X021136Y003614D01*
X021136D02*
X021482Y003268D01*
Y003253D02*
X021579Y003156D01*
X021618D02*
X021785Y002989D01*
Y00295D02*
Y002989D01*
X021579Y003156D02*
X021618D01*
X021482Y003253D02*
Y003268D01*
X021766Y002931D02*
X021785Y00295D01*
X021766Y0011D02*
Y002931D01*
X0196Y0011D02*
Y002974D01*
X02065Y01045D02*
Y013938D01*
X0021Y01085D02*
Y013888D01*
X0031D02*
Y017707D01*
X008783Y013888D02*
Y017707D01*
X015717Y013938D02*
Y017757D01*
X02165Y013938D02*
Y017757D01*
X022878Y012355D02*
X022917D01*
X02265Y012583D02*
Y013938D01*
Y012583D02*
X022878Y012355D01*
X022059D02*
X02215Y012446D01*
Y013938D01*
X016717Y012506D02*
Y013938D01*
Y012506D02*
X016867Y012355D01*
X01605D02*
X016217Y012522D01*
Y013938D01*
X016034Y012355D02*
X01605D01*
X009783Y012594D02*
Y013888D01*
Y012594D02*
X010023Y012355D01*
X010062D01*
X009181Y012355D02*
Y013786D01*
X009283Y013888D01*
X004328Y012305D02*
X004367D01*
X0041Y012533D02*
Y013888D01*
Y012533D02*
X004328Y012305D01*
X003484Y012305D02*
Y013771D01*
X0036Y013888D01*
X02115Y013938D02*
X0212Y013888D01*
Y012355D02*
Y013888D01*
X0152Y012355D02*
Y013921D01*
X015217Y013938D01*
X008283Y013888D02*
X0083Y013871D01*
Y012355D02*
Y013871D01*
X0026Y012305D02*
Y013888D01*
X006075Y022975D02*
X00615D01*
X00755Y021575D01*
Y0208D02*
Y021575D01*
X006075Y022975D02*
Y02305D01*
X00655Y020816D02*
Y021788D01*
Y020816D02*
X006566Y0208D01*
X005288Y02305D02*
X00655Y021788D01*
D16*
X017931Y00295D02*
D03*
X0186D02*
D03*
X019615D02*
D03*
X020285D02*
D03*
X021785D02*
D03*
X021115D02*
D03*
X022765D02*
D03*
X023435D02*
D03*
D17*
X0077Y005941D02*
D03*
Y007359D02*
D03*
X00355Y005991D02*
D03*
Y007409D02*
D03*
X00555Y007409D02*
D03*
Y005991D02*
D03*
D18*
X02015Y013938D02*
D03*
X02065D02*
D03*
X02115D02*
D03*
X02165D02*
D03*
X02215D02*
D03*
X02265D02*
D03*
X02315D02*
D03*
X017217D02*
D03*
X016717D02*
D03*
X016217D02*
D03*
X015717D02*
D03*
X015217D02*
D03*
X014717D02*
D03*
X014217D02*
D03*
X0046Y013888D02*
D03*
X0041D02*
D03*
X0036D02*
D03*
X0031D02*
D03*
X0026D02*
D03*
X0021D02*
D03*
X0016D02*
D03*
X010283D02*
D03*
X009783D02*
D03*
X009283D02*
D03*
X008783D02*
D03*
X008283D02*
D03*
X007783D02*
D03*
X007283D02*
D03*
D19*
X02165Y017757D02*
D03*
X015717D02*
D03*
X0031Y017707D02*
D03*
X008783D02*
D03*
D20*
X0152Y012355D02*
D03*
Y011686D02*
D03*
X01785Y007135D02*
D03*
Y006465D02*
D03*
X0212Y011686D02*
D03*
Y012355D02*
D03*
X016034Y011686D02*
D03*
Y012355D02*
D03*
X022059Y011686D02*
D03*
Y012355D02*
D03*
X016867Y011686D02*
D03*
Y012355D02*
D03*
X022917Y011686D02*
D03*
Y012355D02*
D03*
X0026Y011636D02*
D03*
Y012305D02*
D03*
X003484Y011636D02*
D03*
Y012305D02*
D03*
X0083Y011686D02*
D03*
Y012355D02*
D03*
X004367Y012305D02*
D03*
Y011636D02*
D03*
X009181Y011686D02*
D03*
Y012355D02*
D03*
X010062Y012355D02*
D03*
Y011686D02*
D03*
D21*
X0112Y001405D02*
D03*
X0132D02*
D03*
D22*
X0118Y011666D02*
D03*
Y012414D02*
D03*
X017676Y011666D02*
D03*
Y012414D02*
D03*
X005226Y011616D02*
D03*
Y012364D02*
D03*
X00611Y011616D02*
D03*
Y012364D02*
D03*
X01851Y011666D02*
D03*
Y012414D02*
D03*
X01786Y008166D02*
D03*
Y008914D02*
D03*
X01686Y008166D02*
D03*
Y008914D02*
D03*
X010919Y011666D02*
D03*
Y012414D02*
D03*
X023751Y011666D02*
D03*
Y012414D02*
D03*
X02461Y011666D02*
D03*
Y012414D02*
D03*
X01569Y002084D02*
D03*
Y001336D02*
D03*
X01485Y002098D02*
D03*
Y00135D02*
D03*
X00959Y002084D02*
D03*
Y001336D02*
D03*
X00879Y002084D02*
D03*
Y001336D02*
D03*
X00505Y021202D02*
D03*
Y02195D02*
D03*
X00426Y021216D02*
D03*
Y021964D02*
D03*
X01981Y020916D02*
D03*
Y021664D02*
D03*
X01901Y020916D02*
D03*
Y021664D02*
D03*
D23*
X01785Y005663D02*
D03*
Y004837D02*
D03*
D24*
X0191Y008397D02*
D03*
X0196D02*
D03*
X0201D02*
D03*
X0206D02*
D03*
X0211D02*
D03*
X0216D02*
D03*
X0221D02*
D03*
X0226D02*
D03*
X0231D02*
D03*
X0236D02*
D03*
Y004803D02*
D03*
X0231D02*
D03*
X0226D02*
D03*
X0221D02*
D03*
X0216D02*
D03*
X0211D02*
D03*
X0206D02*
D03*
X0201D02*
D03*
X0196D02*
D03*
D25*
X0191D02*
D03*
D36*
X021766Y0011D02*
D03*
X018616D02*
D03*
X006566Y0208D02*
D03*
X0214Y02075D02*
D03*
D37*
X02275Y0011D02*
D03*
X0196D02*
D03*
X00755Y0208D02*
D03*
X022384Y02075D02*
D03*
D42*
X0122Y00545D02*
D03*
D43*
X0188Y0109D02*
X01945D01*
X0092Y0074D02*
Y0086D01*
Y0067D02*
Y0074D01*
Y006243D02*
Y0067D01*
X008898Y005941D02*
X0092Y006243D01*
X0077Y005941D02*
X008898D01*
X00675Y0109D02*
Y012071D01*
Y0109D02*
X0073D01*
X00611Y012364D02*
X006457D01*
X00675Y012071D01*
X01945Y0109D02*
X02D01*
X012407Y012414D02*
X0127Y012121D01*
Y0109D02*
Y012121D01*
X010919Y012414D02*
X012407D01*
X0127Y0109D02*
X0134D01*
X015717Y022267D02*
X0165Y02305D01*
X015717Y017757D02*
Y022267D01*
X0165Y02305D02*
X018532D01*
X022469D02*
X02325D01*
X02425Y02205D01*
X01851Y012414D02*
X019157D01*
X01945Y012121D01*
Y0109D02*
Y012121D01*
X0031Y022434D02*
X003713Y023047D01*
X0031Y017707D02*
Y022434D01*
X023751Y012414D02*
X02461D01*
X025157D02*
X02545Y012121D01*
X02461Y012414D02*
X025157D01*
X02545Y0109D02*
Y012121D01*
X012Y0109D02*
X0127D01*
X024775D02*
X02545D01*
X0241D02*
X024775D01*
X005226Y012364D02*
X00611D01*
X017676Y012414D02*
X01851D01*
X005575Y005966D02*
X007675D01*
X00555Y005991D02*
X005575Y005966D01*
X007675D02*
X0077Y005941D01*
X00355Y005991D02*
X00555D01*
X00555Y005991D01*
X00355Y0025D02*
X0041Y00195D01*
X00355Y0025D02*
Y005991D01*
X003713Y023047D02*
Y02305D01*
X00765D02*
X008783Y021917D01*
Y017707D02*
Y021917D01*
X021896Y017757D02*
X02425Y020111D01*
Y02205D01*
X02165Y017757D02*
X021896D01*
D44*
X02315Y013938D02*
X023167Y01392D01*
Y013033D02*
Y01392D01*
Y013033D02*
X023646Y012554D01*
Y012441D02*
Y012554D01*
Y012441D02*
X023673Y012414D01*
X023751D01*
X017571Y012441D02*
Y01252D01*
X017234Y012856D02*
X017571Y01252D01*
X017234Y012856D02*
Y01392D01*
X017571Y012441D02*
X017598Y012414D01*
X017676D01*
X017217Y013938D02*
X017234Y01392D01*
X010759Y012441D02*
X010892D01*
X010568Y012632D02*
X010759Y012441D01*
X010568Y012632D02*
Y012675D01*
X010301Y012943D02*
Y01387D01*
Y012943D02*
X010568Y012675D01*
X010892Y012441D02*
X010919Y012414D01*
X010283Y013888D02*
X010301Y01387D01*
X004617Y012883D02*
Y01387D01*
Y012883D02*
X005109Y012391D01*
X005199D01*
X005226Y012364D01*
X0046Y013888D02*
X004617Y01387D01*
D45*
X02505Y02345D02*
D03*
X0009Y001D02*
D03*
Y02345D02*
D03*
X0251Y001D02*
D03*
D46*
X018532Y02305D02*
D03*
X019319D02*
D03*
X020894D02*
D03*
X021681D02*
D03*
X020106D02*
D03*
X003713D02*
D03*
X0045D02*
D03*
X006075D02*
D03*
X006863D02*
D03*
X005288D02*
D03*
D47*
X022469D02*
D03*
X00765D02*
D03*
D48*
X0041Y00195D02*
D03*
D49*
X0071D02*
D03*
D50*
X0249Y0195D02*
D03*
Y0165D02*
D03*
Y0135D02*
D03*
Y0075D02*
D03*
Y0045D02*
D03*
X02415Y018D02*
D03*
Y015D02*
D03*
Y009D02*
D03*
Y006D02*
D03*
Y003D02*
D03*
X02265Y006D02*
D03*
X02115D02*
D03*
X0204Y0015D02*
D03*
X0189Y0195D02*
D03*
Y0165D02*
D03*
Y0135D02*
D03*
X01965Y006D02*
D03*
X01815Y021D02*
D03*
Y018D02*
D03*
Y015D02*
D03*
X0174Y0015D02*
D03*
X0144Y0225D02*
D03*
X01515Y006D02*
D03*
X0129Y0225D02*
D03*
X01365Y021D02*
D03*
X0129Y0195D02*
D03*
Y0165D02*
D03*
Y0135D02*
D03*
X01365Y012D02*
D03*
Y003D02*
D03*
X0114Y0225D02*
D03*
X01215Y021D02*
D03*
X0114Y0195D02*
D03*
X01215Y018D02*
D03*
X0114Y0165D02*
D03*
X01215Y015D02*
D03*
X0114Y0135D02*
D03*
X01215Y003D02*
D03*
X0099Y0225D02*
D03*
X01065Y021D02*
D03*
Y003D02*
D03*
X0084Y0045D02*
D03*
X00915Y003D02*
D03*
X0069Y0075D02*
D03*
Y0045D02*
D03*
X00615Y018D02*
D03*
Y015D02*
D03*
X0054Y0135D02*
D03*
X00615Y009D02*
D03*
X0054Y0045D02*
D03*
X00615Y003D02*
D03*
X0054Y0015D02*
D03*
X00465Y009D02*
D03*
Y003D02*
D03*
X0024Y0225D02*
D03*
X00315Y009D02*
D03*
X0024Y0075D02*
D03*
Y0045D02*
D03*
Y0015D02*
D03*
X00165Y021D02*
D03*
X0009Y0105D02*
D03*
X00165Y009D02*
D03*
X0009Y0075D02*
D03*
X00165Y006D02*
D03*
X0009Y0045D02*
D03*
X00165Y003D02*
D03*
D51*
X02055Y00355D02*
D03*
X0157Y003D02*
D03*
X017165Y00295D02*
D03*
X02345Y0037D02*
D03*
X00585Y021D02*
D03*
X0177Y0216D02*
D03*
X02365Y00975D02*
D03*
X0178Y0103D02*
D03*
X0188Y0109D02*
D03*
X01585Y009D02*
D03*
X00785D02*
D03*
X0092Y0086D02*
D03*
Y008D02*
D03*
Y0074D02*
D03*
X00675Y0109D02*
D03*
X0101Y0102D02*
D03*
X0221Y0095D02*
D03*
X0168Y0103D02*
D03*
X0073Y0109D02*
D03*
X0027Y01085D02*
D03*
X00155Y0103D02*
D03*
X00345Y01045D02*
D03*
X0039Y0202D02*
D03*
X0071Y00325D02*
D03*
X0152Y00705D02*
D03*
X01685D02*
D03*
X02015D02*
D03*
X02Y0109D02*
D03*
X02015Y01235D02*
D03*
X014217Y012383D02*
D03*
X0016Y01245D02*
D03*
X007283Y012433D02*
D03*
X01945Y0109D02*
D03*
X0092Y0067D02*
D03*
X012Y0109D02*
D03*
X0134D02*
D03*
X0127D02*
D03*
X024775D02*
D03*
X0241D02*
D03*
X02545D02*
D03*
M02*
