G04*
G04 #@! TF.GenerationSoftware,Altium Limited,Altium Designer,22.9.1 (49)*
G04*
G04 Layer_Color=8421504*
%FSTAX24Y24*%
%MOIN*%
G70*
G04*
G04 #@! TF.SameCoordinates,DC5806C5-9D72-4097-8AC5-96CD70471510*
G04*
G04*
G04 #@! TF.FilePolarity,Positive*
G04*
G01*
G75*
%ADD16R,0.0433X0.0512*%
%ADD17R,0.0630X0.1024*%
%ADD18R,0.0335X0.1713*%
%ADD19R,0.3996X0.3504*%
%ADD20R,0.0512X0.0433*%
%ADD21R,0.0630X0.1378*%
%ADD22R,0.0512X0.0354*%
%ADD23R,0.0472X0.0433*%
G04:AMPARAMS|DCode=24|XSize=102.5mil|YSize=24.5mil|CornerRadius=12.2mil|HoleSize=0mil|Usage=FLASHONLY|Rotation=90.000|XOffset=0mil|YOffset=0mil|HoleType=Round|Shape=RoundedRectangle|*
%AMROUNDEDRECTD24*
21,1,0.1025,0.0000,0,0,90.0*
21,1,0.0780,0.0245,0,0,90.0*
1,1,0.0245,0.0000,0.0390*
1,1,0.0245,0.0000,-0.0390*
1,1,0.0245,0.0000,-0.0390*
1,1,0.0245,0.0000,0.0390*
%
%ADD24ROUNDEDRECTD24*%
%ADD25R,0.0245X0.1025*%
G36*
X01127Y004558D02*
Y004015D01*
X010692D01*
Y004558D01*
X01127D01*
D02*
G37*
G36*
X01127Y005334D02*
Y004791D01*
X010692D01*
Y005334D01*
X01127D01*
D02*
G37*
G36*
X012084Y004558D02*
Y004015D01*
X011505D01*
Y004558D01*
X012084D01*
D02*
G37*
G36*
X012084Y005334D02*
Y004791D01*
X011505D01*
Y005334D01*
X012084D01*
D02*
G37*
G36*
X01127Y006109D02*
Y005568D01*
X010692D01*
Y006109D01*
X01127D01*
D02*
G37*
G36*
X01127Y006885D02*
Y006343D01*
X010692D01*
Y006885D01*
X01127D01*
D02*
G37*
G36*
X012084Y006109D02*
Y005569D01*
X011505D01*
Y006109D01*
X012084D01*
D02*
G37*
G36*
X012084Y006885D02*
Y006346D01*
X011505D01*
Y006885D01*
X012084D01*
D02*
G37*
G36*
X012895Y004558D02*
Y004015D01*
X012316D01*
Y004558D01*
X012895D01*
D02*
G37*
G36*
X012895Y005334D02*
Y004791D01*
X012316D01*
Y005334D01*
X012895D01*
D02*
G37*
G36*
X013709Y004558D02*
Y004015D01*
X013129D01*
Y004558D01*
X013709D01*
D02*
G37*
G36*
X01371Y005334D02*
Y004791D01*
X013129D01*
Y005334D01*
X01371D01*
D02*
G37*
G36*
X012896Y006109D02*
Y005568D01*
X012316D01*
Y006109D01*
X012896D01*
D02*
G37*
G36*
X012895Y006885D02*
Y006343D01*
X012316D01*
Y006885D01*
X012895D01*
D02*
G37*
G36*
X01371Y006109D02*
Y005569D01*
X013129D01*
Y006109D01*
X01371D01*
D02*
G37*
G36*
X013711Y006885D02*
Y006346D01*
X013129D01*
Y006885D01*
X013711D01*
D02*
G37*
D16*
X017931Y00295D02*
D03*
X0186D02*
D03*
X019615D02*
D03*
X020285D02*
D03*
X021785D02*
D03*
X021115D02*
D03*
X022765D02*
D03*
X023435D02*
D03*
D17*
X0077Y005941D02*
D03*
Y007359D02*
D03*
X00355Y005991D02*
D03*
Y007409D02*
D03*
X00555Y007409D02*
D03*
Y005991D02*
D03*
D18*
X02015Y013938D02*
D03*
X02065D02*
D03*
X02115D02*
D03*
X02165D02*
D03*
X02215D02*
D03*
X02265D02*
D03*
X02315D02*
D03*
X017217D02*
D03*
X016717D02*
D03*
X016217D02*
D03*
X015717D02*
D03*
X015217D02*
D03*
X014717D02*
D03*
X014217D02*
D03*
X0046Y013888D02*
D03*
X0041D02*
D03*
X0036D02*
D03*
X0031D02*
D03*
X0026D02*
D03*
X0021D02*
D03*
X0016D02*
D03*
X010283D02*
D03*
X009783D02*
D03*
X009283D02*
D03*
X008783D02*
D03*
X008283D02*
D03*
X007783D02*
D03*
X007283D02*
D03*
D19*
X02165Y017757D02*
D03*
X015717D02*
D03*
X0031Y017707D02*
D03*
X008783D02*
D03*
D20*
X0152Y012355D02*
D03*
Y011686D02*
D03*
X01785Y007135D02*
D03*
Y006465D02*
D03*
X0212Y011686D02*
D03*
Y012355D02*
D03*
X016034Y011686D02*
D03*
Y012355D02*
D03*
X022059Y011686D02*
D03*
Y012355D02*
D03*
X016867Y011686D02*
D03*
Y012355D02*
D03*
X022917Y011686D02*
D03*
Y012355D02*
D03*
X0026Y011636D02*
D03*
Y012305D02*
D03*
X003484Y011636D02*
D03*
Y012305D02*
D03*
X0083Y011686D02*
D03*
Y012355D02*
D03*
X004367Y012305D02*
D03*
Y011636D02*
D03*
X009181Y011686D02*
D03*
Y012355D02*
D03*
X010062Y012355D02*
D03*
Y011686D02*
D03*
D21*
X0112Y001405D02*
D03*
X0132D02*
D03*
D22*
X0118Y011666D02*
D03*
Y012414D02*
D03*
X017676Y011666D02*
D03*
Y012414D02*
D03*
X005226Y011616D02*
D03*
Y012364D02*
D03*
X00611Y011616D02*
D03*
Y012364D02*
D03*
X01851Y011666D02*
D03*
Y012414D02*
D03*
X01786Y008166D02*
D03*
Y008914D02*
D03*
X01686Y008166D02*
D03*
Y008914D02*
D03*
X010919Y011666D02*
D03*
Y012414D02*
D03*
X023751Y011666D02*
D03*
Y012414D02*
D03*
X02461Y011666D02*
D03*
Y012414D02*
D03*
X01569Y002084D02*
D03*
Y001336D02*
D03*
X01485Y002098D02*
D03*
Y00135D02*
D03*
X00959Y002084D02*
D03*
Y001336D02*
D03*
X00879Y002084D02*
D03*
Y001336D02*
D03*
X00505Y021202D02*
D03*
Y02195D02*
D03*
X00426Y021216D02*
D03*
Y021964D02*
D03*
X01981Y020916D02*
D03*
Y021664D02*
D03*
X01901Y020916D02*
D03*
Y021664D02*
D03*
D23*
X01785Y005663D02*
D03*
Y004837D02*
D03*
D24*
X0191Y008397D02*
D03*
X0196D02*
D03*
X0201D02*
D03*
X0206D02*
D03*
X0211D02*
D03*
X0216D02*
D03*
X0221D02*
D03*
X0226D02*
D03*
X0231D02*
D03*
X0236D02*
D03*
Y004803D02*
D03*
X0231D02*
D03*
X0226D02*
D03*
X0221D02*
D03*
X0216D02*
D03*
X0211D02*
D03*
X0206D02*
D03*
X0201D02*
D03*
X0196D02*
D03*
D25*
X0191D02*
D03*
M02*
