G04*
G04 #@! TF.GenerationSoftware,Altium Limited,Altium Designer,22.9.1 (49)*
G04*
G04 Layer_Color=32768*
%FSTAX24Y24*%
%MOIN*%
G70*
G04*
G04 #@! TF.SameCoordinates,DC5806C5-9D72-4097-8AC5-96CD70471510*
G04*
G04*
G04 #@! TF.FilePolarity,Positive*
G04*
G01*
G75*
%ADD52C,0.0020*%
%ADD53C,0.0039*%
D52*
X017616Y002596D02*
Y003304D01*
X018915Y002596D02*
Y003304D01*
X017616D02*
X018915D01*
X017616Y002596D02*
X018915D01*
X019455Y012894D02*
X023845D01*
X019455Y019706D02*
X023845D01*
X019455Y012894D02*
Y019706D01*
X023845Y012894D02*
Y019706D01*
X014846Y01267D02*
X015554D01*
X014846Y011371D02*
X015554D01*
Y01267D01*
X014846Y011371D02*
Y01267D01*
X0097Y003432D02*
Y007468D01*
X0147D01*
Y003432D02*
Y007468D01*
X014267Y003432D02*
X0147D01*
X014267Y002606D02*
Y003432D01*
X013617Y002606D02*
X014267D01*
X013617Y000617D02*
Y002606D01*
X010783Y000617D02*
X013617D01*
X010783D02*
Y002606D01*
X010133D02*
X010783D01*
X010133D02*
Y003432D01*
X0097D02*
X010133D01*
X011456Y01141D02*
Y01267D01*
X012144D01*
Y01141D02*
Y01267D01*
X011456Y01141D02*
X012144D01*
X0118Y011843D02*
Y012237D01*
X011603Y01204D02*
X011997D01*
X017332Y01141D02*
Y01267D01*
X018021D01*
Y01141D02*
Y01267D01*
X017332Y01141D02*
X018021D01*
X017676Y011843D02*
Y012237D01*
X01748Y01204D02*
X017873D01*
X004882Y01136D02*
Y01262D01*
X005571D01*
Y01136D02*
Y01262D01*
X004882Y01136D02*
X005571D01*
X005226Y011793D02*
Y012187D01*
X00503Y01199D02*
X005423D01*
X005766Y01136D02*
Y01262D01*
X006454D01*
Y01136D02*
Y01262D01*
X005766Y01136D02*
X006454D01*
X00611Y011793D02*
Y012187D01*
X005913Y01199D02*
X006307D01*
X018166Y01141D02*
Y01267D01*
X018854D01*
Y01141D02*
Y01267D01*
X018166Y01141D02*
X018854D01*
X01851Y011843D02*
Y012237D01*
X018313Y01204D02*
X018707D01*
X017516Y00791D02*
Y00917D01*
X018204D01*
Y00791D02*
Y00917D01*
X017516Y00791D02*
X018204D01*
X01786Y008343D02*
Y008737D01*
X017663Y00854D02*
X018057D01*
X016516Y00791D02*
Y00917D01*
X017204D01*
Y00791D02*
Y00917D01*
X016516Y00791D02*
X017204D01*
X01686Y008343D02*
Y008737D01*
X016663Y00854D02*
X017057D01*
X010574Y01141D02*
Y01267D01*
X011263D01*
Y01141D02*
Y01267D01*
X010574Y01141D02*
X011263D01*
X010919Y011843D02*
Y012237D01*
X010722Y01204D02*
X011116D01*
X023407Y01141D02*
Y01267D01*
X024096D01*
Y01141D02*
Y01267D01*
X023407Y01141D02*
X024096D01*
X023751Y011843D02*
Y012237D01*
X023555Y01204D02*
X023948D01*
X024266Y01141D02*
Y01267D01*
X024954D01*
Y01141D02*
Y01267D01*
X024266Y01141D02*
X024954D01*
X02461Y011843D02*
Y012237D01*
X024413Y01204D02*
X024807D01*
X016034Y00108D02*
Y00234D01*
X015346Y00108D02*
X016034D01*
X015346D02*
Y00234D01*
X016034D01*
X01569Y001513D02*
Y001907D01*
X015493Y00171D02*
X015887D01*
X015194Y001094D02*
Y002354D01*
X014506Y001094D02*
X015194D01*
X014506D02*
Y002354D01*
X015194D01*
X01485Y001527D02*
Y001921D01*
X014653Y001724D02*
X015047D01*
X009934Y00108D02*
Y00234D01*
X009246Y00108D02*
X009934D01*
X009246D02*
Y00234D01*
X009934D01*
X00959Y001513D02*
Y001907D01*
X009393Y00171D02*
X009787D01*
X009134Y00108D02*
Y00234D01*
X008446Y00108D02*
X009134D01*
X008446D02*
Y00234D01*
X009134D01*
X00879Y001513D02*
Y001907D01*
X008593Y00171D02*
X008987D01*
X004706Y020946D02*
Y022206D01*
X005394D01*
Y020946D02*
Y022206D01*
X004706Y020946D02*
X005394D01*
X00505Y021379D02*
Y021773D01*
X004853Y021576D02*
X005247D01*
X003916Y02096D02*
Y02222D01*
X004604D01*
Y02096D02*
Y02222D01*
X003916Y02096D02*
X004604D01*
X00426Y021393D02*
Y021787D01*
X004063Y02159D02*
X004457D01*
X019466Y02066D02*
Y02192D01*
X020154D01*
Y02066D02*
Y02192D01*
X019466Y02066D02*
X020154D01*
X01981Y021093D02*
Y021487D01*
X019613Y02129D02*
X020007D01*
X018666Y02066D02*
Y02192D01*
X019354D01*
Y02066D02*
Y02192D01*
X018666Y02066D02*
X019354D01*
X01901Y021093D02*
Y021487D01*
X018813Y02129D02*
X019207D01*
X018204Y00615D02*
Y00745D01*
X017496Y00615D02*
Y00745D01*
X018204D01*
X017496Y00615D02*
X018204D01*
X020303Y023286D02*
X020697D01*
X0205Y023089D02*
Y023483D01*
X017606Y02433D02*
X023394D01*
Y022243D02*
Y02433D01*
X017606Y022243D02*
X023394D01*
X017606D02*
Y02433D01*
X005485Y023286D02*
X005878D01*
X005681Y023089D02*
Y023483D01*
X002788Y02433D02*
X008575D01*
Y022243D02*
Y02433D01*
X002788Y022243D02*
X008575D01*
X002788D02*
Y02433D01*
X017912Y012894D02*
Y019706D01*
X013522Y012894D02*
Y019706D01*
X017912D01*
X013522Y012894D02*
X017912D01*
X020846Y011371D02*
Y01267D01*
X021554Y011371D02*
Y01267D01*
X020846Y011371D02*
X021554D01*
X020846Y01267D02*
X021554D01*
X015679Y011371D02*
Y01267D01*
X016388Y011371D02*
Y01267D01*
X015679Y011371D02*
X016388D01*
X015679Y01267D02*
X016388D01*
X021704Y011371D02*
Y01267D01*
X022413Y011371D02*
Y01267D01*
X021704Y011371D02*
X022413D01*
X021704Y01267D02*
X022413D01*
X016513Y011371D02*
Y01267D01*
X017221Y011371D02*
Y01267D01*
X016513Y011371D02*
X017221D01*
X016513Y01267D02*
X017221D01*
X022563Y011371D02*
Y01267D01*
X023271Y011371D02*
Y01267D01*
X022563Y011371D02*
X023271D01*
X022563Y01267D02*
X023271D01*
X005295Y012844D02*
Y019656D01*
X000905Y012844D02*
Y019656D01*
X005295D01*
X000905Y012844D02*
X005295D01*
X002246Y011321D02*
Y01262D01*
X002954Y011321D02*
Y01262D01*
X002246Y011321D02*
X002954D01*
X002246Y01262D02*
X002954D01*
X010978Y012844D02*
Y019656D01*
X006588Y012844D02*
Y019656D01*
X010978D01*
X006588Y012844D02*
X010978D01*
X003129Y011321D02*
Y01262D01*
X003838Y011321D02*
Y01262D01*
X003129Y011321D02*
X003838D01*
X003129Y01262D02*
X003838D01*
X007946Y011371D02*
Y01267D01*
X008654Y011371D02*
Y01267D01*
X007946Y011371D02*
X008654D01*
X007946Y01267D02*
X008654D01*
X004721Y011321D02*
Y01262D01*
X004013Y011321D02*
Y01262D01*
X004721D01*
X004013Y011321D02*
X004721D01*
X008827Y011371D02*
Y01267D01*
X009535Y011371D02*
Y01267D01*
X008827Y011371D02*
X009535D01*
X008827Y01267D02*
X009535D01*
X010416Y011371D02*
Y01267D01*
X009708Y011371D02*
Y01267D01*
X010416D01*
X009708Y011371D02*
X010416D01*
X0193Y003304D02*
X0206D01*
X0193Y002596D02*
X0206D01*
X0193D02*
Y003304D01*
X0206Y002596D02*
Y003304D01*
X0208Y002596D02*
X0221D01*
X0208Y003304D02*
X0221D01*
Y002596D02*
Y003304D01*
X0208Y002596D02*
Y003304D01*
X02245Y003304D02*
X02375D01*
X02245Y002596D02*
X02375D01*
X02245D02*
Y003304D01*
X02375Y002596D02*
Y003304D01*
D53*
X018068Y00295D02*
X018462D01*
X018265Y002753D02*
Y003147D01*
X02165Y016103D02*
Y016497D01*
X021453Y0163D02*
X021847D01*
X0152Y011824D02*
Y012217D01*
X015003Y01202D02*
X015397D01*
X017653Y00525D02*
X018047D01*
X01785Y005053D02*
Y005447D01*
X0182Y0045D02*
Y00605D01*
X0175Y0045D02*
Y00605D01*
X0182D01*
X0175Y0045D02*
X0182D01*
X017653Y0068D02*
X018047D01*
X01785Y006603D02*
Y006997D01*
X01552Y0163D02*
X015914D01*
X015717Y016103D02*
Y016497D01*
X021003Y01202D02*
X021397D01*
X0212Y011824D02*
Y012217D01*
X015837Y01202D02*
X01623D01*
X016034Y011824D02*
Y012217D01*
X021862Y01202D02*
X022255D01*
X022059Y011824D02*
Y012217D01*
X01667Y01202D02*
X017064D01*
X016867Y011824D02*
Y012217D01*
X02272Y01202D02*
X023114D01*
X022917Y011824D02*
Y012217D01*
X002903Y01625D02*
X003297D01*
X0031Y016053D02*
Y016447D01*
X002403Y01197D02*
X002797D01*
X0026Y011774D02*
Y012167D01*
X008586Y01625D02*
X00898D01*
X008783Y016053D02*
Y016447D01*
X003287Y01197D02*
X00368D01*
X003484Y011774D02*
Y012167D01*
X008103Y01202D02*
X008497D01*
X0083Y011824D02*
Y012217D01*
X00417Y01197D02*
X004564D01*
X004367Y011774D02*
Y012167D01*
X008984Y01202D02*
X009378D01*
X009181Y011824D02*
Y012217D01*
X009865Y01202D02*
X010259D01*
X010062Y011824D02*
Y012217D01*
X01995Y002753D02*
Y003147D01*
X019753Y00295D02*
X020147D01*
X02145Y002753D02*
Y003147D01*
X021253Y00295D02*
X021647D01*
X0231Y002753D02*
Y003147D01*
X022903Y00295D02*
X023297D01*
M02*
