G04*
G04 #@! TF.GenerationSoftware,Altium Limited,Altium Designer,22.9.1 (49)*
G04*
G04 Layer_Color=16711935*
%FSTAX24Y24*%
%MOIN*%
G70*
G04*
G04 #@! TF.SameCoordinates,DC5806C5-9D72-4097-8AC5-96CD70471510*
G04*
G04*
G04 #@! TF.FilePolarity,Positive*
G04*
G01*
G75*
%ADD11C,0.0050*%
%ADD53C,0.0039*%
G36*
X011376Y002704D02*
Y000808D01*
X011023D01*
Y002704D01*
X011376D01*
D02*
G37*
G36*
X013379D02*
Y000808D01*
X013023D01*
Y002704D01*
X013379D01*
D02*
G37*
D11*
X010231D02*
Y006956D01*
X014168D01*
Y002704D02*
Y006956D01*
X010231Y002704D02*
X014168D01*
D53*
X017872Y002694D02*
Y003206D01*
X018659Y002694D02*
Y003206D01*
X017872D02*
X018659D01*
X017872Y002694D02*
X018659D01*
X019701Y015316D02*
X023599D01*
X019701Y019017D02*
X023599D01*
X019701Y015316D02*
Y019017D01*
X023599Y015316D02*
Y019017D01*
X014944Y012414D02*
X015456D01*
X014944Y011627D02*
X015456D01*
Y012414D01*
X014944Y011627D02*
Y012414D01*
X011554Y011646D02*
X012046D01*
X011554Y012434D02*
X012046D01*
X011554Y011646D02*
Y012434D01*
X012046Y011646D02*
Y012434D01*
X01743Y011646D02*
X017922D01*
X01743Y012434D02*
X017922D01*
X01743Y011646D02*
Y012434D01*
X017922Y011646D02*
Y012434D01*
X00498Y011596D02*
X005472D01*
X00498Y012384D02*
X005472D01*
X00498Y011596D02*
Y012384D01*
X005472Y011596D02*
Y012384D01*
X005864Y011596D02*
X006356D01*
X005864Y012384D02*
X006356D01*
X005864Y011596D02*
Y012384D01*
X006356Y011596D02*
Y012384D01*
X018264Y011646D02*
X018756D01*
X018264Y012434D02*
X018756D01*
X018264Y011646D02*
Y012434D01*
X018756Y011646D02*
Y012434D01*
X017614Y008146D02*
X018106D01*
X017614Y008934D02*
X018106D01*
X017614Y008146D02*
Y008934D01*
X018106Y008146D02*
Y008934D01*
X016614Y008146D02*
X017106D01*
X016614Y008934D02*
X017106D01*
X016614Y008146D02*
Y008934D01*
X017106Y008146D02*
Y008934D01*
X010673Y011646D02*
X011165D01*
X010673Y012434D02*
X011165D01*
X010673Y011646D02*
Y012434D01*
X011165Y011646D02*
Y012434D01*
X023505Y011646D02*
X023997D01*
X023505Y012434D02*
X023997D01*
X023505Y011646D02*
Y012434D01*
X023997Y011646D02*
Y012434D01*
X024364Y011646D02*
X024856D01*
X024364Y012434D02*
X024856D01*
X024364Y011646D02*
Y012434D01*
X024856Y011646D02*
Y012434D01*
X015444Y002104D02*
X015936D01*
X015444Y001316D02*
X015936D01*
Y002104D01*
X015444Y001316D02*
Y002104D01*
X014604Y002118D02*
X015096D01*
X014604Y00133D02*
X015096D01*
Y002118D01*
X014604Y00133D02*
Y002118D01*
X009344Y002104D02*
X009836D01*
X009344Y001316D02*
X009836D01*
Y002104D01*
X009344Y001316D02*
Y002104D01*
X008544D02*
X009036D01*
X008544Y001316D02*
X009036D01*
Y002104D01*
X008544Y001316D02*
Y002104D01*
X004804Y021182D02*
X005296D01*
X004804Y02197D02*
X005296D01*
X004804Y021182D02*
Y02197D01*
X005296Y021182D02*
Y02197D01*
X004014Y021196D02*
X004506D01*
X004014Y021984D02*
X004506D01*
X004014Y021196D02*
Y021984D01*
X004506Y021196D02*
Y021984D01*
X019564Y020896D02*
X020056D01*
X019564Y021684D02*
X020056D01*
X019564Y020896D02*
Y021684D01*
X020056Y020896D02*
Y021684D01*
X018764Y020896D02*
X019256D01*
X018764Y021684D02*
X019256D01*
X018764Y020896D02*
Y021684D01*
X019256Y020896D02*
Y021684D01*
X018116Y004837D02*
Y005663D01*
X017584Y004837D02*
Y005663D01*
X018116D01*
X017584Y004837D02*
X018116D01*
X018106Y006406D02*
Y007194D01*
X017594Y006406D02*
Y007194D01*
X018106D01*
X017594Y006406D02*
X018106D01*
X017744Y022361D02*
Y024211D01*
X023256D01*
Y022361D02*
Y024211D01*
X017744Y022361D02*
X023256D01*
X002926D02*
Y024211D01*
X008437D01*
Y022361D02*
Y024211D01*
X002926Y022361D02*
X008437D01*
X017665Y015316D02*
Y019017D01*
X013768Y015316D02*
Y019017D01*
X017665D01*
X013768Y015316D02*
X017665D01*
X020944Y011627D02*
Y012414D01*
X021456Y011627D02*
Y012414D01*
X020944Y011627D02*
X021456D01*
X020944Y012414D02*
X021456D01*
X015778Y011627D02*
Y012414D01*
X016289Y011627D02*
Y012414D01*
X015778Y011627D02*
X016289D01*
X015778Y012414D02*
X016289D01*
X021803Y011627D02*
Y012414D01*
X022314Y011627D02*
Y012414D01*
X021803Y011627D02*
X022314D01*
X021803Y012414D02*
X022314D01*
X016611Y011627D02*
Y012414D01*
X017123Y011627D02*
Y012414D01*
X016611Y011627D02*
X017123D01*
X016611Y012414D02*
X017123D01*
X022661Y011627D02*
Y012414D01*
X023173Y011627D02*
Y012414D01*
X022661Y011627D02*
X023173D01*
X022661Y012414D02*
X023173D01*
X005049Y015266D02*
Y018967D01*
X001151Y015266D02*
Y018967D01*
X005049D01*
X001151Y015266D02*
X005049D01*
X002344Y011577D02*
Y012364D01*
X002856Y011577D02*
Y012364D01*
X002344Y011577D02*
X002856D01*
X002344Y012364D02*
X002856D01*
X010732Y015266D02*
Y018967D01*
X006835Y015266D02*
Y018967D01*
X010732D01*
X006835Y015266D02*
X010732D01*
X003228Y011577D02*
Y012364D01*
X003739Y011577D02*
Y012364D01*
X003228Y011577D02*
X003739D01*
X003228Y012364D02*
X003739D01*
X008044Y011627D02*
Y012414D01*
X008556Y011627D02*
Y012414D01*
X008044Y011627D02*
X008556D01*
X008044Y012414D02*
X008556D01*
X004623Y011577D02*
Y012364D01*
X004111Y011577D02*
Y012364D01*
X004623D01*
X004111Y011577D02*
X004623D01*
X008925Y011627D02*
Y012414D01*
X009437Y011627D02*
Y012414D01*
X008925Y011627D02*
X009437D01*
X008925Y012414D02*
X009437D01*
X010318Y011627D02*
Y012414D01*
X009806Y011627D02*
Y012414D01*
X010318D01*
X009806Y011627D02*
X010318D01*
X019556Y003206D02*
X020344D01*
X019556Y002694D02*
X020344D01*
X019556D02*
Y003206D01*
X020344Y002694D02*
Y003206D01*
X021056Y002694D02*
X021844D01*
X021056Y003206D02*
X021844D01*
Y002694D02*
Y003206D01*
X021056Y002694D02*
Y003206D01*
X022706Y003206D02*
X023494D01*
X022706Y002694D02*
X023494D01*
X022706D02*
Y003206D01*
X023494Y002694D02*
Y003206D01*
M02*
