G04*
G04 #@! TF.GenerationSoftware,Altium Limited,Altium Designer,22.9.1 (49)*
G04*
G04 Layer_Color=2752767*
%FSTAX24Y24*%
%MOIN*%
G70*
G04*
G04 #@! TF.SameCoordinates,DC5806C5-9D72-4097-8AC5-96CD70471510*
G04*
G04*
G04 #@! TF.FilePolarity,Positive*
G04*
G01*
G75*
%ADD11C,0.0050*%
%ADD56C,0.0067*%
D11*
X02485Y02325D02*
Y02365D01*
X02525D01*
Y02325D01*
X02485D01*
X0007Y0008D02*
Y0012D01*
X0011D01*
Y0008D01*
X0007D01*
Y02325D02*
Y02365D01*
X0011D01*
Y02325D01*
X0007D01*
X0249Y0008D02*
Y0012D01*
X0253D01*
Y0008D01*
X0249D01*
X018532Y02285D02*
X018332Y02325D01*
X018731D01*
X018532Y02285D01*
X019319D02*
X019119Y02325D01*
X019519D01*
X019319Y02285D01*
X020894D02*
X020694Y02325D01*
X021094D01*
X020894Y02285D01*
X022469D02*
X022269Y02325D01*
X022669D01*
X022469Y02285D01*
X021681D02*
X021481Y02325D01*
X021881D01*
X021681Y02285D01*
X020106D02*
X019906Y02325D01*
X020306D01*
X020106Y02285D01*
X003713D02*
X003513Y02325D01*
X003913D01*
X003713Y02285D01*
X0045D02*
X0043Y02325D01*
X0047D01*
X0045Y02285D01*
X006075D02*
X005875Y02325D01*
X006275D01*
X006075Y02285D01*
X00765D02*
X00745Y02325D01*
X00785D01*
X00765Y02285D01*
X006863D02*
X006663Y02325D01*
X007063D01*
X006863Y02285D01*
X005288D02*
X005088Y02325D01*
X005488D01*
X005288Y02285D01*
X0247Y0193D02*
X0248Y0195D01*
X0247Y0197D01*
X0249Y0196D01*
X0251Y0197D01*
X025Y0195D01*
X0251Y0193D01*
X0249Y0194D01*
X0247Y0193D01*
Y0163D02*
X0248Y0165D01*
X0247Y0167D01*
X0249Y0166D01*
X0251Y0167D01*
X025Y0165D01*
X0251Y0163D01*
X0249Y0164D01*
X0247Y0163D01*
Y0133D02*
X0248Y0135D01*
X0247Y0137D01*
X0249Y0136D01*
X0251Y0137D01*
X025Y0135D01*
X0251Y0133D01*
X0249Y0134D01*
X0247Y0133D01*
Y0073D02*
X0248Y0075D01*
X0247Y0077D01*
X0249Y0076D01*
X0251Y0077D01*
X025Y0075D01*
X0251Y0073D01*
X0249Y0074D01*
X0247Y0073D01*
Y0043D02*
X0248Y0045D01*
X0247Y0047D01*
X0249Y0046D01*
X0251Y0047D01*
X025Y0045D01*
X0251Y0043D01*
X0249Y0044D01*
X0247Y0043D01*
X02395Y0178D02*
X02405Y018D01*
X02395Y0182D01*
X02415Y0181D01*
X02435Y0182D01*
X02425Y018D01*
X02435Y0178D01*
X02415Y0179D01*
X02395Y0178D01*
Y0148D02*
X02405Y015D01*
X02395Y0152D01*
X02415Y0151D01*
X02435Y0152D01*
X02425Y015D01*
X02435Y0148D01*
X02415Y0149D01*
X02395Y0148D01*
Y0088D02*
X02405Y009D01*
X02395Y0092D01*
X02415Y0091D01*
X02435Y0092D01*
X02425Y009D01*
X02435Y0088D01*
X02415Y0089D01*
X02395Y0088D01*
Y0058D02*
X02405Y006D01*
X02395Y0062D01*
X02415Y0061D01*
X02435Y0062D01*
X02425Y006D01*
X02435Y0058D01*
X02415Y0059D01*
X02395Y0058D01*
Y0028D02*
X02405Y003D01*
X02395Y0032D01*
X02415Y0031D01*
X02435Y0032D01*
X02425Y003D01*
X02435Y0028D01*
X02415Y0029D01*
X02395Y0028D01*
X02245Y0058D02*
X02255Y006D01*
X02245Y0062D01*
X02265Y0061D01*
X02285Y0062D01*
X02275Y006D01*
X02285Y0058D01*
X02265Y0059D01*
X02245Y0058D01*
X02095D02*
X02105Y006D01*
X02095Y0062D01*
X02115Y0061D01*
X02135Y0062D01*
X02125Y006D01*
X02135Y0058D01*
X02115Y0059D01*
X02095Y0058D01*
X0202Y0013D02*
X0203Y0015D01*
X0202Y0017D01*
X0204Y0016D01*
X0206Y0017D01*
X0205Y0015D01*
X0206Y0013D01*
X0204Y0014D01*
X0202Y0013D01*
X0187Y0193D02*
X0188Y0195D01*
X0187Y0197D01*
X0189Y0196D01*
X0191Y0197D01*
X019Y0195D01*
X0191Y0193D01*
X0189Y0194D01*
X0187Y0193D01*
Y0163D02*
X0188Y0165D01*
X0187Y0167D01*
X0189Y0166D01*
X0191Y0167D01*
X019Y0165D01*
X0191Y0163D01*
X0189Y0164D01*
X0187Y0163D01*
Y0133D02*
X0188Y0135D01*
X0187Y0137D01*
X0189Y0136D01*
X0191Y0137D01*
X019Y0135D01*
X0191Y0133D01*
X0189Y0134D01*
X0187Y0133D01*
X01945Y0058D02*
X01955Y006D01*
X01945Y0062D01*
X01965Y0061D01*
X01985Y0062D01*
X01975Y006D01*
X01985Y0058D01*
X01965Y0059D01*
X01945Y0058D01*
X01795Y0208D02*
X01805Y021D01*
X01795Y0212D01*
X01815Y0211D01*
X01835Y0212D01*
X01825Y021D01*
X01835Y0208D01*
X01815Y0209D01*
X01795Y0208D01*
Y0178D02*
X01805Y018D01*
X01795Y0182D01*
X01815Y0181D01*
X01835Y0182D01*
X01825Y018D01*
X01835Y0178D01*
X01815Y0179D01*
X01795Y0178D01*
Y0148D02*
X01805Y015D01*
X01795Y0152D01*
X01815Y0151D01*
X01835Y0152D01*
X01825Y015D01*
X01835Y0148D01*
X01815Y0149D01*
X01795Y0148D01*
X0172Y0013D02*
X0173Y0015D01*
X0172Y0017D01*
X0174Y0016D01*
X0176Y0017D01*
X0175Y0015D01*
X0176Y0013D01*
X0174Y0014D01*
X0172Y0013D01*
X0142Y0223D02*
X0143Y0225D01*
X0142Y0227D01*
X0144Y0226D01*
X0146Y0227D01*
X0145Y0225D01*
X0146Y0223D01*
X0144Y0224D01*
X0142Y0223D01*
X01495Y0058D02*
X01505Y006D01*
X01495Y0062D01*
X01515Y0061D01*
X01535Y0062D01*
X01525Y006D01*
X01535Y0058D01*
X01515Y0059D01*
X01495Y0058D01*
X0127Y0223D02*
X0128Y0225D01*
X0127Y0227D01*
X0129Y0226D01*
X0131Y0227D01*
X013Y0225D01*
X0131Y0223D01*
X0129Y0224D01*
X0127Y0223D01*
X01345Y0208D02*
X01355Y021D01*
X01345Y0212D01*
X01365Y0211D01*
X01385Y0212D01*
X01375Y021D01*
X01385Y0208D01*
X01365Y0209D01*
X01345Y0208D01*
X0127Y0193D02*
X0128Y0195D01*
X0127Y0197D01*
X0129Y0196D01*
X0131Y0197D01*
X013Y0195D01*
X0131Y0193D01*
X0129Y0194D01*
X0127Y0193D01*
Y0163D02*
X0128Y0165D01*
X0127Y0167D01*
X0129Y0166D01*
X0131Y0167D01*
X013Y0165D01*
X0131Y0163D01*
X0129Y0164D01*
X0127Y0163D01*
Y0133D02*
X0128Y0135D01*
X0127Y0137D01*
X0129Y0136D01*
X0131Y0137D01*
X013Y0135D01*
X0131Y0133D01*
X0129Y0134D01*
X0127Y0133D01*
X01345Y0118D02*
X01355Y012D01*
X01345Y0122D01*
X01365Y0121D01*
X01385Y0122D01*
X01375Y012D01*
X01385Y0118D01*
X01365Y0119D01*
X01345Y0118D01*
Y0028D02*
X01355Y003D01*
X01345Y0032D01*
X01365Y0031D01*
X01385Y0032D01*
X01375Y003D01*
X01385Y0028D01*
X01365Y0029D01*
X01345Y0028D01*
X0112Y0223D02*
X0113Y0225D01*
X0112Y0227D01*
X0114Y0226D01*
X0116Y0227D01*
X0115Y0225D01*
X0116Y0223D01*
X0114Y0224D01*
X0112Y0223D01*
X01195Y0208D02*
X01205Y021D01*
X01195Y0212D01*
X01215Y0211D01*
X01235Y0212D01*
X01225Y021D01*
X01235Y0208D01*
X01215Y0209D01*
X01195Y0208D01*
X0112Y0193D02*
X0113Y0195D01*
X0112Y0197D01*
X0114Y0196D01*
X0116Y0197D01*
X0115Y0195D01*
X0116Y0193D01*
X0114Y0194D01*
X0112Y0193D01*
X01195Y0178D02*
X01205Y018D01*
X01195Y0182D01*
X01215Y0181D01*
X01235Y0182D01*
X01225Y018D01*
X01235Y0178D01*
X01215Y0179D01*
X01195Y0178D01*
X0112Y0163D02*
X0113Y0165D01*
X0112Y0167D01*
X0114Y0166D01*
X0116Y0167D01*
X0115Y0165D01*
X0116Y0163D01*
X0114Y0164D01*
X0112Y0163D01*
X01195Y0148D02*
X01205Y015D01*
X01195Y0152D01*
X01215Y0151D01*
X01235Y0152D01*
X01225Y015D01*
X01235Y0148D01*
X01215Y0149D01*
X01195Y0148D01*
X0112Y0133D02*
X0113Y0135D01*
X0112Y0137D01*
X0114Y0136D01*
X0116Y0137D01*
X0115Y0135D01*
X0116Y0133D01*
X0114Y0134D01*
X0112Y0133D01*
X01195Y0028D02*
X01205Y003D01*
X01195Y0032D01*
X01215Y0031D01*
X01235Y0032D01*
X01225Y003D01*
X01235Y0028D01*
X01215Y0029D01*
X01195Y0028D01*
X0097Y0223D02*
X0098Y0225D01*
X0097Y0227D01*
X0099Y0226D01*
X0101Y0227D01*
X01Y0225D01*
X0101Y0223D01*
X0099Y0224D01*
X0097Y0223D01*
X01045Y0208D02*
X01055Y021D01*
X01045Y0212D01*
X01065Y0211D01*
X01085Y0212D01*
X01075Y021D01*
X01085Y0208D01*
X01065Y0209D01*
X01045Y0208D01*
Y0028D02*
X01055Y003D01*
X01045Y0032D01*
X01065Y0031D01*
X01085Y0032D01*
X01075Y003D01*
X01085Y0028D01*
X01065Y0029D01*
X01045Y0028D01*
X0082Y0043D02*
X0083Y0045D01*
X0082Y0047D01*
X0084Y0046D01*
X0086Y0047D01*
X0085Y0045D01*
X0086Y0043D01*
X0084Y0044D01*
X0082Y0043D01*
X00895Y0028D02*
X00905Y003D01*
X00895Y0032D01*
X00915Y0031D01*
X00935Y0032D01*
X00925Y003D01*
X00935Y0028D01*
X00915Y0029D01*
X00895Y0028D01*
X0067Y0073D02*
X0068Y0075D01*
X0067Y0077D01*
X0069Y0076D01*
X0071Y0077D01*
X007Y0075D01*
X0071Y0073D01*
X0069Y0074D01*
X0067Y0073D01*
Y0043D02*
X0068Y0045D01*
X0067Y0047D01*
X0069Y0046D01*
X0071Y0047D01*
X007Y0045D01*
X0071Y0043D01*
X0069Y0044D01*
X0067Y0043D01*
X00595Y0178D02*
X00605Y018D01*
X00595Y0182D01*
X00615Y0181D01*
X00635Y0182D01*
X00625Y018D01*
X00635Y0178D01*
X00615Y0179D01*
X00595Y0178D01*
Y0148D02*
X00605Y015D01*
X00595Y0152D01*
X00615Y0151D01*
X00635Y0152D01*
X00625Y015D01*
X00635Y0148D01*
X00615Y0149D01*
X00595Y0148D01*
X0052Y0133D02*
X0053Y0135D01*
X0052Y0137D01*
X0054Y0136D01*
X0056Y0137D01*
X0055Y0135D01*
X0056Y0133D01*
X0054Y0134D01*
X0052Y0133D01*
X00595Y0088D02*
X00605Y009D01*
X00595Y0092D01*
X00615Y0091D01*
X00635Y0092D01*
X00625Y009D01*
X00635Y0088D01*
X00615Y0089D01*
X00595Y0088D01*
X0052Y0043D02*
X0053Y0045D01*
X0052Y0047D01*
X0054Y0046D01*
X0056Y0047D01*
X0055Y0045D01*
X0056Y0043D01*
X0054Y0044D01*
X0052Y0043D01*
X00595Y0028D02*
X00605Y003D01*
X00595Y0032D01*
X00615Y0031D01*
X00635Y0032D01*
X00625Y003D01*
X00635Y0028D01*
X00615Y0029D01*
X00595Y0028D01*
X0052Y0013D02*
X0053Y0015D01*
X0052Y0017D01*
X0054Y0016D01*
X0056Y0017D01*
X0055Y0015D01*
X0056Y0013D01*
X0054Y0014D01*
X0052Y0013D01*
X00445Y0088D02*
X00455Y009D01*
X00445Y0092D01*
X00465Y0091D01*
X00485Y0092D01*
X00475Y009D01*
X00485Y0088D01*
X00465Y0089D01*
X00445Y0088D01*
Y0028D02*
X00455Y003D01*
X00445Y0032D01*
X00465Y0031D01*
X00485Y0032D01*
X00475Y003D01*
X00485Y0028D01*
X00465Y0029D01*
X00445Y0028D01*
X0022Y0223D02*
X0023Y0225D01*
X0022Y0227D01*
X0024Y0226D01*
X0026Y0227D01*
X0025Y0225D01*
X0026Y0223D01*
X0024Y0224D01*
X0022Y0223D01*
X00295Y0088D02*
X00305Y009D01*
X00295Y0092D01*
X00315Y0091D01*
X00335Y0092D01*
X00325Y009D01*
X00335Y0088D01*
X00315Y0089D01*
X00295Y0088D01*
X0022Y0073D02*
X0023Y0075D01*
X0022Y0077D01*
X0024Y0076D01*
X0026Y0077D01*
X0025Y0075D01*
X0026Y0073D01*
X0024Y0074D01*
X0022Y0073D01*
Y0043D02*
X0023Y0045D01*
X0022Y0047D01*
X0024Y0046D01*
X0026Y0047D01*
X0025Y0045D01*
X0026Y0043D01*
X0024Y0044D01*
X0022Y0043D01*
Y0013D02*
X0023Y0015D01*
X0022Y0017D01*
X0024Y0016D01*
X0026Y0017D01*
X0025Y0015D01*
X0026Y0013D01*
X0024Y0014D01*
X0022Y0013D01*
X00145Y0208D02*
X00155Y021D01*
X00145Y0212D01*
X00165Y0211D01*
X00185Y0212D01*
X00175Y021D01*
X00185Y0208D01*
X00165Y0209D01*
X00145Y0208D01*
X0007Y0103D02*
X0008Y0105D01*
X0007Y0107D01*
X0009Y0106D01*
X0011Y0107D01*
X001Y0105D01*
X0011Y0103D01*
X0009Y0104D01*
X0007Y0103D01*
X00145Y0088D02*
X00155Y009D01*
X00145Y0092D01*
X00165Y0091D01*
X00185Y0092D01*
X00175Y009D01*
X00185Y0088D01*
X00165Y0089D01*
X00145Y0088D01*
X0007Y0073D02*
X0008Y0075D01*
X0007Y0077D01*
X0009Y0076D01*
X0011Y0077D01*
X001Y0075D01*
X0011Y0073D01*
X0009Y0074D01*
X0007Y0073D01*
X00145Y0058D02*
X00155Y006D01*
X00145Y0062D01*
X00165Y0061D01*
X00185Y0062D01*
X00175Y006D01*
X00185Y0058D01*
X00165Y0059D01*
X00145Y0058D01*
X0007Y0043D02*
X0008Y0045D01*
X0007Y0047D01*
X0009Y0046D01*
X0011Y0047D01*
X001Y0045D01*
X0011Y0043D01*
X0009Y0044D01*
X0007Y0043D01*
X00145Y0028D02*
X00155Y003D01*
X00145Y0032D01*
X00165Y0031D01*
X00185Y0032D01*
X00175Y003D01*
X00185Y0028D01*
X00165Y0029D01*
X00145Y0028D01*
X02055Y00335D02*
X02065Y00345D01*
X02075D01*
X02065Y00355D01*
X02075Y00365D01*
X02065D01*
X02055Y00375D01*
X02045Y00365D01*
X02035D01*
X02045Y00355D01*
X02035Y00345D01*
X02045D01*
X02055Y00335D01*
X0157Y0028D02*
X0158Y0029D01*
X0159D01*
X0158Y003D01*
X0159Y0031D01*
X0158D01*
X0157Y0032D01*
X0156Y0031D01*
X0155D01*
X0156Y003D01*
X0155Y0029D01*
X0156D01*
X0157Y0028D01*
X017165Y00275D02*
X017265Y00285D01*
X017365D01*
X017265Y00295D01*
X017365Y00305D01*
X017265D01*
X017165Y00315D01*
X017065Y00305D01*
X016965D01*
X017065Y00295D01*
X016965Y00285D01*
X017065D01*
X017165Y00275D01*
X02345Y0035D02*
X02355Y0036D01*
X02365D01*
X02355Y0037D01*
X02365Y0038D01*
X02355D01*
X02345Y0039D01*
X02335Y0038D01*
X02325D01*
X02335Y0037D01*
X02325Y0036D01*
X02335D01*
X02345Y0035D01*
X00585Y0208D02*
X00595Y0209D01*
X00605D01*
X00595Y021D01*
X00605Y0211D01*
X00595D01*
X00585Y0212D01*
X00575Y0211D01*
X00565D01*
X00575Y021D01*
X00565Y0209D01*
X00575D01*
X00585Y0208D01*
X0177Y0214D02*
X0178Y0215D01*
X0179D01*
X0178Y0216D01*
X0179Y0217D01*
X0178D01*
X0177Y0218D01*
X0176Y0217D01*
X0175D01*
X0176Y0216D01*
X0175Y0215D01*
X0176D01*
X0177Y0214D01*
X02365Y00955D02*
X02375Y00965D01*
X02385D01*
X02375Y00975D01*
X02385Y00985D01*
X02375D01*
X02365Y00995D01*
X02355Y00985D01*
X02345D01*
X02355Y00975D01*
X02345Y00965D01*
X02355D01*
X02365Y00955D01*
X0178Y0101D02*
X0179Y0102D01*
X018D01*
X0179Y0103D01*
X018Y0104D01*
X0179D01*
X0178Y0105D01*
X0177Y0104D01*
X0176D01*
X0177Y0103D01*
X0176Y0102D01*
X0177D01*
X0178Y0101D01*
X0188Y0107D02*
X0189Y0108D01*
X019D01*
X0189Y0109D01*
X019Y011D01*
X0189D01*
X0188Y0111D01*
X0187Y011D01*
X0186D01*
X0187Y0109D01*
X0186Y0108D01*
X0187D01*
X0188Y0107D01*
X01585Y0088D02*
X01595Y0089D01*
X01605D01*
X01595Y009D01*
X01605Y0091D01*
X01595D01*
X01585Y0092D01*
X01575Y0091D01*
X01565D01*
X01575Y009D01*
X01565Y0089D01*
X01575D01*
X01585Y0088D01*
X00785D02*
X00795Y0089D01*
X00805D01*
X00795Y009D01*
X00805Y0091D01*
X00795D01*
X00785Y0092D01*
X00775Y0091D01*
X00765D01*
X00775Y009D01*
X00765Y0089D01*
X00775D01*
X00785Y0088D01*
X0092Y0084D02*
X0093Y0085D01*
X0094D01*
X0093Y0086D01*
X0094Y0087D01*
X0093D01*
X0092Y0088D01*
X0091Y0087D01*
X009D01*
X0091Y0086D01*
X009Y0085D01*
X0091D01*
X0092Y0084D01*
Y0078D02*
X0093Y0079D01*
X0094D01*
X0093Y008D01*
X0094Y0081D01*
X0093D01*
X0092Y0082D01*
X0091Y0081D01*
X009D01*
X0091Y008D01*
X009Y0079D01*
X0091D01*
X0092Y0078D01*
Y0072D02*
X0093Y0073D01*
X0094D01*
X0093Y0074D01*
X0094Y0075D01*
X0093D01*
X0092Y0076D01*
X0091Y0075D01*
X009D01*
X0091Y0074D01*
X009Y0073D01*
X0091D01*
X0092Y0072D01*
X00675Y0107D02*
X00685Y0108D01*
X00695D01*
X00685Y0109D01*
X00695Y011D01*
X00685D01*
X00675Y0111D01*
X00665Y011D01*
X00655D01*
X00665Y0109D01*
X00655Y0108D01*
X00665D01*
X00675Y0107D01*
X0101Y01D02*
X0102Y0101D01*
X0103D01*
X0102Y0102D01*
X0103Y0103D01*
X0102D01*
X0101Y0104D01*
X01Y0103D01*
X0099D01*
X01Y0102D01*
X0099Y0101D01*
X01D01*
X0101Y01D01*
X0221Y0093D02*
X0222Y0094D01*
X0223D01*
X0222Y0095D01*
X0223Y0096D01*
X0222D01*
X0221Y0097D01*
X022Y0096D01*
X0219D01*
X022Y0095D01*
X0219Y0094D01*
X022D01*
X0221Y0093D01*
X0168Y0101D02*
X0169Y0102D01*
X017D01*
X0169Y0103D01*
X017Y0104D01*
X0169D01*
X0168Y0105D01*
X0167Y0104D01*
X0166D01*
X0167Y0103D01*
X0166Y0102D01*
X0167D01*
X0168Y0101D01*
X0073Y0107D02*
X0074Y0108D01*
X0075D01*
X0074Y0109D01*
X0075Y011D01*
X0074D01*
X0073Y0111D01*
X0072Y011D01*
X0071D01*
X0072Y0109D01*
X0071Y0108D01*
X0072D01*
X0073Y0107D01*
X0027Y01065D02*
X0028Y01075D01*
X0029D01*
X0028Y01085D01*
X0029Y01095D01*
X0028D01*
X0027Y01105D01*
X0026Y01095D01*
X0025D01*
X0026Y01085D01*
X0025Y01075D01*
X0026D01*
X0027Y01065D01*
X00155Y0101D02*
X00165Y0102D01*
X00175D01*
X00165Y0103D01*
X00175Y0104D01*
X00165D01*
X00155Y0105D01*
X00145Y0104D01*
X00135D01*
X00145Y0103D01*
X00135Y0102D01*
X00145D01*
X00155Y0101D01*
X00345Y01025D02*
X00355Y01035D01*
X00365D01*
X00355Y01045D01*
X00365Y01055D01*
X00355D01*
X00345Y01065D01*
X00335Y01055D01*
X00325D01*
X00335Y01045D01*
X00325Y01035D01*
X00335D01*
X00345Y01025D01*
X0039Y02D02*
X004Y0201D01*
X0041D01*
X004Y0202D01*
X0041Y0203D01*
X004D01*
X0039Y0204D01*
X0038Y0203D01*
X0037D01*
X0038Y0202D01*
X0037Y0201D01*
X0038D01*
X0039Y02D01*
X0071Y00305D02*
X0072Y00315D01*
X0073D01*
X0072Y00325D01*
X0073Y00335D01*
X0072D01*
X0071Y00345D01*
X007Y00335D01*
X0069D01*
X007Y00325D01*
X0069Y00315D01*
X007D01*
X0071Y00305D01*
X0152Y00685D02*
X0153Y00695D01*
X0154D01*
X0153Y00705D01*
X0154Y00715D01*
X0153D01*
X0152Y00725D01*
X0151Y00715D01*
X015D01*
X0151Y00705D01*
X015Y00695D01*
X0151D01*
X0152Y00685D01*
X01685D02*
X01695Y00695D01*
X01705D01*
X01695Y00705D01*
X01705Y00715D01*
X01695D01*
X01685Y00725D01*
X01675Y00715D01*
X01665D01*
X01675Y00705D01*
X01665Y00695D01*
X01675D01*
X01685Y00685D01*
X02015D02*
X02025Y00695D01*
X02035D01*
X02025Y00705D01*
X02035Y00715D01*
X02025D01*
X02015Y00725D01*
X02005Y00715D01*
X01995D01*
X02005Y00705D01*
X01995Y00695D01*
X02005D01*
X02015Y00685D01*
X02Y0107D02*
X0201Y0108D01*
X0202D01*
X0201Y0109D01*
X0202Y011D01*
X0201D01*
X02Y0111D01*
X0199Y011D01*
X0198D01*
X0199Y0109D01*
X0198Y0108D01*
X0199D01*
X02Y0107D01*
X02015Y01215D02*
X02025Y01225D01*
X02035D01*
X02025Y01235D01*
X02035Y01245D01*
X02025D01*
X02015Y01255D01*
X02005Y01245D01*
X01995D01*
X02005Y01235D01*
X01995Y01225D01*
X02005D01*
X02015Y01215D01*
X014217Y012183D02*
X014317Y012283D01*
X014417D01*
X014317Y012383D01*
X014417Y012483D01*
X014317D01*
X014217Y012583D01*
X014117Y012483D01*
X014017D01*
X014117Y012383D01*
X014017Y012283D01*
X014117D01*
X014217Y012183D01*
X0016Y01225D02*
X0017Y01235D01*
X0018D01*
X0017Y01245D01*
X0018Y01255D01*
X0017D01*
X0016Y01265D01*
X0015Y01255D01*
X0014D01*
X0015Y01245D01*
X0014Y01235D01*
X0015D01*
X0016Y01225D01*
X007283Y012233D02*
X007383Y012333D01*
X007483D01*
X007383Y012433D01*
X007483Y012533D01*
X007383D01*
X007283Y012633D01*
X007183Y012533D01*
X007083D01*
X007183Y012433D01*
X007083Y012333D01*
X007183D01*
X007283Y012233D01*
X01945Y0107D02*
X01955Y0108D01*
X01965D01*
X01955Y0109D01*
X01965Y011D01*
X01955D01*
X01945Y0111D01*
X01935Y011D01*
X01925D01*
X01935Y0109D01*
X01925Y0108D01*
X01935D01*
X01945Y0107D01*
X0092Y0065D02*
X0093Y0066D01*
X0094D01*
X0093Y0067D01*
X0094Y0068D01*
X0093D01*
X0092Y0069D01*
X0091Y0068D01*
X009D01*
X0091Y0067D01*
X009Y0066D01*
X0091D01*
X0092Y0065D01*
X012Y0107D02*
X0121Y0108D01*
X0122D01*
X0121Y0109D01*
X0122Y011D01*
X0121D01*
X012Y0111D01*
X0119Y011D01*
X0118D01*
X0119Y0109D01*
X0118Y0108D01*
X0119D01*
X012Y0107D01*
X0134D02*
X0135Y0108D01*
X0136D01*
X0135Y0109D01*
X0136Y011D01*
X0135D01*
X0134Y0111D01*
X0133Y011D01*
X0132D01*
X0133Y0109D01*
X0132Y0108D01*
X0133D01*
X0134Y0107D01*
X0127D02*
X0128Y0108D01*
X0129D01*
X0128Y0109D01*
X0129Y011D01*
X0128D01*
X0127Y0111D01*
X0126Y011D01*
X0125D01*
X0126Y0109D01*
X0125Y0108D01*
X0126D01*
X0127Y0107D01*
X024775D02*
X024875Y0108D01*
X024975D01*
X024875Y0109D01*
X024975Y011D01*
X024875D01*
X024775Y0111D01*
X024675Y011D01*
X024575D01*
X024675Y0109D01*
X024575Y0108D01*
X024675D01*
X024775Y0107D01*
X0241D02*
X0242Y0108D01*
X0243D01*
X0242Y0109D01*
X0243Y011D01*
X0242D01*
X0241Y0111D01*
X024Y011D01*
X0239D01*
X024Y0109D01*
X0239Y0108D01*
X024D01*
X0241Y0107D01*
X02545D02*
X02555Y0108D01*
X02565D01*
X02555Y0109D01*
X02565Y011D01*
X02555D01*
X02545Y0111D01*
X02535Y011D01*
X02525D01*
X02535Y0109D01*
X02525Y0108D01*
X02535D01*
X02545Y0107D01*
D56*
X021966Y0011D02*
G03*
X021966Y0011I-0002J0D01*
G01*
X02295D02*
G03*
X02295Y0011I-0002J0D01*
G01*
X018816D02*
G03*
X018816Y0011I-0002J0D01*
G01*
X0198D02*
G03*
X0198Y0011I-0002J0D01*
G01*
X006766Y0208D02*
G03*
X006766Y0208I-0002J0D01*
G01*
X00775D02*
G03*
X00775Y0208I-0002J0D01*
G01*
X0216Y02075D02*
G03*
X0216Y02075I-0002J0D01*
G01*
X022584D02*
G03*
X022584Y02075I-0002J0D01*
G01*
X0043Y00195D02*
G03*
X0043Y00195I-0002J0D01*
G01*
X0073D02*
G03*
X0073Y00195I-0002J0D01*
G01*
M02*
