G04*
G04 #@! TF.GenerationSoftware,Altium Limited,Altium Designer,22.9.1 (49)*
G04*
G04 Layer_Color=65535*
%FSTAX24Y24*%
%MOIN*%
G70*
G04*
G04 #@! TF.SameCoordinates,DC5806C5-9D72-4097-8AC5-96CD70471510*
G04*
G04*
G04 #@! TF.FilePolarity,Positive*
G04*
G01*
G75*
%ADD10C,0.0098*%
%ADD11C,0.0050*%
%ADD12C,0.0197*%
%ADD13C,0.0060*%
%ADD14C,0.0079*%
%ADD15C,0.0100*%
D10*
X019815Y013938D02*
G03*
X019815Y013938I-000049J0D01*
G01*
X02403Y0011D02*
G03*
X02403Y0011I-000049J0D01*
G01*
X02088D02*
G03*
X02088Y0011I-000049J0D01*
G01*
X022518Y022144D02*
G03*
X022518Y022144I-000049J0D01*
G01*
X00883Y0208D02*
G03*
X00883Y0208I-000049J0D01*
G01*
X023664Y02075D02*
G03*
X023664Y02075I-000049J0D01*
G01*
X007699Y022144D02*
G03*
X007699Y022144I-000049J0D01*
G01*
X013882Y013938D02*
G03*
X013882Y013938I-000049J0D01*
G01*
X019149Y004064D02*
G03*
X019149Y004064I-000049J0D01*
G01*
X001265Y013888D02*
G03*
X001265Y013888I-000049J0D01*
G01*
X006949D02*
G03*
X006949Y013888I-000049J0D01*
G01*
D11*
X0107Y001543D02*
G03*
X0107Y001543I-00005J0D01*
G01*
X014168Y002704D02*
Y003053D01*
X010231Y002704D02*
X014168D01*
X010231D02*
Y003053D01*
X0175Y0045D02*
X0182D01*
X0175Y00595D02*
X0176Y00605D01*
X0181D02*
X0182Y00595D01*
X0176Y00605D02*
X0181D01*
X0175Y0045D02*
Y00505D01*
Y00545D02*
Y00595D01*
X0182Y0045D02*
Y00505D01*
Y00545D02*
Y00595D01*
D12*
X019224Y005807D02*
G03*
X019224Y005807I-000098J0D01*
G01*
D13*
X017616Y002596D02*
Y003304D01*
Y002596D02*
X018915D01*
Y003304D01*
X017616D02*
X018915D01*
X014846Y01267D02*
X015554D01*
X014846Y011371D02*
Y01267D01*
Y011371D02*
X015554D01*
Y01267D01*
X01147Y01147D02*
Y01267D01*
X01213D01*
Y01141D02*
Y01267D01*
X01147Y01141D02*
X01213D01*
X01147D02*
Y01147D01*
X017346D02*
Y01267D01*
X018006D01*
Y01141D02*
Y01267D01*
X017346Y01141D02*
X018006D01*
X017346D02*
Y01147D01*
X004896Y01142D02*
Y01262D01*
X005556D01*
Y01136D02*
Y01262D01*
X004896Y01136D02*
X005556D01*
X004896D02*
Y01142D01*
X00578D02*
Y01262D01*
X00644D01*
Y01136D02*
Y01262D01*
X00578Y01136D02*
X00644D01*
X00578D02*
Y01142D01*
X01818Y01147D02*
Y01267D01*
X01884D01*
Y01141D02*
Y01267D01*
X01818Y01141D02*
X01884D01*
X01818D02*
Y01147D01*
X01753Y00797D02*
Y00917D01*
X01819D01*
Y00791D02*
Y00917D01*
X01753Y00791D02*
X01819D01*
X01753D02*
Y00797D01*
X01653D02*
Y00917D01*
X01719D01*
Y00791D02*
Y00917D01*
X01653Y00791D02*
X01719D01*
X01653D02*
Y00797D01*
X010589Y01147D02*
Y01267D01*
X011249D01*
Y01141D02*
Y01267D01*
X010589Y01141D02*
X011249D01*
X010589D02*
Y01147D01*
X023421D02*
Y01267D01*
X024081D01*
Y01141D02*
Y01267D01*
X023421Y01141D02*
X024081D01*
X023421D02*
Y01147D01*
X02428D02*
Y01267D01*
X02494D01*
Y01141D02*
Y01267D01*
X02428Y01141D02*
X02494D01*
X02428D02*
Y01147D01*
X01602Y00108D02*
Y00228D01*
X01536Y00108D02*
X01602D01*
X01536D02*
Y00234D01*
X01602D01*
Y00228D02*
Y00234D01*
X01518Y001094D02*
Y002294D01*
X01452Y001094D02*
X01518D01*
X01452D02*
Y002354D01*
X01518D01*
Y002294D02*
Y002354D01*
X00992Y00108D02*
Y00228D01*
X00926Y00108D02*
X00992D01*
X00926D02*
Y00234D01*
X00992D01*
Y00228D02*
Y00234D01*
X00912Y00108D02*
Y00228D01*
X00846Y00108D02*
X00912D01*
X00846D02*
Y00234D01*
X00912D01*
Y00228D02*
Y00234D01*
X00472Y021006D02*
Y022206D01*
X00538D01*
Y020946D02*
Y022206D01*
X00472Y020946D02*
X00538D01*
X00472D02*
Y021006D01*
X00393Y02102D02*
Y02222D01*
X00459D01*
Y02096D02*
Y02222D01*
X00393Y02096D02*
X00459D01*
X00393D02*
Y02102D01*
X01948Y02072D02*
Y02192D01*
X02014D01*
Y02066D02*
Y02192D01*
X01948Y02066D02*
X02014D01*
X01948D02*
Y02072D01*
X01868D02*
Y02192D01*
X01934D01*
Y02066D02*
Y02192D01*
X01868Y02066D02*
X01934D01*
X01868D02*
Y02072D01*
X017496Y00615D02*
Y00745D01*
X018204D01*
Y00615D02*
Y00745D01*
X017496Y00615D02*
X018204D01*
X021554Y011371D02*
Y01267D01*
X020846Y011371D02*
X021554D01*
X020846D02*
Y01267D01*
X021554D01*
X016388Y011371D02*
Y01267D01*
X015679Y011371D02*
X016388D01*
X015679D02*
Y01267D01*
X016388D01*
X022413Y011371D02*
Y01267D01*
X021704Y011371D02*
X022413D01*
X021704D02*
Y01267D01*
X022413D01*
X017221Y011371D02*
Y01267D01*
X016513Y011371D02*
X017221D01*
X016513D02*
Y01267D01*
X017221D01*
X023271Y011371D02*
Y01267D01*
X022563Y011371D02*
X023271D01*
X022563D02*
Y01267D01*
X023271D01*
X002954Y011321D02*
Y01262D01*
X002246Y011321D02*
X002954D01*
X002246D02*
Y01262D01*
X002954D01*
X003838Y011321D02*
Y01262D01*
X003129Y011321D02*
X003838D01*
X003129D02*
Y01262D01*
X003838D01*
X008654Y011371D02*
Y01267D01*
X007946Y011371D02*
X008654D01*
X007946D02*
Y01267D01*
X008654D01*
X004013Y011321D02*
Y01262D01*
X004721D01*
Y011321D02*
Y01262D01*
X004013Y011321D02*
X004721D01*
X009535Y011371D02*
Y01267D01*
X008827Y011371D02*
X009535D01*
X008827D02*
Y01267D01*
X009535D01*
X009708Y011371D02*
Y01267D01*
X010416D01*
Y011371D02*
Y01267D01*
X009708Y011371D02*
X010416D01*
X0193Y002596D02*
X0206D01*
X0193D02*
Y003304D01*
X0206D01*
Y002596D02*
Y003304D01*
X0208D02*
X0221D01*
Y002596D02*
Y003304D01*
X0208Y002596D02*
X0221D01*
X0208D02*
Y003304D01*
X02245Y002596D02*
X02375D01*
X02245D02*
Y003304D01*
X02375D01*
Y002596D02*
Y003304D01*
X007914Y005106D02*
X007503D01*
X007709Y005311D02*
Y0049D01*
X003764Y005156D02*
X003353D01*
X003559Y005361D02*
Y00495D01*
X005764Y005156D02*
X005353D01*
X005559Y005361D02*
Y00495D01*
D14*
X006814Y006079D02*
Y007536D01*
X007129Y005764D02*
X007267D01*
X006814Y006079D02*
X007129Y005764D01*
X006814Y007536D02*
X007267D01*
X008133D02*
X008586D01*
X008271Y005764D02*
X008586Y006079D01*
X008133Y005764D02*
X008271D01*
X008586Y006079D02*
Y007536D01*
X019701Y015316D02*
Y015847D01*
Y015316D02*
X023599D01*
Y015847D01*
X004436Y006129D02*
Y007586D01*
X004121Y005814D02*
X004436Y006129D01*
X002664D02*
X002979Y005814D01*
X002664Y006129D02*
Y007586D01*
X003983D02*
X004436D01*
X002664D02*
X003117D01*
X003983Y005814D02*
X004121D01*
X002979D02*
X003117D01*
X023715Y000175D02*
Y002439D01*
X020801D02*
X023715D01*
X020801Y000175D02*
Y002439D01*
Y000175D02*
X023715D01*
X020565D02*
Y002439D01*
X017651D02*
X020565D01*
X017651Y000175D02*
Y002439D01*
Y000175D02*
X020565D01*
X017685Y022322D02*
X023315D01*
Y024251D01*
X017685D02*
X023315D01*
X017685Y022322D02*
Y024251D01*
X008515Y019875D02*
Y022139D01*
X005601D02*
X008515D01*
X005601Y019875D02*
Y022139D01*
Y019875D02*
X008515D01*
X023349Y019825D02*
Y022089D01*
X020435D02*
X023349D01*
X020435Y019825D02*
Y022089D01*
Y019825D02*
X023349D01*
X002867Y022322D02*
X008496D01*
Y024251D01*
X002867D02*
X008496D01*
X002867Y022322D02*
Y024251D01*
X017665Y015316D02*
Y015847D01*
X013768Y015316D02*
X017665D01*
X013768D02*
Y015847D01*
X006436Y006129D02*
Y007586D01*
X005983Y005814D02*
X006121D01*
X006436Y006129D01*
X005983Y007586D02*
X006436D01*
X004664D02*
X005117D01*
X004664Y006129D02*
X004979Y005814D01*
X005117D01*
X004664Y006129D02*
Y007586D01*
X007911Y0001D02*
Y004824D01*
X00282Y0001D02*
Y004824D01*
Y0001D02*
X007911D01*
X00282Y004824D02*
X007911D01*
X01883Y005512D02*
X02387D01*
Y007688D01*
X01883D02*
X02387D01*
X01883Y005512D02*
Y007688D01*
X005049Y015266D02*
Y015797D01*
X001151Y015266D02*
X005049D01*
X001151D02*
Y015797D01*
X010732Y015266D02*
Y015797D01*
X006835Y015266D02*
X010732D01*
X006835D02*
Y015797D01*
D15*
X0116Y0083D02*
Y0078D01*
X0117Y0077D01*
X0119D01*
X012Y0078D01*
Y0083D01*
X0122Y0077D02*
X0124D01*
X0123D01*
Y0083D01*
X0122Y0082D01*
X00515Y01005D02*
X00505Y00995D01*
Y00975D01*
X00515Y00965D01*
X00555D01*
X00565Y00975D01*
Y00995D01*
X00555Y01005D01*
X00565Y01065D02*
Y01025D01*
X00525Y01065D01*
X00515D01*
X00505Y01055D01*
Y01035D01*
X00515Y01025D01*
X00565Y01085D02*
Y01105D01*
Y01095D01*
X00505D01*
X00515Y01085D01*
X00595Y01005D02*
X00585Y00995D01*
Y00975D01*
X00595Y00965D01*
X00635D01*
X00645Y00975D01*
Y00995D01*
X00635Y01005D01*
X00645Y01065D02*
Y01025D01*
X00605Y01065D01*
X00595D01*
X00585Y01055D01*
Y01035D01*
X00595Y01025D01*
Y01085D02*
X00585Y01095D01*
Y01115D01*
X00595Y01125D01*
X00635D01*
X00645Y01115D01*
Y01095D01*
X00635Y01085D01*
X00595D01*
X01745Y0101D02*
X01735Y01D01*
Y0098D01*
X01745Y0097D01*
X01785D01*
X01795Y0098D01*
Y01D01*
X01785Y0101D01*
X01795Y0103D02*
Y0105D01*
Y0104D01*
X01735D01*
X01745Y0103D01*
X01785Y0108D02*
X01795Y0109D01*
Y0111D01*
X01785Y0112D01*
X01745D01*
X01735Y0111D01*
Y0109D01*
X01745Y0108D01*
X01755D01*
X01765Y0109D01*
Y0112D01*
X01155Y01015D02*
X01145Y01005D01*
Y00985D01*
X01155Y00975D01*
X01195D01*
X01205Y00985D01*
Y01005D01*
X01195Y01015D01*
X01205Y01035D02*
Y01055D01*
Y01045D01*
X01145D01*
X01155Y01035D01*
X01205Y01115D02*
X01145D01*
X01175Y01085D01*
Y01125D01*
X0097Y02055D02*
Y02005D01*
X0098Y01995D01*
X01D01*
X0101Y02005D01*
Y02055D01*
X0107D02*
X0105Y02045D01*
X0103Y02025D01*
Y02005D01*
X0104Y01995D01*
X0106D01*
X0107Y02005D01*
Y02015D01*
X0106Y02025D01*
X0103D01*
X000995Y020565D02*
Y020065D01*
X001095Y019965D01*
X001295D01*
X001395Y020065D01*
Y020565D01*
X001995D02*
X001595D01*
Y020265D01*
X001795Y020365D01*
X001895D01*
X001995Y020265D01*
Y020065D01*
X001895Y019965D01*
X001695D01*
X001595Y020065D01*
X02485Y0045D02*
X02535D01*
X02545Y0046D01*
Y0048D01*
X02535Y0049D01*
X02485D01*
X02545Y0054D02*
X02485D01*
X02515Y0051D01*
Y0055D01*
X01895Y02045D02*
Y01995D01*
X01905Y01985D01*
X01925D01*
X01935Y01995D01*
Y02045D01*
X01955Y02035D02*
X01965Y02045D01*
X01985D01*
X01995Y02035D01*
Y02025D01*
X01985Y02015D01*
X01975D01*
X01985D01*
X01995Y02005D01*
Y01995D01*
X01985Y01985D01*
X01965D01*
X01955Y01995D01*
X013612Y020615D02*
Y020115D01*
X013712Y020015D01*
X013912D01*
X014012Y020115D01*
Y020615D01*
X014611Y020015D02*
X014211D01*
X014611Y020415D01*
Y020515D01*
X014511Y020615D01*
X014311D01*
X014211Y020515D01*
X02565Y0024D02*
X02505D01*
Y0027D01*
X02515Y0028D01*
X02535D01*
X02545Y0027D01*
Y0024D01*
Y0026D02*
X02565Y0028D01*
Y003D02*
Y0032D01*
Y0031D01*
X02505D01*
X02515Y003D01*
X02505Y0035D02*
Y0039D01*
X02515D01*
X02555Y0035D01*
X02565D01*
X02475Y0023D02*
X02415D01*
Y0026D01*
X02425Y0027D01*
X02445D01*
X02455Y0026D01*
Y0023D01*
Y0025D02*
X02475Y0027D01*
Y0029D02*
Y0031D01*
Y003D01*
X02415D01*
X02425Y0029D01*
X02415Y0038D02*
X02425Y0036D01*
X02445Y0034D01*
X02465D01*
X02475Y0035D01*
Y0037D01*
X02465Y0038D01*
X02455D01*
X02445Y0037D01*
Y0034D01*
X01725Y00255D02*
X01665D01*
Y00285D01*
X01675Y00295D01*
X01695D01*
X01705Y00285D01*
Y00255D01*
Y00275D02*
X01725Y00295D01*
Y00315D02*
Y00335D01*
Y00325D01*
X01665D01*
X01675Y00315D01*
X01665Y00405D02*
Y00365D01*
X01695D01*
X01685Y00385D01*
Y00395D01*
X01695Y00405D01*
X01715D01*
X01725Y00395D01*
Y00375D01*
X01715Y00365D01*
X0103Y00975D02*
X0097D01*
Y01005D01*
X0098Y01015D01*
X01D01*
X0101Y01005D01*
Y00975D01*
Y00995D02*
X0103Y01015D01*
Y01035D02*
Y01055D01*
Y01045D01*
X0097D01*
X0098Y01035D01*
X0103Y01115D02*
X0097D01*
X01Y01085D01*
Y01125D01*
X0048Y00965D02*
X0042D01*
Y00995D01*
X0043Y01005D01*
X0045D01*
X0046Y00995D01*
Y00965D01*
Y00985D02*
X0048Y01005D01*
Y01025D02*
Y01045D01*
Y01035D01*
X0042D01*
X0043Y01025D01*
Y01075D02*
X0042Y01085D01*
Y01105D01*
X0043Y01115D01*
X0044D01*
X0045Y01105D01*
Y01095D01*
Y01105D01*
X0046Y01115D01*
X0047D01*
X0048Y01105D01*
Y01085D01*
X0047Y01075D01*
X017215Y00065D02*
X016615D01*
Y00095D01*
X016715Y00105D01*
X016915D01*
X017015Y00095D01*
Y00065D01*
Y00085D02*
X017215Y00105D01*
Y00125D02*
Y00145D01*
Y00135D01*
X016615D01*
X016715Y00125D01*
X017215Y00215D02*
Y00175D01*
X016815Y00215D01*
X016715D01*
X016615Y00205D01*
Y00185D01*
X016715Y00175D01*
X0094Y0098D02*
X0088D01*
Y0101D01*
X0089Y0102D01*
X0091D01*
X0092Y0101D01*
Y0098D01*
Y01D02*
X0094Y0102D01*
Y0104D02*
Y0106D01*
Y0105D01*
X0088D01*
X0089Y0104D01*
X0094Y0109D02*
Y0111D01*
Y011D01*
X0088D01*
X0089Y0109D01*
X0039Y00965D02*
X0033D01*
Y00995D01*
X0034Y01005D01*
X0036D01*
X0037Y00995D01*
Y00965D01*
Y00985D02*
X0039Y01005D01*
Y01025D02*
Y01045D01*
Y01035D01*
X0033D01*
X0034Y01025D01*
Y01075D02*
X0033Y01085D01*
Y01105D01*
X0034Y01115D01*
X0038D01*
X0039Y01105D01*
Y01085D01*
X0038Y01075D01*
X0034D01*
X0085Y00985D02*
X0079D01*
Y01015D01*
X008Y01025D01*
X0082D01*
X0083Y01015D01*
Y00985D01*
Y01005D02*
X0085Y01025D01*
X0084Y01045D02*
X0085Y01055D01*
Y01075D01*
X0084Y01085D01*
X008D01*
X0079Y01075D01*
Y01055D01*
X008Y01045D01*
X0081D01*
X0082Y01055D01*
Y01085D01*
X0029Y00975D02*
X0023D01*
Y01005D01*
X0024Y01015D01*
X0026D01*
X0027Y01005D01*
Y00975D01*
Y00995D02*
X0029Y01015D01*
X0024Y01035D02*
X0023Y01045D01*
Y01065D01*
X0024Y01075D01*
X0025D01*
X0026Y01065D01*
X0027Y01075D01*
X0028D01*
X0029Y01065D01*
Y01045D01*
X0028Y01035D01*
X0027D01*
X0026Y01045D01*
X0025Y01035D01*
X0024D01*
X0026Y01045D02*
Y01065D01*
X02325Y00995D02*
X02265D01*
Y01025D01*
X02275Y01035D01*
X02295D01*
X02305Y01025D01*
Y00995D01*
Y01015D02*
X02325Y01035D01*
X02265Y01055D02*
Y01095D01*
X02275D01*
X02315Y01055D01*
X02325D01*
X0171Y01015D02*
X0165D01*
Y01045D01*
X0166Y01055D01*
X0168D01*
X0169Y01045D01*
Y01015D01*
Y01035D02*
X0171Y01055D01*
X0165Y01115D02*
X0166Y01095D01*
X0168Y01075D01*
X017D01*
X0171Y01085D01*
Y01105D01*
X017Y01115D01*
X0169D01*
X0168Y01105D01*
Y01075D01*
X0223Y00995D02*
X0217D01*
Y01025D01*
X0218Y01035D01*
X022D01*
X0221Y01025D01*
Y00995D01*
Y01015D02*
X0223Y01035D01*
X0217Y01095D02*
Y01055D01*
X022D01*
X0219Y01075D01*
Y01085D01*
X022Y01095D01*
X0222D01*
X0223Y01085D01*
Y01065D01*
X0222Y01055D01*
X01625Y01015D02*
X01565D01*
Y01045D01*
X01575Y01055D01*
X01595D01*
X01605Y01045D01*
Y01015D01*
Y01035D02*
X01625Y01055D01*
Y01105D02*
X01565D01*
X01595Y01075D01*
Y01115D01*
X0214Y00995D02*
X0208D01*
Y01025D01*
X0209Y01035D01*
X0211D01*
X0212Y01025D01*
Y00995D01*
Y01015D02*
X0214Y01035D01*
X0209Y01055D02*
X0208Y01065D01*
Y01085D01*
X0209Y01095D01*
X021D01*
X0211Y01085D01*
Y01075D01*
Y01085D01*
X0212Y01095D01*
X0213D01*
X0214Y01085D01*
Y01065D01*
X0213Y01055D01*
X0154Y01015D02*
X0148D01*
Y01045D01*
X0149Y01055D01*
X0151D01*
X0152Y01045D01*
Y01015D01*
Y01035D02*
X0154Y01055D01*
Y01115D02*
Y01075D01*
X015Y01115D01*
X0149D01*
X0148Y01105D01*
Y01085D01*
X0149Y01075D01*
X01725Y00645D02*
X01665D01*
Y00675D01*
X01675Y00685D01*
X01695D01*
X01705Y00675D01*
Y00645D01*
Y00665D02*
X01725Y00685D01*
Y00705D02*
Y00725D01*
Y00715D01*
X01665D01*
X01675Y00705D01*
X0166Y0051D02*
X0172D01*
Y0054D01*
X0171Y0055D01*
X0167D01*
X0166Y0054D01*
Y0051D01*
X0172Y0057D02*
Y0059D01*
Y0058D01*
X0166D01*
X0167Y0057D01*
X0183Y01005D02*
X0182Y00995D01*
Y00975D01*
X0183Y00965D01*
X0187D01*
X0188Y00975D01*
Y00995D01*
X0187Y01005D01*
X0188Y01025D02*
Y01045D01*
Y01035D01*
X0182D01*
X0183Y01025D01*
Y01075D02*
X0182Y01085D01*
Y01105D01*
X0183Y01115D01*
X0184D01*
X0185Y01105D01*
X0186Y01115D01*
X0187D01*
X0188Y01105D01*
Y01085D01*
X0187Y01075D01*
X0186D01*
X0185Y01085D01*
X0184Y01075D01*
X0183D01*
X0185Y01085D02*
Y01105D01*
X01565Y00845D02*
X01555Y00835D01*
Y00815D01*
X01565Y00805D01*
X01605D01*
X01615Y00815D01*
Y00835D01*
X01605Y00845D01*
X01615Y00865D02*
Y00885D01*
Y00875D01*
X01555D01*
X01565Y00865D01*
X01555Y00915D02*
Y00955D01*
X01565D01*
X01605Y00915D01*
X01615D01*
X01485Y0084D02*
X01475Y0083D01*
Y0081D01*
X01485Y008D01*
X01525D01*
X01535Y0081D01*
Y0083D01*
X01525Y0084D01*
X01535Y0086D02*
Y0088D01*
Y0087D01*
X01475D01*
X01485Y0086D01*
X01475Y0095D02*
X01485Y0093D01*
X01505Y0091D01*
X01525D01*
X01535Y0092D01*
Y0094D01*
X01525Y0095D01*
X01515D01*
X01505Y0094D01*
Y0091D01*
X01065Y01015D02*
X01055Y01005D01*
Y00985D01*
X01065Y00975D01*
X01105D01*
X01115Y00985D01*
Y01005D01*
X01105Y01015D01*
X01115Y01035D02*
Y01055D01*
Y01045D01*
X01055D01*
X01065Y01035D01*
X01055Y01125D02*
Y01085D01*
X01085D01*
X01075Y01105D01*
Y01115D01*
X01085Y01125D01*
X01105D01*
X01115Y01115D01*
Y01095D01*
X01105Y01085D01*
X0074Y0085D02*
X0073Y0084D01*
Y0082D01*
X0074Y0081D01*
X0078D01*
X0079Y0082D01*
Y0084D01*
X0078Y0085D01*
X0079Y0087D02*
Y0089D01*
Y0088D01*
X0073D01*
X0074Y0087D01*
Y0092D02*
X0073Y0093D01*
Y0095D01*
X0074Y0096D01*
X0075D01*
X0076Y0095D01*
Y0094D01*
Y0095D01*
X0077Y0096D01*
X0078D01*
X0079Y0095D01*
Y0093D01*
X0078Y0092D01*
X02355Y01005D02*
X02345Y00995D01*
Y00975D01*
X02355Y00965D01*
X02395D01*
X02405Y00975D01*
Y00995D01*
X02395Y01005D01*
X02405Y01025D02*
Y01045D01*
Y01035D01*
X02345D01*
X02355Y01025D01*
X02405Y01115D02*
Y01075D01*
X02365Y01115D01*
X02355D01*
X02345Y01105D01*
Y01085D01*
X02355Y01075D01*
X0245Y0102D02*
X0244Y0101D01*
Y0099D01*
X0245Y0098D01*
X0249D01*
X025Y0099D01*
Y0101D01*
X0249Y0102D01*
X025Y0104D02*
Y0106D01*
Y0105D01*
X0244D01*
X0245Y0104D01*
X025Y0109D02*
Y0111D01*
Y011D01*
X0244D01*
X0245Y0109D01*
X0157Y003D02*
X0156Y0029D01*
Y0027D01*
X0157Y0026D01*
X0161D01*
X0162Y0027D01*
Y0029D01*
X0161Y003D01*
X0162Y0032D02*
Y0034D01*
Y0033D01*
X0156D01*
X0157Y0032D01*
Y0037D02*
X0156Y0038D01*
Y004D01*
X0157Y0041D01*
X0161D01*
X0162Y004D01*
Y0038D01*
X0161Y0037D01*
X0157D01*
X01495Y00305D02*
X01485Y00295D01*
Y00275D01*
X01495Y00265D01*
X01535D01*
X01545Y00275D01*
Y00295D01*
X01535Y00305D01*
Y00325D02*
X01545Y00335D01*
Y00355D01*
X01535Y00365D01*
X01495D01*
X01485Y00355D01*
Y00335D01*
X01495Y00325D01*
X01505D01*
X01515Y00335D01*
Y00365D01*
X00905Y003D02*
X00895Y0029D01*
Y0027D01*
X00905Y0026D01*
X00945D01*
X00955Y0027D01*
Y0029D01*
X00945Y003D01*
X00905Y0032D02*
X00895Y0033D01*
Y0035D01*
X00905Y0036D01*
X00915D01*
X00925Y0035D01*
X00935Y0036D01*
X00945D01*
X00955Y0035D01*
Y0033D01*
X00945Y0032D01*
X00935D01*
X00925Y0033D01*
X00915Y0032D01*
X00905D01*
X00925Y0033D02*
Y0035D01*
X00825Y003D02*
X00815Y0029D01*
Y0027D01*
X00825Y0026D01*
X00865D01*
X00875Y0027D01*
Y0029D01*
X00865Y003D01*
X00815Y0032D02*
Y0036D01*
X00825D01*
X00865Y0032D01*
X00875D01*
X00535Y0087D02*
X00525Y0086D01*
Y0084D01*
X00535Y0083D01*
X00575D01*
X00585Y0084D01*
Y0086D01*
X00575Y0087D01*
X00525Y0093D02*
X00535Y0091D01*
X00555Y0089D01*
X00575D01*
X00585Y009D01*
Y0092D01*
X00575Y0093D01*
X00565D01*
X00555Y0092D01*
Y0089D01*
X0035Y00865D02*
X0034Y00855D01*
Y00835D01*
X0035Y00825D01*
X0039D01*
X004Y00835D01*
Y00855D01*
X0039Y00865D01*
X0034Y00925D02*
Y00885D01*
X0037D01*
X0036Y00905D01*
Y00915D01*
X0037Y00925D01*
X0039D01*
X004Y00915D01*
Y00895D01*
X0039Y00885D01*
X0031Y02145D02*
X003Y02135D01*
Y02115D01*
X0031Y02105D01*
X0035D01*
X0036Y02115D01*
Y02135D01*
X0035Y02145D01*
X0036Y02195D02*
X003D01*
X0033Y02165D01*
Y02205D01*
X00225Y0215D02*
X00215Y0214D01*
Y0212D01*
X00225Y0211D01*
X00265D01*
X00275Y0212D01*
Y0214D01*
X00265Y0215D01*
X00225Y0217D02*
X00215Y0218D01*
Y022D01*
X00225Y0221D01*
X00235D01*
X00245Y022D01*
Y0219D01*
Y022D01*
X00255Y0221D01*
X00265D01*
X00275Y022D01*
Y0218D01*
X00265Y0217D01*
X01795Y02105D02*
X01785Y02095D01*
Y02075D01*
X01795Y02065D01*
X01835D01*
X01845Y02075D01*
Y02095D01*
X01835Y02105D01*
X01845Y02165D02*
Y02125D01*
X01805Y02165D01*
X01795D01*
X01785Y02155D01*
Y02135D01*
X01795Y02125D01*
X0171Y0211D02*
X017Y021D01*
Y0208D01*
X0171Y0207D01*
X0175D01*
X0176Y0208D01*
Y021D01*
X0175Y0211D01*
X0176Y0213D02*
Y0215D01*
Y0214D01*
X017D01*
X0171Y0213D01*
M02*
