G04*
G04 #@! TF.GenerationSoftware,Altium Limited,Altium Designer,22.9.1 (49)*
G04*
G04 Layer_Color=32896*
%FSTAX24Y24*%
%MOIN*%
G70*
G04*
G04 #@! TF.SameCoordinates,DC5806C5-9D72-4097-8AC5-96CD70471510*
G04*
G04*
G04 #@! TF.FilePolarity,Positive*
G04*
G01*
G75*
%ADD53C,0.0039*%
%ADD54C,0.0047*%
%ADD55C,0.0059*%
D53*
X003681Y006766D02*
X003747Y006831D01*
Y006962D01*
X003681Y007028D01*
X003419D01*
X003353Y006962D01*
Y006831D01*
X003419Y006766D01*
X003747Y006372D02*
Y006634D01*
X00355D01*
X003616Y006503D01*
Y006438D01*
X00355Y006372D01*
X003419D01*
X003353Y006438D01*
Y006569D01*
X003419Y006634D01*
D54*
X007857Y006926D02*
X007936Y007004D01*
Y007162D01*
X007857Y00724D01*
X007543D01*
X007464Y007162D01*
Y007004D01*
X007543Y006926D01*
X007464Y006768D02*
Y006611D01*
Y006689D01*
X007936D01*
X007857Y006768D01*
Y006374D02*
X007936Y006296D01*
Y006138D01*
X007857Y00606D01*
X007779D01*
X0077Y006138D01*
Y006217D01*
Y006138D01*
X007621Y00606D01*
X007543D01*
X007464Y006138D01*
Y006296D01*
X007543Y006374D01*
X005707Y006779D02*
X005786Y006857D01*
Y007015D01*
X005707Y007094D01*
X005393D01*
X005314Y007015D01*
Y006857D01*
X005393Y006779D01*
X005786Y006306D02*
X005707Y006464D01*
X00555Y006621D01*
X005393D01*
X005314Y006543D01*
Y006385D01*
X005393Y006306D01*
X005471D01*
X00555Y006385D01*
Y006621D01*
D55*
X005267Y002757D02*
X005071D01*
X005169D01*
Y002265D01*
X005071Y002167D01*
X004972D01*
X004874Y002265D01*
X005858Y002757D02*
X005464D01*
Y002462D01*
X005661Y00256D01*
X005759D01*
X005858Y002462D01*
Y002265D01*
X005759Y002167D01*
X005563D01*
X005464Y002265D01*
M02*
