G04*
G04 #@! TF.GenerationSoftware,Altium Limited,Altium Designer,22.9.1 (49)*
G04*
G04 Layer_Color=8388736*
%FSTAX24Y24*%
%MOIN*%
G70*
G04*
G04 #@! TF.SameCoordinates,DC5806C5-9D72-4097-8AC5-96CD70471510*
G04*
G04*
G04 #@! TF.FilePolarity,Positive*
G04*
G01*
G75*
%ADD14C,0.0079*%
%ADD52C,0.0020*%
D14*
X023754Y000135D02*
Y002478D01*
X020762D02*
X023754D01*
X020762Y000135D02*
Y002478D01*
Y000135D02*
X023754D01*
X020604D02*
Y002478D01*
X017612D02*
X020604D01*
X017612Y000135D02*
Y002478D01*
Y000135D02*
X020604D01*
X008554Y019835D02*
Y022178D01*
X005562D02*
X008554D01*
X005562Y019835D02*
Y022178D01*
Y019835D02*
X008554D01*
X023388Y019785D02*
Y022128D01*
X020396D02*
X023388D01*
X020396Y019785D02*
Y022128D01*
Y019785D02*
X023388D01*
X018633Y004093D02*
X024067D01*
Y009107D01*
X018633D02*
X024067D01*
X018633Y004093D02*
Y009107D01*
D52*
X007503Y00665D02*
X007897D01*
X0077Y006453D02*
Y006847D01*
X006735Y007949D02*
X008665D01*
X006735Y005351D02*
Y007949D01*
Y005351D02*
X008665D01*
Y007949D01*
X003353Y0067D02*
X003747D01*
X00355Y006503D02*
Y006897D01*
X004515Y005401D02*
Y007999D01*
X002585Y005401D02*
X004515D01*
X002585D02*
Y007999D01*
X004515D01*
X006515Y005401D02*
Y007999D01*
X004585Y005401D02*
X006515D01*
X004585D02*
Y007999D01*
X006515D01*
X00555Y006503D02*
Y006897D01*
X005353Y0067D02*
X005747D01*
X002742Y004903D02*
X00799D01*
Y000021D02*
Y004903D01*
X002742Y000021D02*
X00799D01*
X002742D02*
Y004903D01*
M02*
