M48
;Layer_Color=9474304
;FILE_FORMAT=2:4
INCH,LZ
;TYPE=PLATED
T1F00S00C0.0118
T2F00S00C0.0280
T3F00S00C0.0315
T4F00S00C0.0394
T5F00S00C0.1181
%
T01
X04725Y027
X04875Y03
X05325
X05475
X05625
X05775
X0585Y0285
X05775Y027
X054Y0255
X051
X04575Y027
X04425
X04275
X042Y0285
X0405
X039
X03975Y027
X03825
X039Y0255
X036
X03525Y027
X036Y0285
X0345
X03525Y03
X036Y0315
X0345
X03525Y033
X03675
X03825
X03975
X0405Y0315
X039Y0375
X03975Y039
Y042
X04575
X0465Y0435
X045
X04575Y045
X04425
X045Y0465
X0465
X0435
X045Y0405
X0465
X04575Y039
X0465Y0375
X045
X0345Y0345
X03525Y045
X036Y0465
X048
X04725Y045
X05175
X0525Y0435
X05175Y042
X0525Y0405
X05175Y039
X0525Y0375
X0585
X05775Y039
X0585Y0405
X05775Y042
X0585Y0435
X05775Y033
X0585Y0315
X04725Y036
T02
X0493Y027
X050765Y02695
X05415Y02755
X05705Y0277
X05375Y03105
X05045
X0488
X0428Y0307
X0407Y02725
X0428Y0314
Y032
Y0326
X04145Y033
X0409Y0349
X04035
X040883Y036433
X0437Y0342
X0456Y0349
X0463
X03705Y03445
X0363Y03485
X03515Y0343
X0352Y03645
X0375Y0442
X03945Y045
X0513Y0456
X0514Y0343
X0504
X04945Y033
X047Y0349
X047817Y036383
X05375Y03635
X0536Y0349
X05305
X0524
X0557Y0335
X05725Y03375
X0577Y0349
X058375
X05905
T03
X052132Y04705
X052919
X053706
X054494
X055281
X056069
X04125
X040463
X039675
X038888
X0381
X037313
T04
X052216Y0251
X0532
X055366
X05635
X0407Y02595
X0377
X040166Y0448
X04115
X055Y04475
X055984
T05
X0587Y025
X0345
X05865Y04745
X0345
M30
